{
.appVersion = "3414";
.formatVersion = 3;
DisplayStrings = (
"۔،؛؟٭؍﴾﴿.,:;…!¡?¿·•*#///backslash -–—_(){}[]‚„“”‘’«»‹›\"'﷼٪؉@&
©®™°|¢$€£¥+−×÷=><~^%‰
moc.oohay@o_deezay",
"A¨˙´ˇ˘˚˜¯¸˛",
"ﷺ",
"ÁÂÄÀÅÃÇÐäåçóôöòṏ̧̇̀́̂̊̃",
"AÁÂÄÀÅÃCÇÐaäåcçóôöòṏ̧̇̀́̂̊̃¨˙`´˝ˆˇ˘˚˜¯¸˛",
ABCDGJOPSUacdefghjmnorsty
);
axes = (
{
name = Width;
tag = wdth;
},
{
name = Weight;
tag = wght;
}
);
customParameters = (
{
name = "Export Mac Name Table Entries";
value = 0;
},
{
name = "Enforce Compatibility Check";
value = 1;
},
{
name = "Update Features";
value = 1;
},
{
name = fsType;
value = (
);
},
{
name = "Use Typo Metrics";
value = 1;
},
{
name = "Use Line Breaks";
value = 1;
},
{
name = "meta Table";
value = (
{
data = "Arab, Latn";
tag = dlng;
},
{
data = "Arab, Latn";
tag = slng;
}
);
}
);
date = "2025-03-31 20:54:56 +0000";
familyName = Firjar;
featurePrefixes = (
{
code = "languagesystem DFLT dflt;
languagesystem arab dflt;
languagesystem latn dflt;
languagesystem arab URD;";
name = Languagesystems;
}
);
features = (
{
automatic = 1;
code = "feature init;
feature medi;
feature fina;
feature ss01;
feature locl;
";
tag = aalt;
},
{
automatic = 1;
code = "lookup ccmp_arab_1 {
	lookupflag 0;
	sub hamzaabove-ar damma-ar by hamzaaboveDamma-ar;
	sub damma-ar hamzaabove-ar by hamzaaboveDamma-ar;
	sub hamzaabove-ar dammatan-ar by hamzaaboveDammatan-ar;
	sub dammatan-ar hamzaabove-ar by hamzaaboveDammatan-ar;
	sub hamzaabove-ar fatha-ar by hamzaaboveFatha-ar;
	sub fatha-ar hamzaabove-ar by hamzaaboveFatha-ar;
	sub hamzaabove-ar fathatan-ar by hamzaaboveFathatan-ar;
	sub fathatan-ar hamzaabove-ar by hamzaaboveFathatan-ar;
	sub hamzaabove-ar sukun-ar by hamzaaboveSukun-ar;
	sub sukun-ar hamzaabove-ar by hamzaaboveSukun-ar;
	sub hamzabelow-ar kasra-ar by hamzabelowKasra-ar;
	sub kasra-ar hamzabelow-ar by hamzabelowKasra-ar;
	sub hamzabelow-ar kasratan-ar by hamzabelowKasratan-ar;
	sub kasratan-ar hamzabelow-ar by hamzabelowKasratan-ar;
	sub shadda-ar alefabove-ar by shaddaAlefabove-ar;

glyphs = (
{
glyphname = A;
kernLeft = A;
kernRight = A;
lastChange = "2025-05-31 12:48:14 +0000";
layers = (
{
anchors = (
{
name = bottom;
pos = (466,0);
},
{
name = ogonek;
pos = (839,10);
},
{
name = top;
pos = (466,640);
}
);
layerId = "71E51144-4680-4E23-982C-DE3E5ABB4D1F";
shapes = (
{
attr = {
strokePos = 0;
};
closed = 1;
nodes = (
(236,0,l),
(236,440,ls),
(236,480,o),
(266,480,qs),
(666,480,ls),
(696,480,o),
(696,440,qs),
(696,0,l),
(866,0,l),
(866,440,ls),
(866,640,o),
(666,640,qs),
(266,640,ls),
(66,640,o),
(66,440,qs),
(66,0,l)
);
},
{
closed = 1;
nodes = (
(862,195,l),
(862,355,l),
(69,355,l),
(69,195,l)
);
}
);
width = 932;
},
{
anchors = (
{
name = bottom;
pos = (400,0);
},
{
name = ogonek;
pos = (720,10);
},
{
name = top;
pos = (400,640);
}
);
layerId = "A1E4B453-6299-48B5-AC61-B31B01EA2EEB";
shapes = (
{
attr = {
strokePos = "0";
};
closed = 1;
nodes = (
(110,0,l),
(110,450,ls),
(110,610,o),
(270,610,qs),
(530,610,ls),
(690,610,o),
(690,450,qs),
(690,0,l),
(720,0,l),
(720,450,ls),
(720,640,o),
(530,640,qs),
(270,640,ls),
(80,640,o),
(80,450,qs),
(80,0,l)
);
},
{
closed = 1;
nodes = (
(717,259,l),
(717,289,l),
(82,289,l),
(82,259,l)
);
}
);
width = 800;
},
{
anchors = (
{
name = bottom;
pos = (248,0);
},
{
name = ogonek;
pos = (446,10);
},
{
name = top;
pos = (248,640);
}
);
layerId = "8544E31D-FA38-4D18-9DEA-5E3E35DDFD01";
shapes = (
{
attr = {
strokePos = 0;
};
closed = 1;
nodes = (
(202,0,l),
(202,490,ls),
(202,500,o),
(212,500,qs),
(284,500,ls),
(294,500,o),
(294,490,qs),
(294,0,l),
(444,0,l),
(444,480,ls),
(444,640,o),
(284,640,qs),
(212,640,ls),
(52,640,o),
(52,480,qs),
(52,0,l)
);
},
{
closed = 1;
nodes = (
(442,195,l),
(442,335,l),
(54,335,l),
(54,195,l)
);
}
);
width = 496;
},
{
anchors = (
{
name = bottom;
pos = (197,0);
},
{
name = ogonek;
pos = (355,10);
},
{
name = top;
pos = (197,640);
}
);
layerId = "3CC93672-F71B-4D5C-A968-72DE9C2CEAD3";
shapes = (
{
attr = {
strokePos = "0";
};
closed = 1;
nodes = (
(60,0,l),
(60,490,ls),
(60,610,o),
(180,610,qs),
(214,610,ls),
(334,610,o),
(334,490,qs),
(334,0,l),
(364,0,l),
(364,490,ls),
(364,640,o),
(214,640,qs),
(180,640,ls),
(30,640,o),
(30,490,qs),
(30,0,l)
);
},
{
closed = 1;
nodes = (
(362,259,l),
(362,289,l),
(32,289,l),
(32,259,l)
);
}
);
width = 394;
}
);
metricLeft = H;
metricRight = H;
unicode = 65;
},
{
glyphname = B;
kernLeft = H;
kernRight = B;
lastChange = "2025-05-31 12:49:13 +0000";
layers = (
{
anchors = (
{
name = bottom;
pos = (467,0);
},
{
name = center;
pos = (233,160);
},
{
name = top;
pos = (467,640);
}
);
layerId = "71E51144-4680-4E23-982C-DE3E5ABB4D1F";
shapes = (
{
attr = {
strokePos = "1";
};
closed = 1;
nodes = (
(236,0,l),
(236,480,l),
(641,480,ls),
(671,480,o),
(671,450,qs),
(671,435,ls),
(671,405,o),
(641,405,q),
(641,245,l),
(841,245,o),
(841,435,qs),
(841,450,ls),
(841,640,o),
(641,640,qs),
(66,640,l),
(66,0,l)
);
},
{
attr = {
strokePos = "1";
};
closed = 1;
nodes = (
(678,0,ls),
(878,0,o),
(878,190,qs),
(878,215,ls),
(878,405,o),
(678,405,qs),
(73,405,l),
(73,245,l),
(678,245,ls),
(708,245,o),
(708,215,qs),
(708,190,ls),
(708,160,o),
(678,160,qs),
(73,160,l),
(73,0,l)
);
}
);
width = 933;
},
{
anchors = (
{
name = bottom;
pos = (400,0);
},
{
name = center;
pos = (200,160);
},
{
name = top;
pos = (400,640);
}
);
layerId = "A1E4B453-6299-48B5-AC61-B31B01EA2EEB";
shapes = (
{
attr = {
strokePos = "1";
};
closed = 1;
nodes = (
(110,0,l),
(110,610,l),
(510,610,ls),
(670,610,o),
(670,482,qs),
(670,469,ls),
(670,341,o),
(510,341,q),
(510,311,l),
(700,311,o),
(700,469,qs),
(700,482,ls),
(700,640,o),
(510,640,qs),
(80,640,l),
(80,0,l)
);
},
{
attr = {
strokePos = "1";
};
closed = 1;
nodes = (
(540,0,ls),
(730,0,o),
(730,158,qs),
(730,183,ls),
(730,341,o),
(540,341,qs),
(86,341,l),
(86,311,l),
(540,311,ls),
(700,311,o),
(700,183,qs),
(700,158,ls),
(700,30,o),
(540,30,qs),
(86,30,l),
(86,0,l)
);
}
);
width = 800;
},
{
anchors = (
{
name = bottom;
pos = (252,0);
},
{
name = center;
pos = (126,160);
},
{
name = top;
pos = (252,640);
}
);
layerId = "8544E31D-FA38-4D18-9DEA-5E3E35DDFD01";
shapes = (
{
attr = {
strokePos = "1";
};
closed = 1;
nodes = (
(202,0,l),
(202,500,l),
(268,500,ls),
(278,500,o),
(278,490,qs),
(278,409,ls),
(278,399,o),
(268,399,q),
(268,259,l),
(428,259,o),
(428,419,qs),
(428,480,ls),
(428,640,o),
(268,640,qs),
(52,640,l),
(52,0,l)
);
},
{
attr = {
strokePos = "1";
};
closed = 1;
nodes = (
(292,0,ls),
(452,0,o),
(452,160,qs),
(452,239,ls),
(452,399,o),
(292,399,qs),
(57,399,l),
(57,259,l),
(292,259,ls),
(302,259,o),
(302,249,qs),
(302,150,ls),
(302,140,o),
(292,140,qs),
(57,140,l),
(57,0,l)
);
}
);
width = 504;
},
{
anchors = (
{
name = bottom;
pos = (191,0);
},
{
name = center;
pos = (95,160);
},
{
name = top;
pos = (191,640);
}
);
layerId = "3CC93672-F71B-4D5C-A968-72DE9C2CEAD3";
shapes = (
{
attr = {
strokePos = "1";
};
closed = 1;
nodes = (
(60,0,l),
(60,610,l),
(177,610,ls),
(297,610,o),
(297,490,qs),
(297,461,ls),
(297,341,o),
(177,341,q),
(177,311,l),
(327,311,o),
(327,461,qs),
(327,490,ls),
(327,640,o),
(177,640,qs),
(30,640,l),
(30,0,l)
);
},
{
attr = {
strokePos = "1";
};
closed = 1;
nodes = (
(196,0,ls),
(346,0,o),
(346,150,qs),
(346,191,ls),
(346,341,o),
(196,341,qs),
(34,341,l),
(34,311,l),
(196,311,ls),
(316,311,o),
(316,191,qs),
(316,150,ls),
(316,30,o),
(196,30,qs),
(34,30,l),
(34,0,l)
);
}
);
width = 381;
}
);
metricLeft = H;
metricRight = O;
unicode = 66;
},
{
glyphname = C;
kernLeft = O;
kernRight = C;
lastChange = "2025-05-31 12:53:35 +0000";
layers = (
{
anchors = (
{
name = bottom;
pos = (467,0);
},
{
name = top;
pos = (467,640);
}
);
layerId = "71E51144-4680-4E23-982C-DE3E5ABB4D1F";
shapes = (
{
attr = {
identifier = ID0x3050a7720;
strokePos = "1";
};
closed = 1;
nodes = (
(868,0,l),
(868,160,l),
(255,160,ls),
(225,160,o),
(225,200,qs),
(225,440,ls),
(225,480,o),
(255,480,qs),
(868,480,l),
(868,640,l),
(255,640,ls),
(55,640,o),
(55,440,qs),
(55,200,ls),
(55,0,o),
(255,0,qs)
);
}
);
width = 934;
},
{
anchors = (
{
name = bottom;
pos = (401,0);
},
{
name = top;
pos = (401,640);
}
);
layerId = "A1E4B453-6299-48B5-AC61-B31B01EA2EEB";
shapes = (
{
attr = {
identifier = ID0x3050a7720;
strokePos = "1";
};
closed = 1;
nodes = (
(721,0,l),
(721,30,l),
(260,30,ls),
(100,30,o),
(100,190,qs),
(100,450,ls),
(100,610,o),
(260,610,qs),
(721,610,l),
(721,640,l),
(260,640,ls),
(70,640,o),
(70,450,qs),
(70,190,ls),
(70,0,o),
(260,0,qs)
);
}
);
width = 801;
},
{
anchors = (
{
name = bottom;
pos = (213,0);
},
{
name = top;
pos = (213,640);
}
);
layerId = "8544E31D-FA38-4D18-9DEA-5E3E35DDFD01";
shapes = (
{
attr = {
identifier = ID0x3050a7720;
strokePos = "1";
};
closed = 1;
nodes = (
(373,0,l),
(373,140,l),
(212,140,ls),
(202,140,o),
(202,150,qs),
(202,490,ls),
(202,500,o),
(212,500,qs),
(373,500,l),
(373,640,l),
(212,640,ls),
(52,640,o),
(52,480,qs),
(52,160,ls),
(52,0,o),
(212,0,qs)
);
}
);
width = 425;
},
{
anchors = (
{
name = bottom;
pos = (177,0);
},
{
name = top;
pos = (177,640);
}
);
layerId = "3CC93672-F71B-4D5C-A968-72DE9C2CEAD3";
shapes = (
{
attr = {
identifier = ID0x3050a7720;
strokePos = "1";
};
closed = 1;
nodes = (
(324,0,l),
(324,30,l),
(185,30,ls),
(65,30,o),
(65,150,qs),
(65,490,ls),
(65,610,o),
(185,610,qs),
(324,610,l),
(324,640,l),
(185,640,ls),
(35,640,o),
(35,490,qs),
(35,150,ls),
(35,0,o),
(185,0,qs)
);
}
);
width = 354;
}
);
metricLeft = O;
metricRight = H;
unicode = 67;
},
{
glyphname = D;
kernLeft = H;
kernRight = O;
lastChange = "2025-05-31 12:54:19 +0000";
layers = (
{
anchors = (
{
name = bottom;
pos = (467,0);
},
{
name = center;
pos = (233,320);
},
{
name = top;
pos = (467,640);
}
);
layerId = "71E51144-4680-4E23-982C-DE3E5ABB4D1F";
shapes = (
{
attr = {
strokePos = 1;
};
closed = 1;
nodes = (
(678,0,ls),
(878,0,o),
(878,200,qs),
(878,440,ls),
(878,640,o),
(678,640,qs),
(66,640,l),
(66,0,l)
);
},
{
attr = {
strokePos = 1;
};
closed = 1;
nodes = (
(236,480,l),
(678,480,ls),
(708,480,o),
(708,440,qs),
(708,200,ls),
(708,160,o),
(678,160,qs),
(236,160,l)
);
}
);
width = 933;
},
{
anchors = (
{
name = bottom;
pos = (400,0);
},
{
name = center;
pos = (200,320);
},
{
name = top;
pos = (400,640);
}
);
layerId = "A1E4B453-6299-48B5-AC61-B31B01EA2EEB";
shapes = (
{
attr = {
strokePos = "1";
};
closed = 1;
nodes = (
(540,0,ls),
(730,0,o),
(730,190,qs),
(730,450,ls),
(730,640,o),
(540,640,qs),
(80,640,l),
(80,0,l)
);
},
{
attr = {
strokePos = "1";
};
closed = 1;
nodes = (
(110,610,l),
(540,610,ls),
(700,610,o),
(700,450,qs),
(700,190,ls),
(700,30,o),
(540,30,qs),
(110,30,l)
);
}
);
width = 800;
},
{
anchors = (
{
name = bottom;
pos = (247,0);
},
{
name = center;
pos = (124,320);
},
{
name = top;
pos = (247,640);
}
);
layerId = "8544E31D-FA38-4D18-9DEA-5E3E35DDFD01";
shapes = (
{
attr = {
strokePos = 1;
};
closed = 1;
nodes = (
(282,0,ls),
(442,0,o),
(442,160,qs),
(442,480,ls),
(442,640,o),
(282,640,qs),
(52,640,l),
(52,0,l)
);
},
{
attr = {
strokePos = 1;
};
closed = 1;
nodes = (
(202,500,l),
(282,500,ls),
(292,500,o),
(292,490,qs),
(292,150,ls),
(292,140,o),
(282,140,qs),
(202,140,l)
);
}
);
width = 494;
},
{
anchors = (
{
name = bottom;
pos = (199,0);
},
{
name = center;
pos = (99,320);
},
{
name = top;
pos = (199,640);
}
);
layerId = "3CC93672-F71B-4D5C-A968-72DE9C2CEAD3";
shapes = (
{
attr = {
strokePos = "1";
};
closed = 1;
nodes = (
(212,0,ls),
(362,0,o),
(362,150,qs),
(362,490,ls),
(362,640,o),
(212,640,qs),
(30,640,l),
(30,0,l)
);
},
{
attr = {
strokePos = "1";
};
closed = 1;
nodes = (
(60,610,l),
(212,610,ls),
(332,610,o),
(332,490,qs),
(332,150,ls),
(332,30,o),
(212,30,qs),
(60,30,l)
);
}
);
width = 397;
}
);
metricLeft = H;
metricRight = O;
unicode = 68;
},
{
color = 3;
glyphname = E;
kernLeft = H;
kernRight = E;
lastChange = "2025-05-31 11:36:32 +0000";
layers = (
{
anchors = (
{
name = bottom;
pos = (390,0);
},
{
name = ogonek;
pos = (701,10);
},
{
name = top;
pos = (390,640);
},
{
name = topleft;
pos = (20,640);
}
);
layerId = "71E51144-4680-4E23-982C-DE3E5ABB4D1F";
shapes = (
{
attr = {
strokePos = 1;
};
closed = 1;
nodes = (
(759,0,l),
(759,160,l),
(236,160,l),
(236,480,l),
(759,480,l),
(759,640,l),
(66,640,l),
(66,0,l)
);
},
{
closed = 1;
nodes = (
(662,240,l),
(662,400,l),
(78,400,l),
(78,240,l)
);
}
);
width = 779;
},
{
anchors = (
{
name = bottom;
pos = (343,0);
},
{
name = ogonek;
pos = (617,10);
},
{
name = top;
pos = (343,640);
},
{
name = topleft;
pos = (20,640);
}
);
layerId = "A1E4B453-6299-48B5-AC61-B31B01EA2EEB";
shapes = (
{
attr = {
strokePos = 1;
};
closed = 1;
nodes = (
(635,0,l),
(635,30,l),
(110,30,l),
(110,610,l),
(635,610,l),
(635,640,l),
(80,640,l),
(80,0,l)
);
},
{
closed = 1;
nodes = (
(557,305,l),
(557,335,l),
(90,335,l),
(90,305,l)
);
}
);
width = 685;
},
{
anchors = (
{
name = bottom;
pos = (186,0);
},
{
name = ogonek;
pos = (335,10);
},
{
name = top;
pos = (186,640);
},
{
name = topleft;
pos = (20,640);
}
);
layerId = "8544E31D-FA38-4D18-9DEA-5E3E35DDFD01";
shapes = (
{
attr = {
strokePos = 1;
};
closed = 1;
nodes = (
(342,0,l),
(342,140,l),
(202,140,l),
(202,500,l),
(342,500,l),
(342,640,l),
(52,640,l),
(52,0,l)
);
},
{
closed = 1;
nodes = (
(292,250,l),
(292,390,l),
(58,390,l),
(58,250,l)
);
}
);
width = 372;
},
{
anchors = (
{
name = bottom;
pos = (171,0);
},
{
name = ogonek;
pos = (308,10);
},
{
name = top;
pos = (171,640);
},
{
name = topleft;
pos = (20,640);
}
);
layerId = "3CC93672-F71B-4D5C-A968-72DE9C2CEAD3";
shapes = (
{
attr = {
strokePos = 1;
};
closed = 1;
nodes = (
(322,0,l),
(322,30,l),
(60,30,l),
(60,610,l),
(322,610,l),
(322,640,l),
(30,640,l),
(30,0,l)
);
},
{
closed = 1;
nodes = (
(271,305,l),
(271,335,l),
(37,335,l),
(37,305,l)
);
}
);
width = 342;
}
);
metricLeft = H;
unicode = 69;
},
{
glyphname = F;
kernLeft = H;
kernRight = F;
lastChange = "2025-05-31 11:36:32 +0000";
layers = (
{
anchors = (
{
name = bottom;
pos = (390,0);
},
{
name = top;
pos = (390,640);
}
);
layerId = "71E51144-4680-4E23-982C-DE3E5ABB4D1F";
shapes = (
{
attr = {
strokePos = "1";
};
closed = 1;
nodes = (
(236,0,l),
(236,480,l),
(759,480,l),
(759,640,l),
(66,640,l),
(66,0,l)
);
},
{
closed = 1;
nodes = (
(662,210,l),
(662,370,l),
(78,370,l),
(78,210,l)
);
}
);
width = 779;
},
{
anchors = (
{
name = bottom;
pos = (343,0);
},
{
name = top;
pos = (343,640);
}
);
layerId = "A1E4B453-6299-48B5-AC61-B31B01EA2EEB";
shapes = (
{
attr = {
strokePos = "1";
};
closed = 1;
nodes = (
(110,0,l),
(110,610,l),
(635,610,l),
(635,640,l),
(80,640,l),
(80,0,l)
);
},
{
closed = 1;
nodes = (
(557,275,l),
(557,305,l),
(90,305,l),
(90,275,l)
);
}
);
width = 685;
},
{
anchors = (
{
name = bottom;
pos = (186,0);
},
{
name = top;
pos = (186,640);
}
);
layerId = "8544E31D-FA38-4D18-9DEA-5E3E35DDFD01";
shapes = (
{
attr = {
strokePos = "1";
};
closed = 1;
nodes = (
(202,0,l),
(202,500,l),
(342,500,l),
(342,640,l),
(52,640,l),
(52,0,l)
);
},
{
closed = 1;
nodes = (
(291,220,l),
(291,360,l),
(58,360,l),
(58,220,l)
);
}
);
width = 372;
},
{
anchors = (
{
name = bottom;
pos = (171,0);
},
{
name = top;
pos = (171,640);
}
);
layerId = "3CC93672-F71B-4D5C-A968-72DE9C2CEAD3";
shapes = (
{
attr = {
strokePos = "1";
};
closed = 1;
nodes = (
(60,0,l),
(60,610,l),
(322,610,l),
(322,640,l),
(30,640,l),
(30,0,l)
);
},
{
closed = 1;
nodes = (
(271,275,l),
(271,305,l),
(37,305,l),
(37,275,l)
);
}
);
width = 342;
}
);
metricLeft = H;
metricRight = E;
unicode = 70;
},
{
glyphname = G;
kernLeft = O;
kernRight = G;
lastChange = "2025-05-31 12:56:02 +0000";
layers = (
{
anchors = (
{
name = bottom;
pos = (511,0);
},
{
name = top;
pos = (511,640);
}
);
layerId = "71E51144-4680-4E23-982C-DE3E5ABB4D1F";
shapes = (
{
attr = {
identifier = ID0x3050a7720;
strokePos = "1";
};
closed = 1;
nodes = (
(956,0,l),
(956,394,l),
(427,394,l),
(427,244,l),
(786,244,l),
(786,160,l),
(255,160,ls),
(225,160,o),
(225,200,qs),
(225,440,ls),
(225,480,o),
(255,480,qs),
(927,480,l),
(927,640,l),
(255,640,ls),
(55,640,o),
(55,440,qs),
(55,200,ls),
(55,0,o),
(255,0,qs)
);
}
);
width = 1022;
},
{
anchors = (
{
name = bottom;
pos = (436,0);
},
{
name = top;
pos = (436,640);
}
);
layerId = "A1E4B453-6299-48B5-AC61-B31B01EA2EEB";
shapes = (
{
attr = {
identifier = ID0x3050a7720;
strokePos = "1";
};
closed = 1;
nodes = (
(791,0,l),
(791,328,l),
(368,328,l),
(368,298,l),
(761,298,l),
(761,30,l),
(260,30,ls),
(100,30,o),
(100,190,qs),
(100,450,ls),
(100,610,o),
(260,610,qs),
(752,610,l),
(752,640,l),
(260,640,ls),
(70,640,o),
(70,450,qs),
(70,190,ls),
(70,0,o),
(260,0,qs)
);
}
);
width = 871;
},
{
anchors = (
{
name = bottom;
pos = (244,0);
},
{
name = top;
pos = (244,640);
}
);
layerId = "8544E31D-FA38-4D18-9DEA-5E3E35DDFD01";
shapes = (
{
attr = {
identifier = ID0x3050a7720;
strokePos = "1";
};
closed = 1;
nodes = (
(435,0,l),
(435,394,l),
(241,394,l),
(241,254,l),
(295,254,l),
(295,140,l),
(212,140,ls),
(202,140,o),
(202,150,qs),
(202,490,ls),
(202,500,o),
(212,500,qs),
(425,500,l),
(425,640,l),
(212,640,ls),
(52,640,o),
(52,480,qs),
(52,160,ls),
(52,0,o),
(212,0,qs)
);
}
);
width = 487;
},
{
anchors = (
{
name = bottom;
pos = (199,0);
},
{
name = top;
pos = (199,640);
}
);
layerId = "3CC93672-F71B-4D5C-A968-72DE9C2CEAD3";
shapes = (
{
attr = {
identifier = ID0x3050a7720;
strokePos = "1";
};
closed = 1;
nodes = (
(368,0,l),
(368,328,l),
(226,328,l),
(226,298,l),
(338,298,l),
(338,30,l),
(185,30,ls),
(65,30,o),
(65,150,qs),
(65,490,ls),
(65,610,o),
(185,610,qs),
(350,610,l),
(350,640,l),
(185,640,ls),
(35,640,o),
(35,490,qs),
(35,150,ls),
(35,0,o),
(185,0,qs)
);
}
);
width = 398;
}
);
metricLeft = O;
metricRight = H;
unicode = 71;
},
{
color = 3;
glyphname = H;
kernLeft = H;
kernRight = H;
lastChange = "2025-05-31 11:36:32 +0000";
layers = (
{
anchors = (
{
name = bottom;
pos = (472,0);
},
{
name = center;
pos = (472,480);
},
{
name = top;
pos = (472,640);
},
{
name = topleft;
pos = (20,640);
}
);
layerId = "71E51144-4680-4E23-982C-DE3E5ABB4D1F";
shapes = (
{
attr = {
strokePos = 0;
};
closed = 1;
nodes = (
(878,0,l),
(878,640,l),
(708,640,l),
(708,0,l)
);
},
{
attr = {
strokePos = 1;
};
closed = 1;
nodes = (
(236,0,l),
(236,640,l),
(66,640,l),
(66,0,l)
);
},
{
closed = 1;
nodes = (
(866,226,l),
(866,386,l),
(78,386,l),
(78,226,l)
);
}
);
width = 944;
},
{
anchors = (
{
name = bottom;
pos = (405,0);
},
{
name = center;
pos = (405,480);
},
{
name = top;
pos = (405,640);
},
{
name = topleft;
pos = (20,640);
}
);
layerId = "A1E4B453-6299-48B5-AC61-B31B01EA2EEB";
shapes = (
{
attr = {
strokePos = 0;
};
closed = 1;
nodes = (
(730,0,l),
(730,640,l),
(700,640,l),
(700,0,l)
);
},
{
attr = {
strokePos = 1;
};
closed = 1;
nodes = (
(110,0,l),
(110,640,l),
(80,640,l),
(80,0,l)
);
},
{
closed = 1;
nodes = (
(720,291,l),
(720,321,l),
(90,321,l),
(90,291,l)
);
}
);
width = 810;
},
{
anchors = (
{
name = bottom;
pos = (236,0);
},
{
name = center;
pos = (236,480);
},
{
name = top;
pos = (236,640);
},
{
name = topleft;
pos = (20,640);
}
);
layerId = "8544E31D-FA38-4D18-9DEA-5E3E35DDFD01";
shapes = (
{
attr = {
strokePos = 0;
};
closed = 1;
nodes = (
(419,0,l),
(419,640,l),
(269,640,l),
(269,0,l)
);
},
{
attr = {
strokePos = 1;
};
closed = 1;
nodes = (
(202,0,l),
(202,640,l),
(52,640,l),
(52,0,l)
);
},
{
closed = 1;
nodes = (
(411,256,l),
(411,396,l),
(60,396,l),
(60,256,l)
);
}
);
width = 471;
},
{
anchors = (
{
name = bottom;
pos = (174,0);
},
{
name = center;
pos = (174,480);
},
{
name = top;
pos = (174,640);
},
{
name = topleft;
pos = (20,640);
}
);
layerId = "3CC93672-F71B-4D5C-A968-72DE9C2CEAD3";
shapes = (
{
attr = {
strokePos = 0;
};
closed = 1;
nodes = (
(318,0,l),
(318,640,l),
(288,640,l),
(288,0,l)
);
},
{
attr = {
strokePos = 1;
};
closed = 1;
nodes = (
(60,0,l),
(60,640,l),
(30,640,l),
(30,0,l)
);
},
{
closed = 1;
nodes = (
(312,291,l),
(312,321,l),
(36,321,l),
(36,291,l)
);
}
);
width = 348;
}
);
metricRight = "=|";
unicode = 72;
},
{
glyphname = I;
kernLeft = H;
kernRight = H;
lastChange = "2025-05-31 11:36:32 +0000";
layers = (
{
anchors = (
{
name = bottom;
pos = (151,0);
},
{
name = ogonek;
pos = (272,10);
},
{
name = top;
pos = (151,640);
},
{
name = topleft;
pos = (20,640);
}
);
layerId = "71E51144-4680-4E23-982C-DE3E5ABB4D1F";
shapes = (
{
closed = 1;
nodes = (
(236,0,l),
(236,640,l),
(66,640,l),
(66,0,l)
);
}
);
width = 302;
},
{
anchors = (
{
name = bottom;
pos = (95,0);
},
{
name = ogonek;
pos = (171,10);
},
{
name = top;
pos = (95,640);
},
{
name = topleft;
pos = (20,640);
}
);
layerId = "A1E4B453-6299-48B5-AC61-B31B01EA2EEB";
shapes = (
{
closed = 1;
nodes = (
(110,0,l),
(110,640,l),
(80,640,l),
(80,0,l)
);
}
);
width = 190;
},
{
anchors = (
{
name = bottom;
pos = (127,0);
},
{
name = ogonek;
pos = (229,10);
},
{
name = top;
pos = (127,640);
},
{
name = topleft;
pos = (20,640);
}
);
layerId = "8544E31D-FA38-4D18-9DEA-5E3E35DDFD01";
shapes = (
{
closed = 1;
nodes = (
(202,0,l),
(202,640,l),
(52,640,l),
(52,0,l)
);
}
);
width = 254;
},
{
anchors = (
{
name = bottom;
pos = (45,0);
},
{
name = ogonek;
pos = (81,10);
},
{
name = top;
pos = (45,640);
},
{
name = topleft;
pos = (20,640);
}
);
layerId = "3CC93672-F71B-4D5C-A968-72DE9C2CEAD3";
shapes = (
{
closed = 1;
nodes = (
(60,0,l),
(60,640,l),
(30,640,l),
(30,0,l)
);
}
);
width = 90;
}
);
metricLeft = H;
metricRight = H;
unicode = 73;
},
{
glyphname = J;
kernLeft = J;
kernRight = H;
lastChange = "2025-05-31 12:56:40 +0000";
layers = (
{
anchors = (
{
name = bottom;
pos = (486,0);
},
{
name = top;
pos = (486,640);
}
);
layerId = "71E51144-4680-4E23-982C-DE3E5ABB4D1F";
shapes = (
{
attr = {
identifier = ID0x322a633e0;
strokePos = "1";
};
closed = 1;
nodes = (
(705,0,ls),
(905,0,o),
(905,200,qs),
(905,640,l),
(735,640,l),
(735,200,ls),
(735,160,o),
(705,160,qs),
(266,160,ls),
(236,160,o),
(236,200,qs),
(236,286,l),
(66,286,l),
(66,200,ls),
(66,0,o),
(266,0,qs)
);
}
);
width = 971;
},
{
anchors = (
{
name = bottom;
pos = (416,0);
},
{
name = top;
pos = (416,640);
}
);
layerId = "A1E4B453-6299-48B5-AC61-B31B01EA2EEB";
shapes = (
{
attr = {
identifier = ID0x322a633e0;
strokePos = "1";
};
closed = 1;
nodes = (
(561,0,ls),
(751,0,o),
(751,190,qs),
(751,640,l),
(721,640,l),
(721,190,ls),
(721,30,o),
(561,30,qs),
(270,30,ls),
(110,30,o),
(110,190,qs),
(110,286,l),
(80,286,l),
(80,190,ls),
(80,0,o),
(270,0,qs)
);
}
);
width = 831;
},
{
anchors = (
{
name = bottom;
pos = (236,0);
},
{
name = top;
pos = (236,640);
}
);
layerId = "8544E31D-FA38-4D18-9DEA-5E3E35DDFD01";
shapes = (
{
attr = {
identifier = ID0x322a633e0;
strokePos = "1";
};
closed = 1;
nodes = (
(259,0,ls),
(419,0,o),
(419,160,qs),
(419,640,l),
(269,640,l),
(269,150,ls),
(269,140,o),
(259,140,qs),
(212,140,ls),
(202,140,o),
(202,150,qs),
(202,286,l),
(52,286,l),
(52,160,ls),
(52,0,o),
(212,0,qs)
);
}
);
width = 471;
},
{
anchors = (
{
name = bottom;
pos = (204,0);
},
{
name = top;
pos = (204,640);
}
);
layerId = "3CC93672-F71B-4D5C-A968-72DE9C2CEAD3";
shapes = (
{
attr = {
identifier = ID0x322a633e0;
strokePos = "1";
};
closed = 1;
nodes = (
(235,0,ls),
(377,0,o),
(377,150,qs),
(377,640,l),
(347,640,l),
(347,150,ls),
(347,30,o),
(235,30,qs),
(172,30,ls),
(60,30,o),
(60,150,qs),
(60,286,l),
(30,286,l),
(30,150,ls),
(30,0,o),
(172,0,qs)
);
}
);
width = 407;
}
);
metricLeft = H;
metricRight = H;
unicode = 74;
},
{
glyphname = K;
kernLeft = H;
kernRight = K;
lastChange = "2025-05-31 11:36:32 +0000";
layers = (
{
anchors = (
{
name = bottom;
pos = (439,0);
},
{
name = top;
pos = (439,640);
}
);
layerId = "71E51144-4680-4E23-982C-DE3E5ABB4D1F";
shapes = (
{
closed = 1;
nodes = (
(867,0,l),
(629,320,l),
(867,640,l),
(681,640,l),
(443,320,l),
(681,0,l)
);
},
{
attr = {
strokePos = "1";
};
closed = 1;
nodes = (
(236,0,l),
(236,640,l),
(66,640,l),
(66,0,l)
);
},
{
closed = 1;
nodes = (
(531,240,l),
(531,400,l),
(73,400,l),
(73,240,l)
);
}
);
width = 877;
},
{
anchors = (
{
name = bottom;
pos = (367,0);
},
{
name = top;
pos = (367,640);
}
);
layerId = "A1E4B453-6299-48B5-AC61-B31B01EA2EEB";
shapes = (
{
closed = 1;
nodes = (
(713,0,l),
(523,320,l),
(713,640,l),
(679,640,l),
(489,320,l),
(679,0,l)
);
},
{
attr = {
strokePos = "1";
};
closed = 1;
nodes = (
(110,0,l),
(110,640,l),
(80,640,l),
(80,0,l)
);
},
{
closed = 1;
nodes = (
(502,305,l),
(502,335,l),
(85,335,l),
(85,305,l)
);
}
);
width = 733;
},
{
anchors = (
{
name = bottom;
pos = (236,0);
},
{
name = top;
pos = (236,640);
}
);
layerId = "8544E31D-FA38-4D18-9DEA-5E3E35DDFD01";
shapes = (
{
closed = 1;
nodes = (
(451,0,l),
(333,320,l),
(451,640,l),
(301,640,l),
(183,320,l),
(301,0,l)
);
},
{
attr = {
strokePos = "1";
};
closed = 1;
nodes = (
(202,0,l),
(202,640,l),
(52,640,l),
(52,0,l)
);
},
{
closed = 1;
nodes = (
(255,250,l),
(255,390,l),
(56,390,l),
(56,250,l)
);
}
);
width = 471;
},
{
anchors = (
{
name = bottom;
pos = (167,0);
},
{
name = top;
pos = (167,640);
}
);
layerId = "3CC93672-F71B-4D5C-A968-72DE9C2CEAD3";
shapes = (
{
closed = 1;
nodes = (
(324,0,l),
(198,320,l),
(324,640,l),
(292,640,l),
(166,320,l),
(292,0,l)
);
},
{
attr = {
strokePos = "1";
};
closed = 1;
nodes = (
(60,0,l),
(60,640,l),
(30,640,l),
(30,0,l)
);
},
{
closed = 1;
nodes = (
(179,305,l),
(179,335,l),
(34,335,l),
(34,305,l)
);
}
);
width = 334;
}
);
metricLeft = H;
metricRight = X;
unicode = 75;
},
{
glyphname = L;
kernLeft = H;
kernRight = L;
lastChange = "2025-05-31 11:36:32 +0000";
layers = (
{
anchors = (
{
name = bottom;
pos = (396,0);
},
{
name = center;
pos = (396,320);
},
{
name = top;
pos = (396,640);
},
{
name = topright;
pos = (772,640);
}
);
layerId = "71E51144-4680-4E23-982C-DE3E5ABB4D1F";
shapes = (
{
attr = {
strokePos = "1";
};
closed = 1;
nodes = (
(759,0,l),
(759,160,l),
(236,160,l),
(236,640,l),
(66,640,l),
(66,0,l)
);
}
);
width = 792;
},
{
anchors = (
{
name = bottom;
pos = (338,0);
},
{
name = center;
pos = (338,320);
},
{
name = top;
pos = (338,640);
},
{
name = topright;
pos = (655,640);
}
);
layerId = "A1E4B453-6299-48B5-AC61-B31B01EA2EEB";
shapes = (
{
attr = {
strokePos = "1";
};
closed = 1;
nodes = (
(635,0,l),
(635,30,l),
(110,30,l),
(110,640,l),
(80,640,l),
(80,0,l)
);
}
);
width = 675;
},
{
anchors = (
{
name = bottom;
pos = (196,0);
},
{
name = center;
pos = (196,320);
},
{
name = top;
pos = (196,640);
},
{
name = topright;
pos = (372,640);
}
);
layerId = "8544E31D-FA38-4D18-9DEA-5E3E35DDFD01";
shapes = (
{
attr = {
strokePos = "1";
};
closed = 1;
nodes = (
(366,0,l),
(366,140,l),
(202,140,l),
(202,640,l),
(52,640,l),
(52,0,l)
);
}
);
width = 392;
},
{
anchors = (
{
name = bottom;
pos = (130,0);
},
{
name = center;
pos = (130,320);
},
{
name = top;
pos = (130,640);
},
{
name = topright;
pos = (240,640);
}
);
layerId = "3CC93672-F71B-4D5C-A968-72DE9C2CEAD3";
shapes = (
{
attr = {
strokePos = "1";
};
closed = 1;
nodes = (
(245,0,l),
(245,30,l),
(60,30,l),
(60,640,l),
(30,640,l),
(30,0,l)
);
}
);
width = 260;
}
);
metricLeft = H;
metricRight = "=H/2";
unicode = 76;
},
{
glyphname = M;
kernLeft = H;
kernRight = H;
lastChange = "2025-05-31 11:36:32 +0000";
layers = (
{
anchors = (
{
name = bottom;
pos = (503,0);
},
{
name = top;
pos = (503,640);
}
);
layerId = "71E51144-4680-4E23-982C-DE3E5ABB4D1F";
shapes = (
{
attr = {
identifier = ID0x303e09a70;
};
closed = 1;
nodes = (
(770,420,l),
(770,0,l),
(940,0,l),
(940,640,l),
(770,640,l),
(503,391,l),
(236,640,l),
(66,640,l),
(66,0,l),
(236,0,l),
(236,420,l),
(503,153,l)
);
}
);
width = 1006;
},
{
anchors = (
{
name = bottom;
pos = (430,0);
},
{
name = top;
pos = (430,640);
}
);
layerId = "A1E4B453-6299-48B5-AC61-B31B01EA2EEB";
shapes = (
{
attr = {
identifier = ID0x303e09a70;
};
closed = 1;
nodes = (
(750,597,l),
(750,0,l),
(780,0,l),
(780,640,l),
(750,640,l),
(429,294,l),
(110,640,l),
(80,640,l),
(80,0,l),
(110,0,l),
(110,597,l),
(429,250,l)
);
}
);
width = 860;
},
{
anchors = (
{
name = bottom;
pos = (252,0);
},
{
name = top;
pos = (252,640);
}
);
layerId = "8544E31D-FA38-4D18-9DEA-5E3E35DDFD01";
shapes = (
{
attr = {
identifier = ID0x303e09a70;
};
closed = 1;
nodes = (
(302,270,l),
(302,0,l),
(452,0,l),
(452,640,l),
(302,640,l),
(252,351,l),
(202,640,l),
(52,640,l),
(52,0,l),
(202,0,l),
(202,270,l),
(252,146,l)
);
}
);
width = 504;
},
{
anchors = (
{
name = bottom;
pos = (190,0);
},
{
name = top;
pos = (190,640);
}
);
layerId = "3CC93672-F71B-4D5C-A968-72DE9C2CEAD3";
shapes = (
{
attr = {
identifier = ID0x303e09a70;
};
closed = 1;
nodes = (
(320,564,l),
(320,0,l),
(350,0,l),
(350,640,l),
(320,640,l),
(190,311,l),
(60,640,l),
(30,640,l),
(30,0,l),
(60,0,l),
(60,564,l),
(190,233,l)
);
}
);
width = 380;
}
);
metricLeft = H;
metricRight = H;
unicode = 77;
},
{
glyphname = N;
kernLeft = H;
kernRight = H;
lastChange = "2025-05-31 11:36:32 +0000";
layers = (
{
anchors = (
{
name = bottom;
pos = (466,0);
},
{
name = top;
pos = (466,640);
}
);
layerId = "71E51144-4680-4E23-982C-DE3E5ABB4D1F";
shapes = (
{
attr = {
identifier = ID0x303e09a70;
strokePos = 0;
};
closed = 1;
nodes = (
(866,0,l),
(866,640,l),
(696,640,l),
(696,210,l),
(236,640,l),
(66,640,l),
(66,0,l),
(236,0,l),
(236,426,l),
(696,0,l)
);
}
);
width = 932;
},
{
anchors = (
{
name = bottom;
pos = (400,0);
},
{
name = top;
pos = (400,640);
}
);
layerId = "A1E4B453-6299-48B5-AC61-B31B01EA2EEB";
shapes = (
{
attr = {
identifier = ID0x303e09a70;
};
closed = 1;
nodes = (
(720,0,l),
(720,640,l),
(690,640,l),
(690,43,l),
(110,640,l),
(80,640,l),
(80,0,l),
(110,0,l),
(110,597,l),
(690,0,l)
);
}
);
width = 800;
},
{
anchors = (
{
name = bottom;
pos = (243,0);
},
{
name = top;
pos = (243,640);
}
);
layerId = "8544E31D-FA38-4D18-9DEA-5E3E35DDFD01";
shapes = (
{
attr = {
identifier = ID0x303e09a70;
};
closed = 1;
nodes = (
(434,0,l),
(434,640,l),
(284,640,l),
(284,370,l),
(202,640,l),
(52,640,l),
(52,0,l),
(202,0,l),
(202,270,l),
(284,0,l)
);
}
);
width = 486;
},
{
anchors = (
{
name = bottom;
pos = (171,0);
},
{
name = top;
pos = (171,640);
}
);
layerId = "3CC93672-F71B-4D5C-A968-72DE9C2CEAD3";
shapes = (
{
attr = {
identifier = ID0x303e09a70;
strokePos = "0";
};
closed = 1;
nodes = (
(312,0,l),
(312,640,l),
(282,640,l),
(282,76,l),
(60,640,l),
(30,640,l),
(30,0,l),
(60,0,l),
(60,564,l),
(282,0,l)
);
}
);
width = 342;
}
);
metricLeft = H;
metricRight = H;
unicode = 78;
},
{
color = 3;
glyphname = O;
kernLeft = O;
kernRight = O;
lastChange = "2025-05-31 12:46:35 +0000";
layers = (
{
anchors = (
{
name = bottom;
pos = (506,0);
},
{
name = center;
pos = (506,320);
},
{
name = ogonek;
pos = (910,10);
},
{
name = top;
pos = (506,640);
},
{
name = topleft;
pos = (20,640);
},
{
name = topright;
pos = (991,640);
}
);
layerId = "71E51144-4680-4E23-982C-DE3E5ABB4D1F";
shapes = (
{
attr = {
strokePos = 1;
};
closed = 1;
nodes = (
(756,0,ls),
(956,0,o),
(956,200,qs),
(956,440,ls),
(956,640,o),
(756,640,qs),
(255,640,ls),
(55,640,o),
(55,440,qs),
(55,200,ls),
(55,0,o),
(255,0,qs)
);
},
{
attr = {
strokePos = 1;
};
closed = 1;
nodes = (
(225,160,o),
(225,200,qs),
(225,440,ls),
(225,480,o),
(255,480,qs),
(756,480,ls),
(786,480,o),
(786,440,qs),
(786,200,ls),
(786,160,o),
(756,160,qs),
(255,160,ls)
);
}
);
width = 1011;
},
{
anchors = (
{
name = bottom;
pos = (431,0);
},
{
name = center;
pos = (431,320);
},
{
name = ogonek;
pos = (775,10);
},
{
name = top;
pos = (431,640);
},
{
name = topleft;
pos = (20,640);
},
{
name = topright;
pos = (841,640);
}
);
layerId = "A1E4B453-6299-48B5-AC61-B31B01EA2EEB";
shapes = (
{
attr = {
strokePos = "1";
};
closed = 1;
nodes = (
(601,0,ls),
(791,0,o),
(791,190,qs),
(791,450,ls),
(791,640,o),
(601,640,qs),
(260,640,ls),
(70,640,o),
(70,450,qs),
(70,190,ls),
(70,0,o),
(260,0,qs)
);
},
{
attr = {
strokePos = "1";
};
closed = 1;
nodes = (
(100,30,o),
(100,190,qs),
(100,450,ls),
(100,610,o),
(260,610,qs),
(601,610,ls),
(761,610,o),
(761,450,qs),
(761,190,ls),
(761,30,o),
(601,30,qs),
(260,30,ls)
);
}
);
width = 861;
},
{
anchors = (
{
name = bottom;
pos = (251,0);
},
{
name = center;
pos = (251,320);
},
{
name = ogonek;
pos = (452,10);
},
{
name = top;
pos = (251,640);
},
{
name = topleft;
pos = (20,640);
},
{
name = topright;
pos = (482,640);
}
);
layerId = "8544E31D-FA38-4D18-9DEA-5E3E35DDFD01";
shapes = (
{
attr = {
strokePos = 1;
};
closed = 1;
nodes = (
(290,-8,ls),
(450,-8,o),
(450,152,qs),
(450,488,ls),
(450,648,o),
(290,648,qs),
(212,648,ls),
(52,648,o),
(52,488,qs),
(52,152,ls),
(52,-8,o),
(212,-8,qs)
);
},
{
attr = {
strokePos = 1;
};
closed = 1;
nodes = (
(202,132,o),
(202,142,qs),
(202,498,ls),
(202,508,o),
(212,508,qs),
(290,508,ls),
(300,508,o),
(300,498,qs),
(300,142,ls),
(300,132,o),
(290,132,qs),
(212,132,ls)
);
}
);
width = 502;
},
{
anchors = (
{
name = bottom;
pos = (202,0);
},
{
name = center;
pos = (202,320);
},
{
name = ogonek;
pos = (363,10);
},
{
name = top;
pos = (202,640);
},
{
name = topleft;
pos = (20,640);
},
{
name = topright;
pos = (383,640);
}
);
layerId = "3CC93672-F71B-4D5C-A968-72DE9C2CEAD3";
shapes = (
{
attr = {
strokePos = "1";
};
closed = 1;
nodes = (
(218,-8,ls),
(368,-8,o),
(368,142,qs),
(368,498,ls),
(368,648,o),
(218,648,qs),
(185,648,ls),
(35,648,o),
(35,498,qs),
(35,142,ls),
(35,-8,o),
(185,-8,qs)
);
},
{
attr = {
strokePos = "1";
};
closed = 1;
nodes = (
(65,22,o),
(65,142,qs),
(65,498,ls),
(65,618,o),
(185,618,qs),
(218,618,ls),
(338,618,o),
(338,498,qs),
(338,142,ls),
(338,22,o),
(218,22,qs),
(185,22,ls)
);
}
);
width = 403;
}
);
metricRight = "=|";
unicode = 79;
},
{
glyphname = P;
kernLeft = H;
kernRight = P;
lastChange = "2025-05-31 12:57:21 +0000";
layers = (
{
anchors = (
{
name = bottom;
pos = (467,0);
},
{
name = top;
pos = (467,640);
}
);
layerId = "71E51144-4680-4E23-982C-DE3E5ABB4D1F";
shapes = (
{
attr = {
strokePos = "1";
};
closed = 1;
nodes = (
(236,0,l),
(236,480,l),
(678,480,ls),
(708,480,o),
(708,440,qs),
(708,395,ls),
(708,355,o),
(678,355,qs),
(73,355,l),
(73,195,l),
(678,195,ls),
(878,195,o),
(878,395,qs),
(878,440,ls),
(878,640,o),
(678,640,qs),
(66,640,l),
(66,0,l)
);
}
);
width = 933;
},
{
anchors = (
{
name = bottom;
pos = (400,0);
},
{
name = top;
pos = (400,640);
}
);
layerId = "A1E4B453-6299-48B5-AC61-B31B01EA2EEB";
shapes = (
{
attr = {
strokePos = "1";
};
closed = 1;
nodes = (
(109,0,l),
(109,610,l),
(540,610,ls),
(701,610,o),
(701,450,qs),
(701,425,ls),
(701,265,o),
(540,265,qs),
(86,265,l),
(86,235,l),
(540,235,ls),
(730,235,o),
(730,425,qs),
(730,450,ls),
(730,640,o),
(540,640,qs),
(80,640,l),
(80,0,l)
);
}
);
width = 800;
},
{
anchors = (
{
name = bottom;
pos = (247,0);
},
{
name = top;
pos = (247,640);
}
);
layerId = "8544E31D-FA38-4D18-9DEA-5E3E35DDFD01";
shapes = (
{
attr = {
strokePos = "1";
};
closed = 1;
nodes = (
(202,0,l),
(202,500,l),
(282,500,ls),
(292,500,o),
(292,490,qs),
(292,345,ls),
(292,335,o),
(282,335,qs),
(57,335,l),
(57,195,l),
(282,195,ls),
(442,195,o),
(442,355,qs),
(442,480,ls),
(442,640,o),
(282,640,qs),
(52,640,l),
(52,0,l)
);
}
);
width = 494;
},
{
anchors = (
{
name = bottom;
pos = (177,0);
},
{
name = top;
pos = (177,640);
}
);
layerId = "3CC93672-F71B-4D5C-A968-72DE9C2CEAD3";
shapes = (
{
attr = {
strokePos = "1";
};
closed = 1;
nodes = (
(59,0,l),
(59,610,l),
(168,610,ls),
(289,610,o),
(289,490,qs),
(289,385,ls),
(289,265,o),
(168,265,qs),
(34,265,l),
(34,235,l),
(168,235,ls),
(318,235,o),
(318,385,qs),
(318,490,ls),
(318,640,o),
(168,640,qs),
(30,640,l),
(30,0,l)
);
}
);
width = 353;
}
);
metricLeft = H;
metricRight = O;
unicode = 80;
},
{
glyphname = Q;
kernLeft = O;
kernRight = O;
lastChange = "2025-05-31 11:36:32 +0000";
layers = (
{
anchors = (
{
name = bottom;
pos = (507,0);
},
{
name = top;
pos = (507,640);
}
);
layerId = "71E51144-4680-4E23-982C-DE3E5ABB4D1F";
shapes = (
{
closed = 1;
nodes = (
(959,-13,l),
(766,142,l),
(678,32,l),
(871,-123,l)
);
},
{
ref = O;
}
);
width = 1014;
},
{
anchors = (
{
name = bottom;
pos = (433,0);
},
{
name = top;
pos = (433,640);
}
);
layerId = "A1E4B453-6299-48B5-AC61-B31B01EA2EEB";
shapes = (
{
closed = 1;
nodes = (
(796,-65,l),
(450,279,l),
(428,257,l),
(774,-87,l)
);
},
{
ref = O;
}
);
width = 866;
},
{
anchors = (
{
name = bottom;
pos = (251,0);
},
{
name = top;
pos = (251,640);
}
);
layerId = "8544E31D-FA38-4D18-9DEA-5E3E35DDFD01";
shapes = (
{
closed = 1;
nodes = (
(428,-42,l),
(341,116,l),
(219,48,l),
(306,-110,l)
);
},
{
ref = O;
}
);
width = 502;
},
{
anchors = (
{
name = bottom;
pos = (202,0);
},
{
name = top;
pos = (202,640);
}
);
layerId = "3CC93672-F71B-4D5C-A968-72DE9C2CEAD3";
shapes = (
{
closed = 1;
nodes = (
(362,-70,l),
(209,274,l),
(181,262,l),
(334,-82,l)
);
},
{
ref = O;
}
);
width = 403;
}
);
metricLeft = O;
metricRight = O;
unicode = 81;
},
{
glyphname = R;
kernLeft = H;
kernRight = R;
lastChange = "2025-05-31 11:36:32 +0000";
layers = (
{
anchors = (
{
name = bottom;
pos = (468,0);
},
{
name = top;
pos = (468,640);
}
);
layerId = "71E51144-4680-4E23-982C-DE3E5ABB4D1F";
shapes = (
{
closed = 1;
nodes = (
(880,0,l),
(655,283,l),
(463,283,l),
(688,0,l)
);
},
{
ref = P;
}
);
width = 935;
},
{
anchors = (
{
name = bottom;
pos = (400,0);
},
{
name = top;
pos = (400,640);
}
);
layerId = "A1E4B453-6299-48B5-AC61-B31B01EA2EEB";
shapes = (
{
closed = 1;
nodes = (
(698,0,l),
(530,262,l),
(494,262,l),
(662,0,l)
);
},
{
ref = P;
}
);
width = 800;
},
{
anchors = (
{
name = bottom;
pos = (247,0);
},
{
name = top;
pos = (247,640);
}
);
layerId = "8544E31D-FA38-4D18-9DEA-5E3E35DDFD01";
shapes = (
{
closed = 1;
nodes = (
(442,0,l),
(390,283,l),
(258,283,l),
(300,0,l)
);
},
{
ref = P;
}
);
width = 494;
},
{
anchors = (
{
name = bottom;
pos = (180,0);
},
{
name = top;
pos = (180,640);
}
);
layerId = "3CC93672-F71B-4D5C-A968-72DE9C2CEAD3";
shapes = (
{
closed = 1;
nodes = (
(324,0,l),
(257,262,l),
(227,262,l),
(294,0,l)
);
},
{
ref = P;
}
);
width = 359;
}
);
metricLeft = H;
metricRight = O;
unicode = 82;
},
{
glyphname = S;
kernLeft = S;
kernRight = S;
lastChange = "2025-05-31 13:17:41 +0000";
layers = (
{
anchors = (
{
name = bottom;
pos = (435,0);
},
{
name = top;
pos = (435,640);
}
);
layerId = "71E51144-4680-4E23-982C-DE3E5ABB4D1F";
shapes = (
{
attr = {
identifier = ID0x3050a7720;
strokePos = "1";
};
closed = 1;
nodes = (
(641,0,ls),
(841,0,o),
(841,190,qs),
(841,210,ls),
(841,400,o),
(641,400,qs),
(228,400,ls),
(198,400,o),
(198,430,qs),
(198,450,ls),
(198,480,o),
(228,480,qs),
(791,480,l),
(791,640,l),
(228,640,ls),
(28,640,o),
(28,450,qs),
(28,430,ls),
(28,240,o),
(228,240,qs),
(641,240,ls),
(671,240,o),
(671,210,qs),
(671,190,ls),
(671,160,o),
(641,160,qs),
(53,160,l),
(53,0,l)
);
}
);
width = 869;
},
{
anchors = (
{
name = bottom;
pos = (361,0);
},
{
name = top;
pos = (361,640);
}
);
layerId = "A1E4B453-6299-48B5-AC61-B31B01EA2EEB";
shapes = (
{
attr = {
identifier = ID0x3050a7720;
strokePos = "1";
};
closed = 1;
nodes = (
(496,0,ls),
(686,0,o),
(686,162,qs),
(686,173,ls),
(686,335,o),
(496,335,qs),
(225,335,ls),
(65,335,o),
(65,467,qs),
(65,478,ls),
(65,610,o),
(225,610,qs),
(646,610,l),
(646,640,l),
(225,640,ls),
(35,640,o),
(35,478,qs),
(35,467,ls),
(35,305,o),
(225,305,qs),
(496,305,ls),
(656,305,o),
(656,173,qs),
(656,162,ls),
(656,30,o),
(496,30,qs),
(55,30,l),
(55,0,l)
);
}
);
width = 721;
},
{
anchors = (
{
name = bottom;
pos = (224,0);
},
{
name = top;
pos = (224,640);
}
);
layerId = "8544E31D-FA38-4D18-9DEA-5E3E35DDFD01";
shapes = (
{
attr = {
identifier = ID0x3050a7720;
strokePos = "1";
};
closed = 1;
nodes = (
(282,0,ls),
(422,0,o),
(422,140,qs),
(422,250,ls),
(422,390,o),
(282,390,qs),
(176,390,ls),
(176,390,o),
(176,390,qs),
(176,500,ls),
(176,500,o),
(176,500,qs),
(392,500,l),
(392,640,l),
(166,640,ls),
(26,640,o),
(26,490,qs),
(26,400,ls),
(26,250,o),
(166,250,qs),
(272,250,ls),
(272,250,o),
(272,250,qs),
(272,140,ls),
(272,140,o),
(272,140,qs),
(41,140,l),
(41,0,l)
);
}
);
width = 448;
},
{
anchors = (
{
name = bottom;
pos = (195,0);
},
{
name = top;
pos = (195,640);
}
);
layerId = "3CC93672-F71B-4D5C-A968-72DE9C2CEAD3";
shapes = (
{
attr = {
identifier = ID0x3050a7720;
strokePos = "1";
};
closed = 1;
nodes = (
(221,0,ls),
(371,0,o),
(371,150,qs),
(371,185,ls),
(371,335,o),
(221,335,qs),
(168,335,ls),
(48,335,o),
(48,455,qs),
(48,490,ls),
(48,610,o),
(168,610,qs),
(345,610,l),
(345,640,l),
(168,640,ls),
(18,640,o),
(18,490,qs),
(18,455,ls),
(18,305,o),
(168,305,qs),
(221,305,ls),
(341,305,o),
(341,185,qs),
(341,150,ls),
(341,30,o),
(221,30,qs),
(31,30,l),
(31,0,l)
);
}
);
width = 389;
}
);
metricLeft = "=O/2";
metricRight = "=|";
unicode = 83;
},
{
glyphname = T;
kernLeft = T;
kernRight = T;
lastChange = "2025-05-31 11:36:32 +0000";
layers = (
{
anchors = (
{
name = bottom;
pos = (439,0);
},
{
name = center;
pos = (439,320);
},
{
name = top;
pos = (439,640);
}
);
layerId = "71E51144-4680-4E23-982C-DE3E5ABB4D1F";
shapes = (
{
closed = 1;
nodes = (
(524,0,l),
(524,640,l),
(354,640,l),
(354,0,l)
);
},
{
attr = {
strokePos = "0";
};
closed = 1;
nodes = (
(845,480,l),
(845,640,l),
(33,640,l),
(33,480,l)
);
}
);
width = 878;
},
{
anchors = (
{
name = bottom;
pos = (350,0);
},
{
name = center;
pos = (350,320);
},
{
name = top;
pos = (350,640);
}
);
layerId = "A1E4B453-6299-48B5-AC61-B31B01EA2EEB";
shapes = (
{
closed = 1;
nodes = (
(364,0,l),
(364,640,l),
(334,640,l),
(334,0,l)
);
},
{
attr = {
strokePos = "0";
};
closed = 1;
nodes = (
(660,610,l),
(660,640,l),
(40,640,l),
(40,610,l)
);
}
);
width = 700;
},
{
anchors = (
{
name = bottom;
pos = (208,0);
},
{
name = center;
pos = (208,320);
},
{
name = top;
pos = (208,640);
}
);
layerId = "8544E31D-FA38-4D18-9DEA-5E3E35DDFD01";
shapes = (
{
closed = 1;
nodes = (
(283,0,l),
(283,640,l),
(133,640,l),
(133,0,l)
);
},
{
attr = {
strokePos = "0";
};
closed = 1;
nodes = (
(390,500,l),
(390,640,l),
(26,640,l),
(26,500,l)
);
}
);
width = 416;
},
{
anchors = (
{
name = bottom;
pos = (181,0);
},
{
name = center;
pos = (181,320);
},
{
name = top;
pos = (181,640);
}
);
layerId = "3CC93672-F71B-4D5C-A968-72DE9C2CEAD3";
shapes = (
{
closed = 1;
nodes = (
(196,0,l),
(196,640,l),
(166,640,l),
(166,0,l)
);
},
{
attr = {
strokePos = "0";
};
closed = 1;
nodes = (
(347,610,l),
(347,640,l),
(15,640,l),
(15,610,l)
);
}
);
width = 362;
}
);
metricLeft = "=H/2";
metricRight = "=|";
unicode = 84;
},
{
glyphname = U;
kernLeft = H;
kernRight = H;
lastChange = "2025-05-31 12:59:15 +0000";
layers = (
{
anchors = (
{
name = bottom;
pos = (517,0);
},
{
name = ogonek;
pos = (930,10);
},
{
name = top;
pos = (517,640);
},
{
name = topright;
pos = (1013,640);
}
);
layerId = "71E51144-4680-4E23-982C-DE3E5ABB4D1F";
shapes = (
{
attr = {
identifier = ID0x322a633e0;
strokePos = 1;
};
closed = 1;
nodes = (
(767,0,ls),
(967,0,o),
(967,200,qs),
(967,640,l),
(797,640,l),
(797,200,ls),
(797,160,o),
(767,160,qs),
(266,160,ls),
(236,160,o),
(236,200,qs),
(236,640,l),
(66,640,l),
(66,200,ls),
(66,0,o),
(266,0,qs)
);
}
);
width = 1033;
},
{
anchors = (
{
name = bottom;
pos = (441,0);
},
{
name = ogonek;
pos = (793,10);
},
{
name = top;
pos = (441,640);
},
{
name = topright;
pos = (861,640);
}
);
layerId = "A1E4B453-6299-48B5-AC61-B31B01EA2EEB";
shapes = (
{
attr = {
identifier = ID0x322a633e0;
strokePos = "1";
};
closed = 1;
nodes = (
(611,0,ls),
(801,0,o),
(801,190,qs),
(801,640,l),
(771,640,l),
(771,190,ls),
(771,30,o),
(611,30,qs),
(270,30,ls),
(110,30,o),
(110,190,qs),
(110,640,l),
(80,640,l),
(80,190,ls),
(80,0,o),
(270,0,qs)
);
}
);
width = 881;
},
{
anchors = (
{
name = bottom;
pos = (236,0);
},
{
name = ogonek;
pos = (424,10);
},
{
name = top;
pos = (236,640);
},
{
name = topright;
pos = (451,640);
}
);
layerId = "8544E31D-FA38-4D18-9DEA-5E3E35DDFD01";
shapes = (
{
attr = {
identifier = ID0x322a633e0;
strokePos = 1;
};
closed = 1;
nodes = (
(259,0,ls),
(419,0,o),
(419,160,qs),
(419,640,l),
(269,640,l),
(269,150,ls),
(269,140,o),
(259,140,qs),
(212,140,ls),
(202,140,o),
(202,150,qs),
(202,640,l),
(52,640,l),
(52,160,ls),
(52,0,o),
(212,0,qs)
);
}
);
width = 471;
},
{
anchors = (
{
name = bottom;
pos = (197,0);
},
{
name = ogonek;
pos = (354,10);
},
{
name = top;
pos = (197,640);
},
{
name = topright;
pos = (373,640);
}
);
layerId = "3CC93672-F71B-4D5C-A968-72DE9C2CEAD3";
shapes = (
{
attr = {
identifier = ID0x322a633e0;
strokePos = "1";
};
closed = 1;
nodes = (
(213,0,ls),
(363,0,o),
(363,150,qs),
(363,640,l),
(333,640,l),
(333,150,ls),
(333,30,o),
(213,30,qs),
(180,30,ls),
(60,30,o),
(60,150,qs),
(60,640,l),
(30,640,l),
(30,150,ls),
(30,0,o),
(180,0,qs)
);
}
);
width = 393;
}
);
metricLeft = H;
metricRight = H;
unicode = 85;
},
{
glyphname = V;
kernLeft = V;
kernRight = V;
lastChange = "2025-05-31 11:36:32 +0000";
layers = (
{
anchors = (
{
name = bottom;
pos = (499,0);
},
{
name = top;
pos = (499,640);
}
);
layerId = "71E51144-4680-4E23-982C-DE3E5ABB4D1F";
shapes = (
{
attr = {
identifier = ID0x303e09a70;
};
closed = 1;
nodes = (
(614,0,l),
(988,640,l),
(802,640,l),
(522,160,l),
(476,160,l),
(196,640,l),
(10,640,l),
(384,0,l)
);
}
);
width = 998;
},
{
anchors = (
{
name = bottom;
pos = (394,0);
},
{
name = top;
pos = (394,640);
}
);
layerId = "A1E4B453-6299-48B5-AC61-B31B01EA2EEB";
shapes = (
{
attr = {
identifier = ID0x303e09a70;
};
closed = 1;
nodes = (
(415,0,l),
(768,640,l),
(734,640,l),
(397,30,l),
(391,30,l),
(54,640,l),
(20,640,l),
(373,0,l)
);
}
);
width = 788;
},
{
anchors = (
{
name = bottom;
pos = (227,0);
},
{
name = top;
pos = (227,640);
}
);
layerId = "8544E31D-FA38-4D18-9DEA-5E3E35DDFD01";
shapes = (
{
attr = {
identifier = ID0x303e09a70;
};
closed = 1;
nodes = (
(332,0,l),
(434,640,l),
(282,640,l),
(204,150,l),
(250,150,l),
(172,640,l),
(20,640,l),
(122,0,l)
);
}
);
width = 454;
},
{
anchors = (
{
name = bottom;
pos = (190,0);
},
{
name = top;
pos = (190,640);
}
);
layerId = "3CC93672-F71B-4D5C-A968-72DE9C2CEAD3";
shapes = (
{
attr = {
identifier = ID0x303e09a70;
};
closed = 1;
nodes = (
(210,0,l),
(370,640,l),
(340,640,l),
(186,30,l),
(194,30,l),
(40,640,l),
(10,640,l),
(170,0,l)
);
}
);
width = 380;
}
);
metricLeft = X;
metricRight = "=|";
unicode = 86;
},
{
glyphname = W;
kernLeft = W;
kernRight = W;
lastChange = "2025-05-31 11:36:32 +0000";
layers = (
{
anchors = (
{
name = bottom;
pos = (588,0);
},
{
name = top;
pos = (588,640);
}
);
background = {
shapes = (
{
closed = 1;
nodes = (
(181,640,l),
(344,152,l),
(507,640,l),
(668,640,l),
(832,153,l),
(995,640,l),
(1165,640,l),
(931,0,l),
(732,0,l),
(586,415,l),
(445,0,l),
(245,0,l),
(10,640,l)
);
}
);
};
layerId = "71E51144-4680-4E23-982C-DE3E5ABB4D1F";
shapes = (
{
attr = {
identifier = ID0x303e09a70;
};
closed = 1;
nodes = (
(443,0,l),
(587,413,l),
(731,0,l),
(931,0,l),
(1165,640,l),
(995,640,l),
(831,153,l),
(666,640,l),
(508,640,l),
(344,156,l),
(180,640,l),
(10,640,l),
(245,0,l)
);
}
);
width = 1175;
},
{
anchors = (
{
name = bottom;
pos = (483,0);
},
{
name = top;
pos = (483,640);
}
);
layerId = "A1E4B453-6299-48B5-AC61-B31B01EA2EEB";
shapes = (
{
attr = {
identifier = ID0x303e09a70;
};
closed = 1;
nodes = (
(282,0,l),
(483,577,l),
(684,0,l),
(725,0,l),
(946,640,l),
(914,640,l),
(704,34,l),
(493,640,l),
(473,640,l),
(262,36,l),
(52,640,l),
(20,640,l),
(242,0,l)
);
}
);
width = 966;
},
{
anchors = (
{
name = bottom;
pos = (300,0);
},
{
name = top;
pos = (300,640);
}
);
background = {
shapes = (
{
closed = 1;
nodes = (
(170,640,l),
(200,142,l),
(230,640,l),
(369,640,l),
(399,143,l),
(429,640,l),
(579,640,l),
(496,0,l),
(326,0,l),
(299,192,l),
(272,0,l),
(102,0,l),
(20,640,l)
);
}
);
};
layerId = "8544E31D-FA38-4D18-9DEA-5E3E35DDFD01";
shapes = (
{
closed = 1;
nodes = (
(272,0,l),
(299,192,l),
(326,0,l),
(496,0,l),
(579,640,l),
(429,640,l),
(399,143,l),
(369,640,l),
(230,640,l),
(200,142,l),
(170,640,l),
(20,640,l),
(102,0,l)
);
}
);
width = 599;
},
{
anchors = (
{
name = bottom;
pos = (223,0);
},
{
name = top;
pos = (223,640);
}
);
layerId = "3CC93672-F71B-4D5C-A968-72DE9C2CEAD3";
shapes = (
{
attr = {
identifier = ID0x303e09a70;
};
closed = 1;
nodes = (
(149,0,l),
(223,520,l),
(296,0,l),
(338,0,l),
(435,640,l),
(405,640,l),
(317,64,l),
(236,640,l),
(210,640,l),
(128,67,l),
(40,640,l),
(10,640,l),
(108,0,l)
);
}
);
width = 445;
}
);
metricLeft = X;
metricRight = "=|";
unicode = 87;
},
{
color = 3;
glyphname = X;
kernLeft = X;
kernRight = X;
lastChange = "2025-05-31 11:36:32 +0000";
layers = (
{
anchors = (
{
name = bottom;
pos = (442,0);
},
{
name = top;
pos = (442,640);
}
);
layerId = "71E51144-4680-4E23-982C-DE3E5ABB4D1F";
shapes = (
{
closed = 1;
nodes = (
(873,0,l),
(635,320,l),
(873,640,l),
(687,640,l),
(449,320,l),
(687,0,l)
);
},
{
closed = 1;
nodes = (
(196,0,l),
(434,320,l),
(196,640,l),
(10,640,l),
(248,320,l),
(10,0,l)
);
},
{
closed = 1;
nodes = (
(537,240,l),
(537,400,l),
(346,400,l),
(346,240,l)
);
}
);
width = 883;
},
{
anchors = (
{
name = bottom;
pos = (378,0);
},
{
name = top;
pos = (378,640);
}
);
layerId = "A1E4B453-6299-48B5-AC61-B31B01EA2EEB";
shapes = (
{
closed = 1;
nodes = (
(735,0,l),
(545,320,l),
(735,640,l),
(701,640,l),
(511,320,l),
(701,0,l)
);
},
{
closed = 1;
nodes = (
(54,0,l),
(244,320,l),
(54,640,l),
(20,640,l),
(210,320,l),
(20,0,l)
);
},
{
closed = 1;
nodes = (
(521,305,l),
(521,335,l),
(234,335,l),
(234,305,l)
);
}
);
width = 755;
},
{
anchors = (
{
name = bottom;
pos = (247,0);
},
{
name = top;
pos = (247,640);
}
);
layerId = "8544E31D-FA38-4D18-9DEA-5E3E35DDFD01";
shapes = (
{
closed = 1;
nodes = (
(473,0,l),
(356,320,l),
(473,640,l),
(313,640,l),
(196,320,l),
(313,0,l)
);
},
{
closed = 1;
nodes = (
(180,0,l),
(297,320,l),
(180,640,l),
(20,640,l),
(137,320,l),
(20,0,l)
);
},
{
closed = 1;
nodes = (
(273,250,l),
(273,390,l),
(220,390,l),
(220,250,l)
);
}
);
width = 493;
},
{
anchors = (
{
name = bottom;
pos = (196,0);
},
{
name = top;
pos = (196,640);
}
);
layerId = "3CC93672-F71B-4D5C-A968-72DE9C2CEAD3";
shapes = (
{
closed = 1;
nodes = (
(382,0,l),
(260,320,l),
(382,640,l),
(350,640,l),
(228,320,l),
(350,0,l)
);
},
{
closed = 1;
nodes = (
(42,0,l),
(163,320,l),
(42,640,l),
(10,640,l),
(131,320,l),
(10,0,l)
);
},
{
closed = 1;
nodes = (
(239,305,l),
(239,335,l),
(152,335,l),
(152,305,l)
);
}
);
width = 392;
}
);
metricRight = "=|";
unicode = 88;
},
{
glyphname = Y;
kernLeft = Y;
kernRight = Y;
lastChange = "2025-05-31 11:36:32 +0000";
layers = (
{
anchors = (
{
name = bottom;
pos = (465,0);
},
{
name = top;
pos = (465,640);
},
{
name = topleft;
pos = (20,640);
}
);
layerId = "71E51144-4680-4E23-982C-DE3E5ABB4D1F";
shapes = (
{
attr = {
identifier = ID0x303e09a70;
};
closed = 1;
nodes = (
(920,640,l),
(708,640,l),
(465,360,l),
(222,640,l),
(10,640,l),
(465,116,l)
);
},
{
closed = 1;
nodes = (
(550,0,l),
(550,238,l),
(380,238,l),
(380,0,l)
);
}
);
width = 930;
},
{
anchors = (
{
name = bottom;
pos = (360,0);
},
{
name = top;
pos = (360,640);
},
{
name = topleft;
pos = (20,640);
}
);
layerId = "A1E4B453-6299-48B5-AC61-B31B01EA2EEB";
shapes = (
{
attr = {
identifier = ID0x303e09a70;
};
closed = 1;
nodes = (
(700,640,l),
(660,640,l),
(360,288,l),
(60,640,l),
(20,640,l),
(360,242,l)
);
},
{
closed = 1;
nodes = (
(375,0,l),
(375,265,l),
(345,265,l),
(345,0,l)
);
}
);
width = 720;
},
{
anchors = (
{
name = bottom;
pos = (223,0);
},
{
name = top;
pos = (223,640);
},
{
name = topleft;
pos = (20,640);
}
);
layerId = "8544E31D-FA38-4D18-9DEA-5E3E35DDFD01";
shapes = (
{
attr = {
identifier = ID0x303e09a70;
};
closed = 1;
nodes = (
(426,640,l),
(268,640,l),
(222,375,l),
(178,640,l),
(20,640,l),
(218,31,l)
);
},
{
closed = 1;
nodes = (
(295,0,l),
(295,268,l),
(145,268,l),
(145,0,l)
);
}
);
width = 446;
},
{
anchors = (
{
name = bottom;
pos = (200,0);
},
{
name = top;
pos = (200,640);
},
{
name = topleft;
pos = (20,640);
}
);
layerId = "3CC93672-F71B-4D5C-A968-72DE9C2CEAD3";
shapes = (
{
attr = {
identifier = ID0x303e09a70;
};
closed = 1;
nodes = (
(390,640,l),
(356,640,l),
(200,301,l),
(44,640,l),
(10,640,l),
(200,229,l)
);
},
{
closed = 1;
nodes = (
(215,0,l),
(215,265,l),
(185,265,l),
(185,0,l)
);
}
);
width = 400;
}
);
metricLeft = X;
metricRight = "=|";
unicode = 89;
},
{
glyphname = Z;
kernLeft = Z;
kernRight = Z;
lastChange = "2025-05-31 11:36:32 +0000";
layers = (
{
anchors = (
{
name = bottom;
pos = (439,0);
},
{
name = center;
pos = (439,320);
},
{
name = top;
pos = (439,640);
}
);
layerId = "71E51144-4680-4E23-982C-DE3E5ABB4D1F";
shapes = (
{
closed = 1;
nodes = (
(845,0,l),
(845,160,l),
(213,160,l),
(213,85,l),
(825,464,l),
(825,639,l),
(33,639,l),
(33,479,l),
(665,479,l),
(665,554,l),
(53,175,l),
(53,0,l)
);
}
);
width = 878;
},
{
anchors = (
{
name = bottom;
pos = (380,0);
},
{
name = center;
pos = (380,320);
},
{
name = top;
pos = (380,640);
}
);
layerId = "A1E4B453-6299-48B5-AC61-B31B01EA2EEB";
shapes = (
{
closed = 1;
nodes = (
(720,0,l),
(720,30,l),
(70,30,l),
(70,71,l),
(720,553,l),
(720,640,l),
(40,640,l),
(40,610,l),
(690,610,l),
(690,569,l),
(40,87,l),
(40,0,l)
);
}
);
width = 760;
},
{
anchors = (
{
name = bottom;
pos = (209,0);
},
{
name = center;
pos = (209,320);
},
{
name = top;
pos = (209,640);
}
);
layerId = "8544E31D-FA38-4D18-9DEA-5E3E35DDFD01";
shapes = (
{
closed = 1;
nodes = (
(391,0,l),
(391,140,l),
(156,140,l),
(156,102,l),
(392,497,l),
(392,640,l),
(27,640,l),
(27,500,l),
(262,500,l),
(262,539,l),
(26,144,l),
(26,0,l)
);
}
);
width = 418;
},
{
anchors = (
{
name = bottom;
pos = (171,0);
},
{
name = center;
pos = (171,320);
},
{
name = top;
pos = (171,640);
}
);
layerId = "3CC93672-F71B-4D5C-A968-72DE9C2CEAD3";
shapes = (
{
closed = 1;
nodes = (
(319,0,l),
(319,30,l),
(45,30,l),
(45,75,l),
(327,557,l),
(327,640,l),
(23,640,l),
(23,610,l),
(297,610,l),
(297,565,l),
(15,83,l),
(15,0,l)
);
}
);
width = 342;
}
);
metricLeft = "=H/2";
metricRight = "=|";
unicode = 90;
},
{
glyphname = a;
kernLeft = a;
kernRight = a;
lastChange = "2025-05-31 12:59:51 +0000";
layers = (
{
anchors = (
{
name = bottom;
pos = (372,0);
},
{
name = ogonek;
pos = (669,10);
},
{
name = top;
pos = (372,440);
}
);
layerId = "71E51144-4680-4E23-982C-DE3E5ABB4D1F";
shapes = (
{
attr = {
strokePos = "1";
};
closed = 1;
nodes = (
(695,0,l),
(695,260,ls),
(695,440,o),
(515,440,qs),
(77,440,l),
(77,300,l),
(515,300,ls),
(535,300,o),
(535,260,qs),
(535,140,l),
(224,140,ls),
(204,140,o),
(204,180,qs),
(204,223,l),
(44,223,l),
(44,180,ls),
(44,0,o),
(224,0,qs)
);
},
{
closed = 1;
nodes = (
(685,187,l),
(685,277,l),
(44,255,l),
(44,165,l)
);
}
);
width = 743;
},
{
anchors = (
{
name = bottom;
pos = (370,0);
},
{
name = ogonek;
pos = (665,10);
},
{
name = top;
pos = (370,430);
}
);
layerId = "A1E4B453-6299-48B5-AC61-B31B01EA2EEB";
shapes = (
{
attr = {
strokePos = "1";
};
closed = 1;
nodes = (
(626,0,l),
(626,290,ls),
(626,440,o),
(476,440,qs),
(132,440,l),
(132,410,l),
(476,410,ls),
(596,410,o),
(596,290,qs),
(596,30,l),
(255,30,ls),
(135,30,o),
(135,150,qs),
(135,223,l),
(105,223,l),
(105,150,ls),
(105,0,o),
(255,0,qs)
);
},
{
closed = 1;
nodes = (
(618,217,l),
(618,247,l),
(105,225,l),
(105,195,l)
);
}
);
width = 739;
},
{
anchors = (
{
name = bottom;
pos = (206,0);
},
{
name = ogonek;
pos = (370,10);
},
{
name = top;
pos = (206,440);
}
);
layerId = "8544E31D-FA38-4D18-9DEA-5E3E35DDFD01";
shapes = (
{
attr = {
strokePos = "1";
};
closed = 1;
nodes = (
(366,-8,l),
(366,290,ls),
(366,440,o),
(216,440,qs),
(66,440,l),
(66,300,l),
(216,300,ls),
(226,300,o),
(226,290,qs),
(226,132,l),
(190,132,ls),
(180,132,o),
(180,142,qs),
(180,219,l),
(40,219,l),
(40,142,ls),
(40,-8,o),
(190,-8,qs)
);
},
{
closed = 1;
nodes = (
(361,188,l),
(361,268,l),
(40,246,l),
(40,166,l)
);
}
);
width = 411;
},
{
anchors = (
{
name = bottom;
pos = (163,0);
},
{
name = ogonek;
pos = (293,10);
},
{
name = top;
pos = (163,430);
}
);
layerId = "3CC93672-F71B-4D5C-A968-72DE9C2CEAD3";
shapes = (
{
attr = {
strokePos = "1";
};
closed = 1;
nodes = (
(296,-8,l),
(296,310,ls),
(296,440,o),
(166,440,qs),
(56,440,l),
(56,410,l),
(166,410,ls),
(266,410,o),
(266,310,qs),
(266,22,l),
(165,22,ls),
(65,22,o),
(65,122,qs),
(65,219,l),
(35,219,l),
(35,122,ls),
(35,-8,o),
(165,-8,qs)
);
},
{
closed = 1;
nodes = (
(292,213,l),
(292,243,l),
(35,221,l),
(35,191,l)
);
}
);
width = 326;
}
);
metricLeft = o;
metricRight = "=|n";
unicode = 97;
},
{
glyphname = c;
kernLeft = o;
kernRight = o;
lastChange = "2025-05-31 13:00:38 +0000";
layers = (
{
anchors = (
{
name = bottom;
pos = (334,0);
},
{
name = top;
pos = (334,440);
}
);
layerId = "71E51144-4680-4E23-982C-DE3E5ABB4D1F";
shapes = (
{
attr = {
strokePos = "1";
};
closed = 1;
nodes = (
(619,0,l),
(619,150,l),
(224,150,ls),
(204,150,o),
(204,180,qs),
(204,260,ls),
(204,290,o),
(224,290,qs),
(619,290,l),
(619,440,l),
(224,440,ls),
(44,440,o),
(44,260,qs),
(44,180,ls),
(44,0,o),
(224,0,qs)
);
}
);
width = 667;
},
{
anchors = (
{
name = bottom;
pos = (339,0);
},
{
name = top;
pos = (339,430);
}
);
layerId = "A1E4B453-6299-48B5-AC61-B31B01EA2EEB";
shapes = (
{
attr = {
strokePos = "1";
};
closed = 1;
nodes = (
(565,0,l),
(565,30,l),
(285,30,ls),
(135,30,o),
(135,180,qs),
(135,260,ls),
(135,410,o),
(285,410,qs),
(565,410,l),
(565,440,l),
(285,440,ls),
(105,440,o),
(105,260,qs),
(105,180,ls),
(105,0,o),
(285,0,qs)
);
}
);
width = 678;
},
{
anchors = (
{
name = bottom;
pos = (187,0);
},
{
name = top;
pos = (187,440);
}
);
layerId = "8544E31D-FA38-4D18-9DEA-5E3E35DDFD01";
shapes = (
{
attr = {
strokePos = "1";
};
closed = 1;
nodes = (
(328,0,l),
(328,130,l),
(190,130,ls),
(180,130,o),
(180,140,qs),
(180,300,ls),
(180,310,o),
(190,310,qs),
(328,310,l),
(328,440,l),
(190,440,ls),
(40,440,o),
(40,290,qs),
(40,150,ls),
(40,0,o),
(190,0,qs)
);
}
);
width = 373;
},
{
anchors = (
{
name = bottom;
pos = (153,0);
},
{
name = top;
pos = (153,430);
}
);
layerId = "3CC93672-F71B-4D5C-A968-72DE9C2CEAD3";
shapes = (
{
attr = {
strokePos = "1";
};
closed = 1;
nodes = (
(275,0,l),
(275,30,l),
(165,30,ls),
(65,30,o),
(65,130,qs),
(65,310,ls),
(65,410,o),
(165,410,qs),
(275,410,l),
(275,440,l),
(165,440,ls),
(35,440,o),
(35,310,qs),
(35,130,ls),
(35,0,o),
(165,0,qs)
);
}
);
width = 305;
}
);
metricLeft = o;
metricRight = n;
unicode = 99;
},
{
glyphname = d;
kernLeft = o;
kernRight = l;
lastChange = "2025-05-31 13:01:06 +0000";
layers = (
{
anchors = (
{
name = bottom;
pos = (359,0);
},
{
name = center;
pos = (538,792);
},
{
name = top;
pos = (359,440);
},
{
name = topright;
pos = (697,990);
}
);
layerId = "71E51144-4680-4E23-982C-DE3E5ABB4D1F";
shapes = (
{
attr = {
strokePos = "1";
};
closed = 1;
nodes = (
(669,0,l),
(669,640,l),
(509,640,l),
(509,150,l),
(224,150,ls),
(204,150,o),
(204,180,qs),
(204,260,ls),
(204,290,o),
(224,290,qs),
(656,290,l),
(656,440,l),
(224,440,ls),
(44,440,o),
(44,260,qs),
(44,180,ls),
(44,0,o),
(224,0,qs)
);
}
);
width = 717;
},
{
anchors = (
{
name = bottom;
pos = (359,0);
},
{
name = center;
pos = (539,792);
},
{
name = top;
pos = (359,430);
},
{
name = topright;
pos = (698,990);
}
);
layerId = "A1E4B453-6299-48B5-AC61-B31B01EA2EEB";
shapes = (
{
attr = {
strokePos = "1";
};
closed = 1;
nodes = (
(605,0,l),
(605,640,l),
(575,640,l),
(575,30,l),
(285,30,ls),
(135,30,o),
(135,180,qs),
(135,260,ls),
(135,410,o),
(285,410,qs),
(594,410,l),
(594,440,l),
(285,440,ls),
(105,440,o),
(105,260,qs),
(105,180,ls),
(105,0,o),
(285,0,qs)
);
}
);
width = 718;
},
{
anchors = (
{
name = bottom;
pos = (203,0);
},
{
name = center;
pos = (304,792);
},
{
name = top;
pos = (203,440);
},
{
name = topright;
pos = (385,990);
}
);
layerId = "8544E31D-FA38-4D18-9DEA-5E3E35DDFD01";
shapes = (
{
attr = {
strokePos = "1";
};
closed = 1;
nodes = (
(360,0,l),
(360,640,l),
(220,640,l),
(220,130,l),
(190,130,ls),
(180,130,o),
(180,140,qs),
(180,300,ls),
(180,310,o),
(190,310,qs),
(352,310,l),
(352,440,l),
(190,440,ls),
(40,440,o),
(40,290,qs),
(40,150,ls),
(40,0,o),
(190,0,qs)
);
}
);
width = 405;
},
{
anchors = (
{
name = bottom;
pos = (161,0);
},
{
name = center;
pos = (241,792);
},
{
name = top;
pos = (161,430);
},
{
name = topright;
pos = (301,990);
}
);
layerId = "3CC93672-F71B-4D5C-A968-72DE9C2CEAD3";
shapes = (
{
attr = {
strokePos = "1";
};
closed = 1;
nodes = (
(291,0,l),
(291,640,l),
(261,640,l),
(261,30,l),
(165,30,ls),
(65,30,o),
(65,130,qs),
(65,310,ls),
(65,410,o),
(165,410,qs),
(285,410,l),
(285,440,l),
(165,440,ls),
(35,440,o),
(35,310,qs),
(35,130,ls),
(35,0,o),
(165,0,qs)
);
}
);
width = 321;
}
);
metricLeft = o;
metricRight = "=|n";
unicode = 100;
},
{
glyphname = e;
kernLeft = o;
kernRight = o;
lastChange = "2025-05-31 13:03:36 +0000";
layers = (
{
anchors = (
{
name = bottom;
pos = (357,0);
},
{
name = ogonek;
pos = (642,10);
},
{
name = top;
pos = (357,440);
}
);
layerId = "71E51144-4680-4E23-982C-DE3E5ABB4D1F";
shapes = (
{
attr = {
strokePos = "1";
};
closed = 1;
nodes = (
(656,0,l),
(656,140,l),
(224,140,ls),
(204,140,o),
(204,180,qs),
(204,260,ls),
(204,300,o),
(224,300,qs),
(489,300,ls),
(509,300,o),
(509,260,qs),
(509,213,l),
(669,213,l),
(669,260,ls),
(669,440,o),
(489,440,qs),
(224,440,ls),
(44,440,o),
(44,260,qs),
(44,180,ls),
(44,0,o),
(224,0,qs)
);
},
{
closed = 1;
nodes = (
(669,179,l),
(669,259,l),
(55,259,l),
(55,179,l)
);
}
);
width = 713;
},
{
anchors = (
{
name = bottom;
pos = (355,0);
},
{
name = ogonek;
pos = (639,10);
},
{
name = top;
pos = (355,430);
}
);
layerId = "A1E4B453-6299-48B5-AC61-B31B01EA2EEB";
shapes = (
{
attr = {
strokePos = "1";
};
closed = 1;
nodes = (
(594,0,l),
(594,30,l),
(285,30,ls),
(135,30,o),
(135,180,qs),
(135,260,ls),
(135,410,o),
(285,410,qs),
(425,410,ls),
(575,410,o),
(575,260,qs),
(575,212,l),
(605,212,l),
(605,260,ls),
(605,440,o),
(425,440,qs),
(285,440,ls),
(105,440,o),
(105,260,qs),
(105,180,ls),
(105,0,o),
(285,0,qs)
);
},
{
closed = 1;
nodes = (
(605,189,l),
(605,219,l),
(113,219,l),
(113,189,l)
);
}
);
width = 710;
},
{
anchors = (
{
name = bottom;
pos = (355,0);
},
{
name = ogonek;
pos = (639,10);
},
{
name = top;
pos = (355,434);
}
);
associatedMasterId = "A1E4B453-6299-48B5-AC61-B31B01EA2EEB";
attr = {
coordinates = (
125,
90
);
};
layerId = "AE0C8137-AB16-48F7-81F2-8CEED585FDDF";
name = "11 Apr 25 at 21:32";
shapes = (
{
attr = {
strokePos = 1;
};
closed = 1;
nodes = (
(621,0,l),
(621,77,l),
(259,77,ls),
(165,77,o),
(165,180,qs),
(165,260,ls),
(165,363,o),
(259,363,qs),
(452,363,ls),
(547,363,o),
(547,260,qs),
(547,212,l),
(632,212,l),
(632,260,ls),
(632,440,o),
(452,440,qs),
(259,440,ls),
(79,440,o),
(79,260,qs),
(79,180,ls),
(79,0,o),
(259,0,qs)
);
},
{
closed = 1;
nodes = (
(632,165,l),
(632,242,l),
(88,242,l),
(88,165,l)
);
}
);
width = 710;
},
{
anchors = (
{
name = bottom;
pos = (203,0);
},
{
name = ogonek;
pos = (365,10);
},
{
name = top;
pos = (203,440);
}
);
layerId = "8544E31D-FA38-4D18-9DEA-5E3E35DDFD01";
shapes = (
{
attr = {
strokePos = "1";
};
closed = 1;
nodes = (
(340,0,l),
(340,140,l),
(190,140,ls),
(180,140,o),
(180,150,qs),
(180,298,ls),
(180,308,o),
(190,308,qs),
(216,308,ls),
(226,308,o),
(226,298,qs),
(226,221,l),
(366,221,l),
(366,298,ls),
(366,448,o),
(216,448,qs),
(190,448,ls),
(40,448,o),
(40,298,qs),
(40,150,ls),
(40,0,o),
(190,0,qs)
);
},
{
closed = 1;
nodes = (
(366,187,l),
(366,267,l),
(47,267,l),
(47,187,l)
);
}
);
width = 406;
},
{
anchors = (
{
name = bottom;
pos = (163,0);
},
{
name = ogonek;
pos = (293,10);
},
{
name = top;
pos = (163,430);
}
);
layerId = "3CC93672-F71B-4D5C-A968-72DE9C2CEAD3";
shapes = (
{
attr = {
strokePos = "1";
};
closed = 1;
nodes = (
(273,0,l),
(273,30,l),
(165,30,ls),
(65,30,o),
(65,130,qs),
(65,310,ls),
(65,410,o),
(155,410,qs),
(171,410,ls),
(261,410,o),
(261,310,qs),
(261,212,l),
(291,212,l),
(291,310,ls),
(291,440,o),
(171,440,qs),
(155,440,ls),
(35,440,o),
(35,310,qs),
(35,130,ls),
(35,0,o),
(165,0,qs)
);
},
{
closed = 1;
nodes = (
(291,189,l),
(291,219,l),
(41,219,l),
(41,189,l)
);
}
);
width = 326;
},
{
anchors = (
{
name = bottom;
pos = (183,0);
},
{
name = ogonek;
pos = (329,10);
},
{
name = top;
pos = (183,435);
}
);
associatedMasterId = "3CC93672-F71B-4D5C-A968-72DE9C2CEAD3";
attr = {
coordinates = (
75,
100
);
};
layerId = "DC6AAD84-9A42-492E-BF3D-F0EF268BF3C9";
name = "11 Apr 25 at 21:32";
shapes = (
{
attr = {
strokePos = 1;
};
closed = 1;
nodes = (
(307,0,l),
(307,85,l),
(178,85,ls),
(123,85,o),
(123,140,qs),
(123,304,ls),
(123,359,o),
(173,359,qs),
(194,359,ls),
(244,359,o),
(244,304,qs),
(244,217,l),
(329,217,l),
(329,304,ls),
(329,444,o),
(194,444,qs),
(173,444,ls),
(38,444,o),
(38,304,qs),
(38,140,ls),
(38,0,o),
(178,0,qs)
);
},
{
closed = 1;
nodes = (
(329,174,l),
(329,259,l),
(44,259,l),
(44,174,l)
);
}
);
width = 366;
}
);
metricLeft = o;
metricRight = o;
unicode = 101;
},
{
glyphname = f;
kernLeft = f;
kernRight = f;
lastChange = "2025-05-31 13:04:10 +0000";
layers = (
{
anchors = (
{
name = bottom;
pos = (258,0);
},
{
name = top;
pos = (258,990);
}
);
layerId = "71E51144-4680-4E23-982C-DE3E5ABB4D1F";
shapes = (
{
attr = {
strokePos = 1;
};
closed = 1;
nodes = (
(208,0,l),
(208,460,ls),
(208,490,o),
(228,490,qs),
(491,490,l),
(491,640,l),
(228,640,ls),
(48,640,o),
(48,460,qs),
(48,0,l)
);
},
{
attr = {
strokePos = "0";
};
closed = 1;
nodes = (
(491,276,l),
(491,426,l),
(61,426,l),
(61,276,l)
);
}
);
width = 515;
},
{
anchors = (
{
name = bottom;
pos = (263,0);
},
{
name = top;
pos = (263,990);
}
);
layerId = "A1E4B453-6299-48B5-AC61-B31B01EA2EEB";
shapes = (
{
attr = {
strokePos = "1";
};
closed = 1;
nodes = (
(143,0,l),
(143,460,ls),
(143,610,o),
(293,610,qs),
(468,610,l),
(468,640,l),
(293,640,ls),
(113,640,o),
(113,460,qs),
(113,0,l)
);
},
{
attr = {
strokePos = "0";
};
closed = 1;
nodes = (
(468,386,l),
(468,416,l),
(124,416,l),
(124,386,l)
);
}
);
width = 525;
},
{
anchors = (
{
name = bottom;
pos = (136,0);
},
{
name = top;
pos = (136,990);
}
);
layerId = "8544E31D-FA38-4D18-9DEA-5E3E35DDFD01";
shapes = (
{
attr = {
strokePos = 1;
};
closed = 1;
nodes = (
(185,0,l),
(185,500,ls),
(185,510,o),
(195,510,qs),
(249,510,l),
(249,640,l),
(195,640,ls),
(45,640,o),
(45,490,qs),
(45,0,l)
);
},
{
attr = {
strokePos = "0";
};
closed = 1;
nodes = (
(249,306,l),
(249,436,l),
(53,436,l),
(53,306,l)
);
}
);
width = 272;
},
{
anchors = (
{
name = bottom;
pos = (105,0);
},
{
name = top;
pos = (105,990);
}
);
layerId = "3CC93672-F71B-4D5C-A968-72DE9C2CEAD3";
shapes = (
{
attr = {
strokePos = "1";
};
closed = 1;
nodes = (
(60,0,l),
(60,510,ls),
(60,610,o),
(160,610,qs),
(194,610,l),
(194,640,l),
(160,640,ls),
(30,640,o),
(30,510,qs),
(30,0,l)
);
},
{
attr = {
strokePos = "0";
};
closed = 1;
nodes = (
(194,400,l),
(194,430,l),
(37,430,l),
(37,400,l)
);
}
);
width = 209;
}
);
metricLeft = n;
metricRight = "=n/2";
unicode = 102;
},
{
glyphname = g;
kernLeft = o;
kernRight = l;
lastChange = "2025-05-31 13:15:30 +0000";
layers = (
{
anchors = (
{
name = bottom;
pos = (359,-200);
},
{
name = top;
pos = (359,440);
}
);
layerId = "71E51144-4680-4E23-982C-DE3E5ABB4D1F";
shapes = (
{
attr = {
strokePos = "0";
};
closed = 1;
nodes = (
(509,-200,ls),
(669,-200,o),
(669,-40,qs),
(669,440,l),
(509,440,l),
(509,-50,ls),
(509,-50,o),
(509,-50,qs),
(96,-50,l),
(96,-200,l)
);
},
{
attr = {
identifier = ID0x313c96120;
strokePos = "1";
};
closed = 1;
nodes = (
(656,0,l),
(656,150,l),
(224,150,ls),
(204,150,o),
(204,170,qs),
(204,270,ls),
(204,290,o),
(224,290,qs),
(669,290,l),
(669,440,l),
(224,440,ls),
(44,440,o),
(44,260,qs),
(44,180,ls),
(44,0,o),
(224,0,qs)
);
}
);
width = 717;
},
{
anchors = (
{
name = bottom;
pos = (359,-200);
},
{
name = top;
pos = (359,430);
}
);
layerId = "A1E4B453-6299-48B5-AC61-B31B01EA2EEB";
shapes = (
{
attr = {
strokePos = "0";
};
closed = 1;
nodes = (
(445,-200,ls),
(605,-200,o),
(605,-40,qs),
(605,440,l),
(575,440,l),
(575,-40,ls),
(575,-170,o),
(445,-170,qs),
(138,-170,l),
(138,-200,l)
);
},
{
attr = {
identifier = ID0x313c96120;
strokePos = "1";
};
closed = 1;
nodes = (
(594,0,l),
(594,30,l),
(285,30,ls),
(135,30,o),
(135,180,qs),
(135,260,ls),
(135,410,o),
(285,410,qs),
(605,410,l),
(605,440,l),
(285,440,ls),
(105,440,o),
(105,260,qs),
(105,180,ls),
(105,0,o),
(285,0,qs)
);
}
);
width = 718;
},
{
anchors = (
{
name = bottom;
pos = (203,-200);
},
{
name = top;
pos = (203,440);
}
);
layerId = "8544E31D-FA38-4D18-9DEA-5E3E35DDFD01";
shapes = (
{
attr = {
strokePos = "0";
};
closed = 1;
nodes = (
(230,-200,ls),
(360,-200,o),
(360,-70,qs),
(360,440,l),
(220,440,l),
(220,-70,ls),
(220,-70,o),
(220,-70,qs),
(62,-70,l),
(62,-200,l)
);
},
{
attr = {
identifier = ID0x313c96120;
strokePos = "1";
};
closed = 1;
nodes = (
(352,0,l),
(352,130,l),
(190,130,ls),
(180,130,o),
(180,140,qs),
(180,300,ls),
(180,310,o),
(190,310,qs),
(360,310,l),
(360,440,l),
(190,440,ls),
(40,440,o),
(40,290,qs),
(40,150,ls),
(40,0,o),
(190,0,qs)
);
}
);
width = 405;
},
{
anchors = (
{
name = bottom;
pos = (161,-200);
},
{
name = top;
pos = (161,430);
}
);
layerId = "3CC93672-F71B-4D5C-A968-72DE9C2CEAD3";
shapes = (
{
attr = {
strokePos = "0";
};
closed = 1;
nodes = (
(181,-200,ls),
(291,-200,o),
(291,-90,qs),
(291,440,l),
(261,440,l),
(261,-90,ls),
(261,-170,o),
(181,-170,qs),
(50,-170,l),
(50,-200,l)
);
},
{
attr = {
identifier = ID0x313c96120;
strokePos = "1";
};
closed = 1;
nodes = (
(285,0,l),
(285,30,l),
(165,30,ls),
(65,30,o),
(65,130,qs),
(65,310,ls),
(65,410,o),
(165,410,qs),
(291,410,l),
(291,440,l),
(165,440,ls),
(35,440,o),
(35,310,qs),
(35,130,ls),
(35,0,o),
(165,0,qs)
);
}
);
width = 321;
}
);
metricLeft = o;
metricRight = "=|n";
unicode = 103;
},
{
glyphname = h;
kernLeft = l;
kernRight = n;
lastChange = "2025-05-31 13:05:56 +0000";
layers = (
{
anchors = (
{
name = bottom;
pos = (361,0);
},
{
name = center;
pos = (180,792);
},
{
name = top;
pos = (361,990);
}
);
layerId = "71E51144-4680-4E23-982C-DE3E5ABB4D1F";
shapes = (
{
attr = {
strokePos = "0";
};
closed = 1;
nodes = (
(673,0,l),
(673,260,ls),
(673,440,o),
(493,440,qs),
(60,440,l),
(60,290,l),
(493,290,ls),
(513,290,o),
(513,260,qs),
(513,0,l)
);
},
{
attr = {
strokePos = 1;
};
closed = 1;
nodes = (
(208,0,l),
(208,640,l),
(48,640,l),
(48,0,l)
);
}
);
width = 721;
},
{
anchors = (
{
name = bottom;
pos = (363,0);
},
{
name = center;
pos = (182,792);
},
{
name = top;
pos = (363,990);
}
);
layerId = "A1E4B453-6299-48B5-AC61-B31B01EA2EEB";
shapes = (
{
attr = {
strokePos = "0";
};
closed = 1;
nodes = (
(613,0,l),
(613,260,ls),
(613,440,o),
(433,440,qs),
(122,440,l),
(122,410,l),
(433,410,ls),
(583,410,o),
(583,260,qs),
(583,0,l)
);
},
{
attr = {
strokePos = "1";
};
closed = 1;
nodes = (
(143,0,l),
(143,640,l),
(113,640,l),
(113,0,l)
);
}
);
width = 726;
},
{
anchors = (
{
name = bottom;
pos = (205,0);
},
{
name = center;
pos = (103,792);
},
{
name = top;
pos = (205,990);
}
);
layerId = "8544E31D-FA38-4D18-9DEA-5E3E35DDFD01";
shapes = (
{
attr = {
strokePos = "0";
};
closed = 1;
nodes = (
(365,0,l),
(365,290,ls),
(365,440,o),
(215,440,qs),
(53,440,l),
(53,310,l),
(215,310,ls),
(225,310,o),
(225,300,qs),
(225,0,l)
);
},
{
attr = {
strokePos = 1;
};
closed = 1;
nodes = (
(185,0,l),
(185,640,l),
(45,640,l),
(45,0,l)
);
}
);
width = 410;
},
{
anchors = (
{
name = bottom;
pos = (158,0);
},
{
name = center;
pos = (79,792);
},
{
name = top;
pos = (158,990);
}
);
layerId = "3CC93672-F71B-4D5C-A968-72DE9C2CEAD3";
shapes = (
{
attr = {
strokePos = "0";
};
closed = 1;
nodes = (
(286,0,l),
(286,310,ls),
(286,440,o),
(156,440,qs),
(36,440,l),
(36,410,l),
(156,410,ls),
(256,410,o),
(256,310,qs),
(256,0,l)
);
},
{
attr = {
strokePos = "1";
};
closed = 1;
nodes = (
(60,0,l),
(60,640,l),
(30,640,l),
(30,0,l)
);
}
);
width = 316;
}
);
metricLeft = n;
metricRight = n;
unicode = 104;
},
{
glyphname = i;
kernLeft = l;
kernRight = l;
lastChange = "2025-05-31 11:36:32 +0000";
layers = (
{
anchors = (
{
name = bottom;
pos = (128,0);
}
);
layerId = "71E51144-4680-4E23-982C-DE3E5ABB4D1F";
shapes = (
{
closed = 1;
nodes = (
(208,0,l),
(208,440,l),
(48,440,l),
(48,0,l)
);
},
{
pos = (56,15);
ref = "dotaboveSymbol-ar";
}
);
width = 256;
},
{
anchors = (
{
name = bottom;
pos = (141,0);
}
);
layerId = "A1E4B453-6299-48B5-AC61-B31B01EA2EEB";
shapes = (
{
closed = 1;
nodes = (
(156,0,l),
(156,430,l),
(126,430,l),
(126,0,l)
);
},
{
pos = (108,35);
ref = "dotaboveSymbol-ar";
}
);
width = 282;
},
{
anchors = (
{
name = bottom;
pos = (126,0);
}
);
layerId = "8544E31D-FA38-4D18-9DEA-5E3E35DDFD01";
shapes = (
{
closed = 1;
nodes = (
(196,0,l),
(196,440,l),
(56,440,l),
(56,0,l)
);
},
{
pos = (39,-86);
ref = "dotaboveSymbol-ar";
scale = (1.2,1.2);
}
);
width = 252;
},
{
anchors = (
{
name = bottom;
pos = (58,0);
}
);
layerId = "3CC93672-F71B-4D5C-A968-72DE9C2CEAD3";
shapes = (
{
closed = 1;
nodes = (
(73,0,l),
(73,430,l),
(43,430,l),
(43,0,l)
);
},
{
pos = (25,36);
ref = "dotaboveSymbol-ar";
}
);
width = 116;
}
);
metricLeft = n;
metricRight = "=|";
unicode = 105;
},
{
glyphname = j;
kernLeft = j;
kernRight = l;
lastChange = "2025-05-31 13:16:12 +0000";
layers = (
{
layerId = "71E51144-4680-4E23-982C-DE3E5ABB4D1F";
shapes = (
{
attr = {
strokePos = 0;
};
closed = 1;
nodes = (
(104,-200,ls),
(264,-200,o),
(264,-40,qs),
(264,440,l),
(104,440,l),
(104,-50,ls),
(104,-50,o),
(104,-50,qs),
(-218,-50,l),
(-218,-200,l)
);
}
);
width = 312;
},
{
layerId = "A1E4B453-6299-48B5-AC61-B31B01EA2EEB";
shapes = (
{
attr = {
strokePos = "0";
};
closed = 1;
nodes = (
(56,-200,ls),
(216,-200,o),
(216,-40,qs),
(216,440,l),
(186,440,l),
(186,-40,ls),
(186,-170,o),
(56,-170,qs),
(-170,-170,l),
(-170,-200,l)
);
}
);
width = 329;
},
{
layerId = "8544E31D-FA38-4D18-9DEA-5E3E35DDFD01";
shapes = (
{
attr = {
strokePos = 0;
};
closed = 1;
nodes = (
(66,-200,ls),
(196,-200,o),
(196,-70,qs),
(196,440,l),
(56,440,l),
(56,-70,ls),
(56,-70,o),
(56,-70,qs),
(0,-70,l),
(0,-200,l)
);
}
);
width = 241;
},
{
layerId = "3CC93672-F71B-4D5C-A968-72DE9C2CEAD3";
shapes = (
{
attr = {
strokePos = "0";
};
closed = 1;
nodes = (
(36,-200,ls),
(146,-200,o),
(146,-90,qs),
(146,440,l),
(116,440,l),
(116,-90,ls),
(116,-170,o),
(36,-170,qs),
(0,-170,l),
(0,-200,l)
);
}
);
width = 176;
}
);
metricRight = "=|n";
unicode = 106;
},
{
glyphname = k;
kernLeft = l;
kernRight = k;
lastChange = "2025-05-31 11:36:32 +0000";
layers = (
{
anchors = (
{
name = bottom;
pos = (334,0);
},
{
name = top;
pos = (334,990);
}
);
layerId = "71E51144-4680-4E23-982C-DE3E5ABB4D1F";
shapes = (
{
closed = 1;
nodes = (
(638,0,l),
(515,228,l),
(640,440,l),
(476,440,l),
(353,232,l),
(478,0,l)
);
},
{
attr = {
strokePos = "0";
};
closed = 1;
nodes = (
(208,0,l),
(208,640,l),
(48,640,l),
(48,0,l)
);
},
{
closed = 1;
nodes = (
(436,155,l),
(436,305,l),
(51,305,l),
(51,155,l)
);
}
);
width = 668;
},
{
anchors = (
{
name = bottom;
pos = (281,0);
},
{
name = top;
pos = (281,990);
}
);
layerId = "A1E4B453-6299-48B5-AC61-B31B01EA2EEB";
shapes = (
{
closed = 1;
nodes = (
(542,0,l),
(422,230,l),
(542,440,l),
(508,440,l),
(388,230,l),
(508,0,l)
);
},
{
attr = {
strokePos = "0";
};
closed = 1;
nodes = (
(143,0,l),
(143,640,l),
(113,640,l),
(113,0,l)
);
},
{
closed = 1;
nodes = (
(403,215,l),
(403,245,l),
(117,245,l),
(117,215,l)
);
}
);
width = 562;
},
{
anchors = (
{
name = bottom;
pos = (199,0);
},
{
name = top;
pos = (199,990);
}
);
layerId = "8544E31D-FA38-4D18-9DEA-5E3E35DDFD01";
shapes = (
{
closed = 1;
nodes = (
(389,0,l),
(314,231,l),
(379,440,l),
(243,440,l),
(178,229,l),
(253,0,l)
);
},
{
attr = {
strokePos = 0;
};
closed = 1;
nodes = (
(185,0,l),
(185,640,l),
(45,640,l),
(45,0,l)
);
},
{
closed = 1;
nodes = (
(244,165,l),
(244,295,l),
(47,295,l),
(47,165,l)
);
}
);
width = 397;
},
{
anchors = (
{
name = bottom;
pos = (147,0);
},
{
name = top;
pos = (147,990);
}
);
layerId = "3CC93672-F71B-4D5C-A968-72DE9C2CEAD3";
shapes = (
{
closed = 1;
nodes = (
(279,0,l),
(217,240,l),
(266,440,l),
(236,440,l),
(187,240,l),
(249,0,l)
);
},
{
attr = {
strokePos = "0";
};
closed = 1;
nodes = (
(60,0,l),
(60,640,l),
(30,640,l),
(30,0,l)
);
},
{
closed = 1;
nodes = (
(200,225,l),
(200,255,l),
(31,255,l),
(31,225,l)
);
}
);
width = 294;
}
);
metricLeft = n;
metricRight = x;
unicode = 107;
},
{
glyphname = l;
kernLeft = l;
kernRight = l;
lastChange = "2025-05-31 11:36:32 +0000";
layers = (
{
anchors = (
{
name = bottom;
pos = (128,0);
},
{
name = center;
pos = (128,220);
},
{
name = top;
pos = (128,990);
},
{
name = topright;
pos = (236,990);
}
);
layerId = "71E51144-4680-4E23-982C-DE3E5ABB4D1F";
shapes = (
{
attr = {
strokePos = "0";
};
closed = 1;
nodes = (
(208,0,l),
(208,640,l),
(48,640,l),
(48,0,l)
);
}
);
width = 256;
},
{
anchors = (
{
name = bottom;
pos = (128,0);
},
{
name = center;
pos = (128,215);
},
{
name = top;
pos = (128,990);
},
{
name = topright;
pos = (236,990);
}
);
layerId = "A1E4B453-6299-48B5-AC61-B31B01EA2EEB";
shapes = (
{
attr = {
strokePos = "0";
};
closed = 1;
nodes = (
(143,0,l),
(143,640,l),
(113,640,l),
(113,0,l)
);
}
);
width = 256;
},
{
anchors = (
{
name = bottom;
pos = (115,0);
},
{
name = center;
pos = (115,220);
},
{
name = top;
pos = (115,990);
},
{
name = topright;
pos = (210,990);
}
);
layerId = "8544E31D-FA38-4D18-9DEA-5E3E35DDFD01";
shapes = (
{
attr = {
strokePos = "0";
};
closed = 1;
nodes = (
(185,0,l),
(185,640,l),
(45,640,l),
(45,0,l)
);
}
);
width = 230;
},
{
anchors = (
{
name = bottom;
pos = (45,0);
},
{
name = center;
pos = (45,215);
},
{
name = top;
pos = (45,990);
},
{
name = topright;
pos = (70,990);
}
);
layerId = "3CC93672-F71B-4D5C-A968-72DE9C2CEAD3";
shapes = (
{
attr = {
strokePos = "0";
};
closed = 1;
nodes = (
(60,0,l),
(60,640,l),
(30,640,l),
(30,0,l)
);
}
);
width = 90;
}
);
metricLeft = n;
metricRight = "=|";
unicode = 108;
},
{
glyphname = m;
kernLeft = n;
kernRight = n;
lastChange = "2025-05-31 13:07:02 +0000";
layers = (
{
anchors = (
{
name = bottom;
pos = (493,0);
},
{
name = top;
pos = (493,440);
}
);
layerId = "71E51144-4680-4E23-982C-DE3E5ABB4D1F";
shapes = (
{
attr = {
strokePos = "0";
};
closed = 1;
nodes = (
(208,0,l),
(208,290,l),
(758,290,ls),
(778,290,o),
(778,260,qs),
(778,0,l),
(938,0,l),
(938,260,ls),
(938,440,o),
(758,440,qs),
(48,440,l),
(48,0,l)
);
},
{
closed = 1;
nodes = (
(573,0,l),
(573,433,l),
(413,433,l),
(413,0,l)
);
}
);
width = 986;
},
{
anchors = (
{
name = bottom;
pos = (463,0);
},
{
name = top;
pos = (463,430);
}
);
layerId = "A1E4B453-6299-48B5-AC61-B31B01EA2EEB";
shapes = (
{
attr = {
strokePos = "0";
};
closed = 1;
nodes = (
(143,0,l),
(143,400,l),
(633,400,ls),
(783,400,o),
(783,250,qs),
(783,0,l),
(813,0,l),
(813,250,ls),
(813,430,o),
(633,430,qs),
(113,430,l),
(113,0,l)
);
},
{
closed = 1;
nodes = (
(478,0,l),
(478,423,l),
(448,423,l),
(448,0,l)
);
}
);
width = 926;
},
{
anchors = (
{
name = bottom;
pos = (295,0);
},
{
name = top;
pos = (295,440);
}
);
layerId = "8544E31D-FA38-4D18-9DEA-5E3E35DDFD01";
shapes = (
{
attr = {
strokePos = "0";
};
closed = 1;
nodes = (
(185,0,l),
(185,310,l),
(395,310,ls),
(405,310,o),
(405,300,qs),
(405,0,l),
(545,0,l),
(545,290,ls),
(545,440,o),
(395,440,qs),
(45,440,l),
(45,0,l)
);
},
{
closed = 1;
nodes = (
(365,0,l),
(365,433,l),
(225,433,l),
(225,0,l)
);
}
);
width = 590;
},
{
anchors = (
{
name = bottom;
pos = (272,0);
},
{
name = top;
pos = (272,430);
}
);
layerId = "3CC93672-F71B-4D5C-A968-72DE9C2CEAD3";
shapes = (
{
attr = {
strokePos = "0";
};
closed = 1;
nodes = (
(60,0,l),
(60,410,l),
(384,410,ls),
(484,410,o),
(484,310,qs),
(484,0,l),
(514,0,l),
(514,310,ls),
(514,440,o),
(384,440,qs),
(30,440,l),
(30,0,l)
);
},
{
closed = 1;
nodes = (
(287,0,l),
(287,433,l),
(257,433,l),
(257,0,l)
);
}
);
width = 544;
}
);
metricLeft = n;
metricRight = n;
unicode = 109;
},
{
color = 3;
glyphname = n;
kernLeft = n;
kernRight = n;
lastChange = "2025-05-31 13:07:25 +0000";
layers = (
{
anchors = (
{
name = bottom;
pos = (361,0);
},
{
name = top;
pos = (361,440);
}
);
layerId = "71E51144-4680-4E23-982C-DE3E5ABB4D1F";
shapes = (
{
attr = {
strokePos = 0;
};
closed = 1;
nodes = (
(208,0,l),
(208,290,l),
(493,290,ls),
(513,290,o),
(513,260,qs),
(513,0,l),
(673,0,l),
(673,260,ls),
(673,440,o),
(493,440,qs),
(48,440,l),
(48,0,l)
);
}
);
width = 721;
},
{
anchors = (
{
name = bottom;
pos = (363,0);
},
{
name = top;
pos = (363,430);
}
);
layerId = "A1E4B453-6299-48B5-AC61-B31B01EA2EEB";
shapes = (
{
attr = {
strokePos = "0";
};
closed = 1;
nodes = (
(143,0,l),
(143,400,l),
(433,400,ls),
(583,400,o),
(583,250,qs),
(583,0,l),
(613,0,l),
(613,250,ls),
(613,430,o),
(433,430,qs),
(113,430,l),
(113,0,l)
);
}
);
width = 726;
},
{
anchors = (
{
name = bottom;
pos = (205,0);
},
{
name = top;
pos = (205,440);
}
);
layerId = "8544E31D-FA38-4D18-9DEA-5E3E35DDFD01";
shapes = (
{
attr = {
strokePos = 0;
};
closed = 1;
nodes = (
(185,0,l),
(185,310,l),
(215,310,ls),
(225,310,o),
(225,300,qs),
(225,0,l),
(365,0,l),
(365,290,ls),
(365,440,o),
(215,440,qs),
(45,440,l),
(45,0,l)
);
}
);
width = 410;
},
{
anchors = (
{
name = bottom;
pos = (163,0);
},
{
name = top;
pos = (163,430);
}
);
layerId = "3CC93672-F71B-4D5C-A968-72DE9C2CEAD3";
shapes = (
{
attr = {
strokePos = "0";
};
closed = 1;
nodes = (
(60,0,l),
(60,410,l),
(166,410,ls),
(266,410,o),
(266,310,qs),
(266,0,l),
(296,0,l),
(296,310,ls),
(296,440,o),
(166,440,qs),
(30,440,l),
(30,0,l)
);
}
);
width = 326;
}
);
metricRight = "=|";
unicode = 110;
},
{
color = 3;
glyphname = o;
kernLeft = o;
kernRight = o;
lastChange = "2025-05-31 13:07:54 +0000";
layers = (
{
anchors = (
{
name = bottom;
pos = (369,0);
},
{
name = center;
pos = (369,220);
},
{
name = ogonek;
pos = (664,10);
},
{
name = top;
pos = (369,440);
},
{
name = topright;
pos = (718,440);
}
);
layerId = "71E51144-4680-4E23-982C-DE3E5ABB4D1F";
shapes = (
{
attr = {
strokePos = 1;
};
closed = 1;
nodes = (
(514,-8,ls),
(694,-8,o),
(694,172,qs),
(694,268,ls),
(694,448,o),
(514,448,qs),
(224,448,ls),
(44,448,o),
(44,268,qs),
(44,172,ls),
(44,-8,o),
(224,-8,qs)
);
},
{
attr = {
strokePos = 1;
};
closed = 1;
nodes = (
(204,142,o),
(204,172,qs),
(204,268,ls),
(204,298,o),
(224,298,qs),
(514,298,ls),
(534,298,o),
(534,268,qs),
(534,172,ls),
(534,142,o),
(514,142,qs),
(224,142,ls)
);
}
);
width = 738;
},
{
anchors = (
{
name = bottom;
pos = (365,0);
},
{
name = center;
pos = (365,215);
},
{
name = ogonek;
pos = (657,10);
},
{
name = top;
pos = (365,430);
},
{
name = topright;
pos = (710,430);
}
);
layerId = "A1E4B453-6299-48B5-AC61-B31B01EA2EEB";
shapes = (
{
attr = {
strokePos = "1";
};
closed = 1;
nodes = (
(445,-8,ls),
(625,-8,o),
(625,172,qs),
(625,248,ls),
(625,428,o),
(435,428,qs),
(285,428,ls),
(105,428,o),
(105,248,qs),
(105,172,ls),
(105,-8,o),
(285,-8,qs)
);
},
{
attr = {
strokePos = "1";
};
closed = 1;
nodes = (
(135,22,o),
(135,172,qs),
(135,248,ls),
(135,398,o),
(285,398,qs),
(435,398,ls),
(595,398,o),
(595,248,qs),
(595,172,ls),
(595,22,o),
(445,22,qs),
(285,22,ls)
);
}
);
width = 730;
},
{
anchors = (
{
name = bottom;
pos = (203,0);
},
{
name = center;
pos = (203,220);
},
{
name = ogonek;
pos = (365,10);
},
{
name = top;
pos = (203,440);
},
{
name = topright;
pos = (386,440);
}
);
layerId = "8544E31D-FA38-4D18-9DEA-5E3E35DDFD01";
shapes = (
{
attr = {
strokePos = 1;
};
closed = 1;
nodes = (
(216,-8,ls),
(366,-8,o),
(366,142,qs),
(366,298,ls),
(366,448,o),
(216,448,qs),
(190,448,ls),
(40,448,o),
(40,298,qs),
(40,142,ls),
(40,-8,o),
(190,-8,qs)
);
},
{
attr = {
strokePos = 1;
};
closed = 1;
nodes = (
(180,122,o),
(180,132,qs),
(180,308,ls),
(180,318,o),
(190,318,qs),
(216,318,ls),
(226,318,o),
(226,308,qs),
(226,132,ls),
(226,122,o),
(216,122,qs),
(190,122,ls)
);
}
);
width = 406;
},
{
anchors = (
{
name = bottom;
pos = (165,0);
},
{
name = center;
pos = (165,215);
},
{
name = ogonek;
pos = (297,10);
},
{
name = top;
pos = (165,430);
},
{
name = topright;
pos = (310,430);
}
);
layerId = "3CC93672-F71B-4D5C-A968-72DE9C2CEAD3";
shapes = (
{
attr = {
strokePos = "1";
};
closed = 1;
nodes = (
(175,-8,ls),
(295,-8,o),
(295,122,qs),
(295,308,ls),
(295,438,o),
(175,438,qs),
(155,438,ls),
(35,438,o),
(35,308,qs),
(35,122,ls),
(35,-8,o),
(155,-8,qs)
);
},
{
attr = {
strokePos = "1";
};
closed = 1;
nodes = (
(65,22,o),
(65,122,qs),
(65,308,ls),
(65,408,o),
(155,408,qs),
(175,408,ls),
(265,408,o),
(265,308,qs),
(265,122,ls),
(265,22,o),
(175,22,qs),
(155,22,ls)
);
}
);
width = 330;
}
);
metricRight = "=|";
unicode = 111;
},
{
glyphname = r;
kernLeft = n;
kernRight = r;
lastChange = "2025-05-31 13:08:18 +0000";
layers = (
{
anchors = (
{
name = bottom;
pos = (283,0);
},
{
name = top;
pos = (283,440);
}
);
layerId = "71E51144-4680-4E23-982C-DE3E5ABB4D1F";
shapes = (
{
attr = {
strokePos = "0";
};
closed = 1;
nodes = (
(208,0,l),
(208,260,ls),
(208,290,o),
(228,290,qs),
(541,290,l),
(541,440,l),
(228,440,ls),
(48,440,o),
(48,260,qs),
(48,0,l)
);
}
);
width = 565;
},
{
anchors = (
{
name = bottom;
pos = (283,0);
},
{
name = top;
pos = (283,430);
}
);
layerId = "A1E4B453-6299-48B5-AC61-B31B01EA2EEB";
shapes = (
{
attr = {
strokePos = "0";
};
closed = 1;
nodes = (
(143,0,l),
(143,260,ls),
(143,410,o),
(293,410,qs),
(508,410,l),
(508,440,l),
(293,440,ls),
(113,440,o),
(113,260,qs),
(113,0,l)
);
}
);
width = 565;
},
{
anchors = (
{
name = bottom;
pos = (156,0);
},
{
name = top;
pos = (156,440);
}
);
layerId = "8544E31D-FA38-4D18-9DEA-5E3E35DDFD01";
shapes = (
{
attr = {
strokePos = "0";
};
closed = 1;
nodes = (
(185,0,l),
(185,300,ls),
(185,310,o),
(195,310,qs),
(288,310,l),
(288,440,l),
(195,440,ls),
(45,440,o),
(45,290,qs),
(45,0,l)
);
}
);
width = 311;
},
{
anchors = (
{
name = bottom;
pos = (111,0);
},
{
name = top;
pos = (111,430);
}
);
layerId = "3CC93672-F71B-4D5C-A968-72DE9C2CEAD3";
shapes = (
{
attr = {
strokePos = "0";
};
closed = 1;
nodes = (
(60,0,l),
(60,310,ls),
(60,410,o),
(160,410,qs),
(206,410,l),
(206,440,l),
(160,440,ls),
(30,440,o),
(30,310,qs),
(30,0,l)
);
}
);
width = 221;
}
);
metricLeft = n;
metricRight = "=n/2";
unicode = 114;
},
{
glyphname = s;
kernLeft = s;
kernRight = s;
lastChange = "2025-05-31 13:10:59 +0000";
layers = (
{
anchors = (
{
name = bottom;
pos = (369,0);
},
{
name = top;
pos = (369,440);
}
);
layerId = "71E51144-4680-4E23-982C-DE3E5ABB4D1F";
shapes = (
{
attr = {
identifier = ID0x3050a7720;
strokePos = "1";
};
closed = 1;
nodes = (
(554,0,ls),
(694,0,o),
(694,120,qs),
(694,155,ls),
(694,275,o),
(554,275,qs),
(194,275,ls),
(194,275,o),
(194,275,qs),
(194,300,ls),
(194,300,o),
(194,300,qs),
(660,300,l),
(660,440,l),
(184,440,ls),
(44,440,o),
(44,320,qs),
(44,285,ls),
(44,165,o),
(184,165,qs),
(554,165,ls),
(554,165,o),
(554,165,qs),
(554,140,ls),
(554,140,o),
(554,140,qs),
(64,140,l),
(64,0,l)
);
}
);
width = 738;
},
{
anchors = (
{
name = bottom;
pos = (365,0);
},
{
name = top;
pos = (365,430);
}
);
layerId = "A1E4B453-6299-48B5-AC61-B31B01EA2EEB";
shapes = (
{
attr = {
identifier = ID0x3050a7720;
strokePos = "1";
};
closed = 1;
nodes = (
(495,0,ls),
(625,0,o),
(625,110,qs),
(625,125,ls),
(625,235,o),
(495,235,qs),
(235,235,ls),
(135,235,o),
(135,315,qs),
(135,330,ls),
(135,410,o),
(235,410,qs),
(592,410,l),
(592,440,l),
(235,440,ls),
(105,440,o),
(105,330,qs),
(105,315,ls),
(105,205,o),
(235,205,qs),
(495,205,ls),
(595,205,o),
(595,125,qs),
(595,110,ls),
(595,30,o),
(495,30,qs),
(121,30,l),
(121,0,l)
);
}
);
width = 730;
},
{
anchors = (
{
name = bottom;
pos = (206,0);
},
{
name = top;
pos = (206,440);
}
);
layerId = "8544E31D-FA38-4D18-9DEA-5E3E35DDFD01";
shapes = (
{
attr = {
identifier = ID0x3050a7720;
strokePos = "1";
};
closed = 1;
nodes = (
(232,0,ls),
(372,0,o),
(372,120,qs),
(372,160,ls),
(372,280,o),
(232,280,qs),
(174,280,ls),
(170,280,o),
(170,284,qs),
(170,316,ls),
(170,320,o),
(174,320,qs),
(352,320,l),
(352,440,l),
(180,440,ls),
(40,440,o),
(40,320,qs),
(40,280,ls),
(40,160,o),
(180,160,qs),
(238,160,ls),
(242,160,o),
(242,156,qs),
(242,124,ls),
(242,120,o),
(238,120,qs),
(50,120,l),
(50,0,l)
);
}
);
width = 412;
},
{
anchors = (
{
name = bottom;
pos = (168,0);
},
{
name = top;
pos = (168,430);
}
);
layerId = "3CC93672-F71B-4D5C-A968-72DE9C2CEAD3";
shapes = (
{
attr = {
identifier = ID0x3050a7720;
strokePos = "1";
};
closed = 1;
nodes = (
(193,0,ls),
(301,0,o),
(301,110,qs),
(301,125,ls),
(301,235,o),
(193,235,qs),
(143,235,ls),
(65,235,o),
(65,315,qs),
(65,330,ls),
(65,410,o),
(143,410,qs),
(285,410,l),
(285,440,l),
(143,440,ls),
(35,440,o),
(35,330,qs),
(35,315,ls),
(35,205,o),
(143,205,qs),
(193,205,ls),
(271,205,o),
(271,125,qs),
(271,110,ls),
(271,30,o),
(193,30,qs),
(43,30,l),
(43,0,l)
);
}
);
width = 336;
}
);
metricLeft = "=o";
metricRight = "=|";
unicode = 115;
},
{
glyphname = t;
kernLeft = l;
kernRight = t;
lastChange = "2025-05-31 13:11:48 +0000";
layers = (
{
anchors = (
{
name = bottom;
pos = (258,0);
},
{
name = center;
pos = (258,220);
},
{
name = top;
pos = (258,570);
},
{
name = topright;
pos = (495,990);
}
);
layerId = "71E51144-4680-4E23-982C-DE3E5ABB4D1F";
shapes = (
{
attr = {
strokePos = "0";
};
closed = 1;
nodes = (
(491,0,l),
(491,150,l),
(208,150,ls),
(208,150,o),
(208,150,qs),
(208,570,l),
(48,570,l),
(48,160,ls),
(48,0,o),
(208,0,qs)
);
},
{
attr = {
strokePos = 0;
};
closed = 1;
nodes = (
(491,290,l),
(491,440,l),
(61,440,l),
(61,290,l)
);
}
);
width = 515;
},
{
anchors = (
{
name = bottom;
pos = (263,0);
},
{
name = center;
pos = (263,215);
},
{
name = top;
pos = (263,570);
},
{
name = topright;
pos = (505,990);
}
);
layerId = "A1E4B453-6299-48B5-AC61-B31B01EA2EEB";
shapes = (
{
attr = {
strokePos = "0";
};
closed = 1;
nodes = (
(468,0,l),
(468,30,l),
(273,30,ls),
(143,30,o),
(143,160,qs),
(143,570,l),
(113,570,l),
(113,160,ls),
(113,0,o),
(273,0,qs)
);
},
{
attr = {
strokePos = "0";
};
closed = 1;
nodes = (
(468,410,l),
(468,440,l),
(124,440,l),
(124,410,l)
);
}
);
width = 525;
},
{
anchors = (
{
name = bottom;
pos = (141,0);
},
{
name = center;
pos = (141,220);
},
{
name = top;
pos = (141,570);
},
{
name = topright;
pos = (262,990);
}
);
layerId = "8544E31D-FA38-4D18-9DEA-5E3E35DDFD01";
shapes = (
{
attr = {
strokePos = "0";
};
closed = 1;
nodes = (
(259,0,l),
(259,130,l),
(195,130,ls),
(185,130,o),
(185,140,qs),
(185,570,l),
(45,570,l),
(45,150,ls),
(45,0,o),
(195,0,qs)
);
},
{
attr = {
strokePos = 0;
};
closed = 1;
nodes = (
(259,310,l),
(259,440,l),
(53,440,l),
(53,310,l)
);
}
);
width = 282;
},
{
anchors = (
{
name = bottom;
pos = (104,0);
},
{
name = center;
pos = (104,215);
},
{
name = top;
pos = (104,570);
},
{
name = topright;
pos = (188,990);
}
);
layerId = "3CC93672-F71B-4D5C-A968-72DE9C2CEAD3";
shapes = (
{
attr = {
strokePos = "0";
};
closed = 1;
nodes = (
(193,0,l),
(193,30,l),
(160,30,ls),
(60,30,o),
(60,130,qs),
(60,570,l),
(30,570,l),
(30,130,ls),
(30,0,o),
(160,0,qs)
);
},
{
attr = {
strokePos = "0";
};
closed = 1;
nodes = (
(193,410,l),
(193,440,l),
(36,440,l),
(36,410,l)
);
}
);
width = 208;
}
);
metricLeft = n;
metricRight = "=n/2";
unicode = 116;
},
{
glyphname = v;
kernLeft = v;
kernRight = v;
lastChange = "2025-05-31 11:36:32 +0000";
layers = (
{
anchors = (
{
name = bottom;
pos = (375,0);
},
{
name = top;
pos = (375,440);
}
);
layerId = "71E51144-4680-4E23-982C-DE3E5ABB4D1F";
shapes = (
{
attr = {
identifier = ID0x303e09a70;
};
closed = 1;
nodes = (
(463,0,l),
(722,440,l),
(548,440,l),
(377,150,l),
(373,150,l),
(202,440,l),
(28,440,l),
(287,0,l)
);
}
);
width = 750;
},
{
anchors = (
{
name = bottom;
pos = (284,0);
},
{
name = top;
pos = (284,430);
}
);
layerId = "A1E4B453-6299-48B5-AC61-B31B01EA2EEB";
shapes = (
{
attr = {
identifier = ID0x303e09a70;
};
closed = 1;
nodes = (
(306,0,l),
(548,440,l),
(514,440,l),
(288,30,l),
(280,30,l),
(54,440,l),
(20,440,l),
(262,0,l)
);
}
);
width = 568;
},
{
anchors = (
{
name = bottom;
pos = (175,0);
},
{
name = top;
pos = (175,440);
}
);
layerId = "8544E31D-FA38-4D18-9DEA-5E3E35DDFD01";
shapes = (
{
attr = {
identifier = ID0x303e09a70;
};
closed = 1;
nodes = (
(284,0,l),
(341,440,l),
(209,440,l),
(170,130,l),
(179,130,l),
(140,440,l),
(8,440,l),
(65,0,l)
);
}
);
width = 349;
},
{
anchors = (
{
name = bottom;
pos = (147,0);
},
{
name = top;
pos = (147,430);
}
);
layerId = "3CC93672-F71B-4D5C-A968-72DE9C2CEAD3";
shapes = (
{
attr = {
identifier = ID0x303e09a70;
};
closed = 1;
nodes = (
(193,0,l),
(279,440,l),
(249,440,l),
(169,30,l),
(125,30,l),
(45,440,l),
(15,440,l),
(101,0,l)
);
}
);
width = 294;
}
);
metricLeft = x;
metricRight = "=|";
unicode = 118;
},
{
glyphname = w;
kernLeft = w;
kernRight = w;
lastChange = "2025-05-31 11:36:32 +0000";
layers = (
{
anchors = (
{
name = bottom;
pos = (432,0);
},
{
name = top;
pos = (432,440);
}
);
layerId = "71E51144-4680-4E23-982C-DE3E5ABB4D1F";
shapes = (
{
attr = {
identifier = ID0x303e09a70;
};
closed = 1;
nodes = (
(352,0,l),
(431,233,l),
(510,0,l),
(672,0,l),
(835,440,l),
(675,440,l),
(561,58,l),
(621,58,l),
(497,440,l),
(366,440,l),
(242,58,l),
(302,58,l),
(188,440,l),
(28,440,l),
(191,0,l)
);
}
);
width = 863;
},
{
anchors = (
{
name = bottom;
pos = (345,0);
},
{
name = top;
pos = (345,430);
}
);
layerId = "A1E4B453-6299-48B5-AC61-B31B01EA2EEB";
shapes = (
{
attr = {
identifier = ID0x303e09a70;
};
closed = 1;
nodes = (
(220,0,l),
(345,379,l),
(470,0,l),
(527,0,l),
(670,440,l),
(638,440,l),
(505,30,l),
(492,30,l),
(357,440,l),
(333,440,l),
(198,30,l),
(186,30,l),
(52,440,l),
(20,440,l),
(164,0,l)
);
}
);
width = 690;
},
{
anchors = (
{
name = bottom;
pos = (275,0);
},
{
name = top;
pos = (275,440);
}
);
layerId = "8544E31D-FA38-4D18-9DEA-5E3E35DDFD01";
shapes = (
{
attr = {
identifier = ID0x303e09a70;
};
closed = 1;
nodes = (
(229,0,l),
(275,182,l),
(320,0,l),
(484,0,l),
(541,440,l),
(409,440,l),
(371,24,l),
(400,24,l),
(331,440,l),
(218,440,l),
(149,24,l),
(178,24,l),
(140,440,l),
(8,440,l),
(65,0,l)
);
}
);
width = 549;
},
{
anchors = (
{
name = bottom;
pos = (232,0);
},
{
name = top;
pos = (232,430);
}
);
layerId = "3CC93672-F71B-4D5C-A968-72DE9C2CEAD3";
shapes = (
{
attr = {
identifier = ID0x303e09a70;
};
closed = 1;
nodes = (
(175,0,l),
(232,327,l),
(288,0,l),
(373,0,l),
(449,440,l),
(419,440,l),
(347,30,l),
(314,30,l),
(242,440,l),
(221,440,l),
(149,30,l),
(115,30,l),
(45,440,l),
(15,440,l),
(89,0,l)
);
}
);
width = 464;
}
);
metricLeft = x;
metricRight = "=|";
unicode = 119;
},
{
color = 3;
glyphname = x;
kernLeft = u;
kernRight = l;
lastChange = "2025-05-31 11:36:32 +0000";
layers = (
{
anchors = (
{
name = bottom;
pos = (336,0);
},
{
name = top;
pos = (336,440);
}
);
layerId = "71E51144-4680-4E23-982C-DE3E5ABB4D1F";
shapes = (
{
closed = 1;
nodes = (
(642,0,l),
(528,230,l),
(643,440,l),
(483,440,l),
(370,230,l),
(484,0,l)
);
},
{
closed = 1;
nodes = (
(187,0,l),
(300,230,l),
(188,440,l),
(28,440,l),
(142,230,l),
(29,0,l)
);
},
{
closed = 1;
nodes = (
(451,165,l),
(451,305,l),
(219,305,l),
(219,165,l)
);
}
);
width = 671;
},
{
anchors = (
{
name = bottom;
pos = (293,0);
},
{
name = top;
pos = (293,430);
}
);
layerId = "A1E4B453-6299-48B5-AC61-B31B01EA2EEB";
shapes = (
{
closed = 1;
nodes = (
(566,0,l),
(435,220,l),
(566,440,l),
(532,440,l),
(401,220,l),
(532,0,l)
);
},
{
closed = 1;
nodes = (
(54,0,l),
(185,220,l),
(54,440,l),
(20,440,l),
(151,220,l),
(20,0,l)
);
},
{
closed = 1;
nodes = (
(413,205,l),
(413,235,l),
(173,235,l),
(173,205,l)
);
}
);
width = 586;
},
{
anchors = (
{
name = bottom;
pos = (201,0);
},
{
name = top;
pos = (201,440);
}
);
layerId = "8544E31D-FA38-4D18-9DEA-5E3E35DDFD01";
shapes = (
{
closed = 1;
nodes = (
(393,0,l),
(318,231,l),
(383,440,l),
(247,440,l),
(182,229,l),
(257,0,l)
);
},
{
closed = 1;
nodes = (
(144,0,l),
(219,229,l),
(154,440,l),
(18,440,l),
(83,231,l),
(8,0,l)
);
},
{
closed = 1;
nodes = (
(251,166,l),
(251,296,l),
(155,296,l),
(155,166,l)
);
}
);
width = 401;
},
{
anchors = (
{
name = bottom;
pos = (139,0);
},
{
name = top;
pos = (139,430);
}
);
layerId = "3CC93672-F71B-4D5C-A968-72DE9C2CEAD3";
shapes = (
{
closed = 1;
nodes = (
(263,0,l),
(202,230,l),
(254,440,l),
(224,440,l),
(172,230,l),
(231,0,l)
);
},
{
closed = 1;
nodes = (
(47,0,l),
(106,230,l),
(54,440,l),
(24,440,l),
(76,230,l),
(15,0,l)
);
},
{
closed = 1;
nodes = (
(187,216,l),
(187,246,l),
(95,246,l),
(95,216,l)
);
}
);
width = 278;
}
);
metricRight = "=|";
unicode = 120;
},
{
glyphname = y;
lastChange = "2025-05-31 13:13:20 +0000";
layers = (
{
anchors = (
{
name = bottom;
pos = (361,0);
},
{
name = top;
pos = (361,440);
}
);
layerId = "71E51144-4680-4E23-982C-DE3E5ABB4D1F";
shapes = (
{
attr = {
strokePos = "0";
};
closed = 1;
nodes = (
(513,-200,ls),
(673,-200,o),
(673,-40,qs),
(673,440,l),
(513,440,l),
(513,-50,ls),
(513,-50,o),
(513,-50,qs),
(90,-50,l),
(90,-200,l)
);
},
{
attr = {
identifier = ID0x313c96120;
strokePos = "1";
};
closed = 1;
nodes = (
(660,0,l),
(660,150,l),
(228,150,ls),
(208,150,o),
(208,170,qs),
(208,440,l),
(48,440,l),
(48,180,ls),
(48,0,o),
(228,0,qs)
);
}
);
width = 721;
},
{
anchors = (
{
name = bottom;
pos = (363,0);
},
{
name = top;
pos = (363,430);
}
);
layerId = "A1E4B453-6299-48B5-AC61-B31B01EA2EEB";
shapes = (
{
attr = {
strokePos = "0";
};
closed = 1;
nodes = (
(453,-200,ls),
(613,-200,o),
(613,-40,qs),
(613,440,l),
(583,440,l),
(583,-40,ls),
(583,-170,o),
(453,-170,qs),
(136,-170,l),
(136,-200,l)
);
},
{
attr = {
identifier = ID0x313c96120;
strokePos = "1";
};
closed = 1;
nodes = (
(602,0,l),
(602,30,l),
(293,30,ls),
(143,30,o),
(143,180,qs),
(143,440,l),
(113,440,l),
(113,180,ls),
(113,0,o),
(293,0,qs)
);
}
);
width = 726;
},
{
anchors = (
{
name = bottom;
pos = (205,0);
},
{
name = top;
pos = (205,440);
}
);
layerId = "8544E31D-FA38-4D18-9DEA-5E3E35DDFD01";
shapes = (
{
attr = {
strokePos = "0";
};
closed = 1;
nodes = (
(235,-190,ls),
(365,-190,o),
(365,-60,qs),
(365,440,l),
(225,440,l),
(225,-60,ls),
(225,-60,o),
(225,-60,qs),
(72,-60,l),
(72,-190,l)
);
},
{
attr = {
identifier = ID0x313c96120;
strokePos = "1";
};
closed = 1;
nodes = (
(357,0,l),
(357,130,l),
(195,130,ls),
(185,130,o),
(185,140,qs),
(185,440,l),
(45,440,l),
(45,150,ls),
(45,0,o),
(195,0,qs)
);
}
);
width = 410;
},
{
anchors = (
{
name = bottom;
pos = (158,0);
},
{
name = top;
pos = (158,430);
}
);
layerId = "3CC93672-F71B-4D5C-A968-72DE9C2CEAD3";
shapes = (
{
attr = {
strokePos = "0";
};
closed = 1;
nodes = (
(176,-200,ls),
(286,-200,o),
(286,-90,qs),
(286,440,l),
(256,440,l),
(256,-90,ls),
(256,-170,o),
(176,-170,qs),
(45,-170,l),
(45,-200,l)
);
},
{
attr = {
identifier = ID0x313c96120;
strokePos = "1";
};
closed = 1;
nodes = (
(280,0,l),
(280,30,l),
(160,30,ls),
(60,30,o),
(60,130,qs),
(60,440,l),
(30,440,l),
(30,130,ls),
(30,0,o),
(160,0,qs)
);
}
);
width = 316;
}
);
metricLeft = n;
metricRight = "=|";
unicode = 121;
},
{
glyphname = z;
kernLeft = z;
kernRight = z;
lastChange = "2025-05-31 11:36:32 +0000";
layers = (
{
anchors = (
{
name = bottom;
pos = (302,0);
},
{
name = center;
pos = (302,220);
},
{
name = top;
pos = (302,440);
}
);
layerId = "71E51144-4680-4E23-982C-DE3E5ABB4D1F";
shapes = (
{
closed = 1;
nodes = (
(579,0,l),
(579,150,l),
(165,150,l),
(165,61,l),
(580,311,l),
(580,460,l),
(24,460,l),
(24,310,l),
(440,310,l),
(440,399,l),
(25,149,l),
(25,0,l)
);
}
);
width = 604;
},
{
anchors = (
{
name = bottom;
pos = (315,0);
},
{
name = center;
pos = (315,215);
},
{
name = top;
pos = (315,430);
}
);
layerId = "A1E4B453-6299-48B5-AC61-B31B01EA2EEB";
shapes = (
{
closed = 1;
nodes = (
(572,0,l),
(572,30,l),
(87,30,l),
(87,50,l),
(572,373,l),
(572,440,l),
(57,440,l),
(57,410,l),
(542,410,l),
(542,389,l),
(57,66,l),
(57,0,l)
);
}
);
width = 629;
},
{
anchors = (
{
name = bottom;
pos = (153,0);
},
{
name = center;
pos = (153,220);
},
{
name = top;
pos = (153,440);
}
);
layerId = "8544E31D-FA38-4D18-9DEA-5E3E35DDFD01";
shapes = (
{
closed = 1;
nodes = (
(282,0,l),
(282,130,l),
(143,130,l),
(143,77,l),
(279,310,l),
(279,440,l),
(25,440,l),
(25,310,l),
(159,310,l),
(159,363,l),
(23,130,l),
(23,0,l)
);
}
);
width = 305;
},
{
anchors = (
{
name = bottom;
pos = (121,0);
},
{
name = center;
pos = (121,215);
},
{
name = top;
pos = (121,430);
}
);
layerId = "3CC93672-F71B-4D5C-A968-72DE9C2CEAD3";
shapes = (
{
closed = 1;
nodes = (
(226,0,l),
(226,30,l),
(45,30,l),
(45,35,l),
(227,397,l),
(227,440,l),
(20,440,l),
(20,410,l),
(197,410,l),
(197,405,l),
(15,43,l),
(15,0,l)
);
}
);
width = 242;
}
);
metricLeft = "=n/2";
metricRight = "=|";
unicode = 122;
},
{
color = 4;
glyphname = "hamza-ar";
lastChange = "2025-05-31 13:20:57 +0000";
layers = (
{
anchors = (
{
name = bottom;
pos = (312,0);
},
{
name = top;
pos = (312,330);
}
);
layerId = "71E51144-4680-4E23-982C-DE3E5ABB4D1F";
shapes = (
{
attr = {
strokePos = "1";
};
closed = 1;
nodes = (
(246,10,l),
(246,174,ls),
(246,208,o),
(280,208,qs),
(502,208,l),
(502,348,l),
(280,348,ls),
(106,348,o),
(106,174,qs),
(106,10,l)
);
},
{
attr = {
identifier = ID0x12cbfe300;
strokePos = 1;
};
closed = 1;
nodes = (
(532,0,l),
(532,140,l),
(30,140,l),
(30,0,l)
);
}
);
width = 562;
},
{
anchors = (
{
name = bottom;
pos = (312,0);
},
{
name = top;
pos = (312,336);
}
);
layerId = "A1E4B453-6299-48B5-AC61-B31B01EA2EEB";
shapes = (
{
attr = {
strokePos = "1";
};
closed = 1;
nodes = (
(136,0,l),
(136,140,ls),
(136,284,o),
(280,284,qs),
(502,284,l),
(502,314,l),
(280,314,ls),
(106,314,o),
(106,140,qs),
(106,0,l)
);
},
{
attr = {
identifier = ID0x12cbfe300;
strokePos = 1;
};
closed = 1;
nodes = (
(532,0,l),
(532,30,l),
(30,30,l),
(30,0,l)
);
}
);
width = 562;
},
{
anchors = (
{
name = bottom;
pos = (177,0);
},
{
name = top;
pos = (177,348);
}
);
layerId = "8544E31D-FA38-4D18-9DEA-5E3E35DDFD01";
shapes = (
{
attr = {
strokePos = "1";
};
closed = 1;
nodes = (
(202,11,l),
(202,208,ls),
(202,218,o),
(212,218,qs),
(274,218,l),
(274,348,l),
(212,348,ls),
(72,348,o),
(72,208,qs),
(72,11,l)
);
},
{
attr = {
identifier = ID0x12cbfe300;
strokePos = 1;
};
closed = 1;
nodes = (
(294,0,l),
(294,130,l),
(20,130,l),
(20,0,l)
);
}
);
width = 314;
},
{
anchors = (
{
name = bottom;
pos = (177,0);
},
{
name = top;
pos = (177,330);
}
);
layerId = "3CC93672-F71B-4D5C-A968-72DE9C2CEAD3";
shapes = (
{
attr = {
strokePos = "1";
};
closed = 1;
nodes = (
(102,0,l),
(102,187,ls),
(102,297,o),
(212,297,qs),
(274,297,l),
(274,327,l),
(212,327,ls),
(72,327,o),
(72,187,qs),
(72,0,l)
);
},
{
attr = {
identifier = ID0x12cbfe300;
strokePos = 1;
};
closed = 1;
nodes = (
(294,0,l),
(294,30,l),
(20,30,l),
(20,0,l)
);
}
);
width = 314;
}
);
unicode = 1569;
},
{
color = 3;
glyphname = "alef-ar";
lastChange = "2025-05-07 13:44:00 +0000";
layers = (
{
anchors = (
{
name = bottom;
pos = (165,0);
},
{
name = top;
pos = (165,640);
}
);
layerId = "71E51144-4680-4E23-982C-DE3E5ABB4D1F";
shapes = (
{
closed = 1;
nodes = (
(250,0,l),
(250,640,l),
(80,640,l),
(80,0,l)
);
}
);
width = 330;
},
{
anchors = (
{
name = bottom;
pos = (125,0);
},
{
name = top;
pos = (130,640);
}
);
layerId = "A1E4B453-6299-48B5-AC61-B31B01EA2EEB";
shapes = (
{
closed = 1;
nodes = (
(130,0,l),
(130,640,l),
(100,640,l),
(100,0,l)
);
}
);
width = 230;
},
{
anchors = (
{
name = bottom;
pos = (115,0);
},
{
name = top;
pos = (115,640);
}
);
layerId = "8544E31D-FA38-4D18-9DEA-5E3E35DDFD01";
shapes = (
{
closed = 1;
nodes = (
(190,0,l),
(190,640,l),
(40,640,l),
(40,0,l)
);
}
);
width = 230;
},
{
anchors = (
{
name = bottom;
pos = (65,0);
},
{
name = top;
pos = (65,640);
}
);
layerId = "3CC93672-F71B-4D5C-A968-72DE9C2CEAD3";
shapes = (
{
closed = 1;
nodes = (
(80,0,l),
(80,640,l),
(50,640,l),
(50,0,l)
);
}
);
width = 130;
}
);
unicode = 1575;
},
{
color = 4;
glyphname = "alef-ar.fina";
lastChange = "2025-05-31 13:22:13 +0000";
layers = (
{
anchors = (
{
name = bottom;
pos = (175,0);
},
{
name = top;
pos = (175,640);
}
);
layerId = "71E51144-4680-4E23-982C-DE3E5ABB4D1F";
shapes = (
{
attr = {
strokePos = "0";
};
closed = 1;
nodes = (
(350,0,l),
(350,170,l),
(250,170,ls),
(250,170,o),
(250,170,qs),
(250,640,l),
(80,640,l),
(80,80,ls),
(80,0,o),
(160,0,qs)
);
}
);
width = 350;
},
{
anchors = (
{
name = bottom;
pos = (150,0);
},
{
name = top;
pos = (130,640);
}
);
layerId = "A1E4B453-6299-48B5-AC61-B31B01EA2EEB";
shapes = (
{
attr = {
strokePos = "0";
};
closed = 1;
nodes = (
(250,0,l),
(250,30,l),
(180,30,ls),
(130,30,o),
(130,80,qs),
(130,640,l),
(100,640,l),
(100,80,ls),
(100,0,o),
(180,0,qs)
);
}
);
width = 250;
},
{
anchors = (
{
name = bottom;
pos = (127,0);
},
{
name = top;
pos = (116,640);
}
);
layerId = "8544E31D-FA38-4D18-9DEA-5E3E35DDFD01";
shapes = (
{
attr = {
strokePos = "0";
};
closed = 1;
nodes = (
(230,0,l),
(230,150,l),
(190,150,ls),
(190,150,o),
(190,150,qs),
(190,640,l),
(40,640,l),
(40,60,ls),
(40,0,o),
(100,0,qs)
);
}
);
width = 230;
},
{
anchors = (
{
name = bottom;
pos = (66,0);
},
{
name = top;
pos = (66,640);
}
);
layerId = "3CC93672-F71B-4D5C-A968-72DE9C2CEAD3";
shapes = (
{
attr = {
strokePos = "0";
};
closed = 1;
nodes = (
(155,0,l),
(155,30,l),
(110,30,ls),
(80,30,o),
(80,60,qs),
(80,640,l),
(50,640,l),
(50,60,ls),
(50,0,o),
(110,0,qs)
);
}
);
width = 155;
}
);
metricLeft = "alef-ar";
metricRight = "kashida-ar";
},
{
color = 4;
glyphname = "behDotless-ar";
lastChange = "2025-05-31 13:23:53 +0000";
layers = (
{
anchors = (
{
name = bottom;
pos = (547,0);
},
{
name = ring;
pos = (547,0);
},
{
name = top;
pos = (547,440);
}
);
layerId = "71E51144-4680-4E23-982C-DE3E5ABB4D1F";
shapes = (
{
attr = {
strokePos = "0";
};
closed = 1;
nodes = (
(918,0,ls),
(998,0,o),
(998,80,qs),
(998,390,l),
(828,390,l),
(828,170,ls),
(828,170,o),
(828,170,qs),
(250,170,ls),
(250,170,o),
(250,170,qs),
(250,390,l),
(80,390,l),
(80,80,ls),
(80,0,o),
(160,0,qs)
);
}
);
width = 1078;
},
{
anchors = (
{
name = bottom;
pos = (515,0);
},
{
name = ring;
pos = (517,0);
},
{
name = top;
pos = (515,400);
}
);
layerId = "A1E4B453-6299-48B5-AC61-B31B01EA2EEB";
shapes = (
{
attr = {
strokePos = "0";
};
closed = 1;
nodes = (
(850,0,ls),
(930,0,o),
(930,80,qs),
(930,380,l),
(900,380,l),
(900,80,ls),
(900,30,o),
(850,30,qs),
(180,30,ls),
(130,30,o),
(130,80,qs),
(130,380,l),
(100,380,l),
(100,80,ls),
(100,0,o),
(180,0,qs)
);
}
);
width = 1030;
},
{
anchors = (
{
name = bottom;
pos = (270,0);
},
{
name = ring;
pos = (270,0);
},
{
name = top;
pos = (270,390);
}
);
layerId = "8544E31D-FA38-4D18-9DEA-5E3E35DDFD01";
shapes = (
{
attr = {
strokePos = "0";
};
closed = 1;
nodes = (
(440,0,ls),
(500,0,o),
(500,60,qs),
(500,390,l),
(350,390,l),
(350,150,ls),
(350,150,o),
(350,150,qs),
(190,150,ls),
(190,150,o),
(190,150,qs),
(190,390,l),
(40,390,l),
(40,60,ls),
(40,0,o),
(100,0,qs)
);
}
);
width = 540;
},
{
anchors = (
{
name = bottom;
pos = (247,0);
},
{
name = ring;
pos = (249,0);
},
{
name = top;
pos = (247,400);
}
);
layerId = "3CC93672-F71B-4D5C-A968-72DE9C2CEAD3";
shapes = (
{
attr = {
strokePos = "0";
};
closed = 1;
nodes = (
(394,0,ls),
(454,0,o),
(454,60,qs),
(454,380,l),
(424,380,l),
(424,60,ls),
(424,30,o),
(394,30,qs),
(110,30,ls),
(80,30,o),
(80,60,qs),
(80,380,l),
(50,380,l),
(50,60,ls),
(50,0,o),
(110,0,qs)
);
}
);
width = 504;
}
);
metricLeft = "alef-ar";
metricRight = "alef-ar";
unicode = 1646;
},
{
color = 4;
glyphname = "behDotless-ar.fina";
lastChange = "2025-05-06 14:12:51 +0000";
layers = (
{
layerId = "71E51144-4680-4E23-982C-DE3E5ABB4D1F";
shapes = (
{
attr = {
strokePos = 1;
};
closed = 1;
nodes = (
(1088,0,l),
(1088,170,l),
(908,170,l),
(861,170,o),
(823,132,o),
(823,85,c),
(823,38,o),
(861,0,o),
(908,0,c)
);
},
{
ref = "behDotless-ar";
}
);
width = 1088;
},
{
layerId = "A1E4B453-6299-48B5-AC61-B31B01EA2EEB";
shapes = (
{
attr = {
strokePos = 1;
};
closed = 1;
nodes = (
(1050,0,l),
(1050,30,l),
(850,30,l),
(842,30,o),
(835,23,o),
(835,15,c),
(835,7,o),
(842,0,o),
(850,0,c)
);
},
{
ref = "behDotless-ar";
}
);
width = 1050;
},
{
layerId = "8544E31D-FA38-4D18-9DEA-5E3E35DDFD01";
shapes = (
{
attr = {
strokePos = 1;
};
closed = 1;
nodes = (
(540,0,l),
(540,150,l),
(440,150,l),
(399,150,o),
(365,116,o),
(365,75,c),
(365,34,o),
(399,0,o),
(440,0,c)
);
},
{
ref = "behDotless-ar";
}
);
width = 540;
},
{
layerId = "3CC93672-F71B-4D5C-A968-72DE9C2CEAD3";
shapes = (
{
attr = {
strokePos = 1;
};
closed = 1;
nodes = (
(529,0,l),
(529,30,l),
(394,30,l),
(386,30,o),
(379,23,o),
(379,15,c),
(379,7,o),
(386,0,o),
(394,0,c)
);
},
{
ref = "behDotless-ar";
}
);
width = 529;
}
);
metricLeft = "alef-ar";
metricRight = "kashida-ar";
},
{
color = 4;
glyphname = "behDotless-ar.medi";
lastChange = "2025-05-29 08:24:27 +0000";
layers = (
{
anchors = (
{
name = bottom;
pos = (70,0);
},
{
name = ring;
pos = (173,0);
},
{
name = top;
pos = (186,390);
}
);
layerId = "71E51144-4680-4E23-982C-DE3E5ABB4D1F";
shapes = (
{
attr = {
identifier = ID0x13f441ad0;
strokePos = "0";
};
closed = 1;
nodes = (
(270,10,l),
(270,390,l),
(100,390,l),
(100,10,l)
);
},
{
attr = {
strokePos = 1;
};
closed = 1;
nodes = (
(370,0,l),
(370,170,l),
(0,170,l),
(-48,170,o),
(-85,132,o),
(-85,85,c),
(-85,38,o),
(-48,0,o),
(0,0,c)
);
}
);
width = 370;
},
{
anchors = (
{
name = bottom;
pos = (65,0);
},
{
name = ring;
pos = (174,0);
},
{
name = top;
pos = (173,400);
}
);
layerId = "A1E4B453-6299-48B5-AC61-B31B01EA2EEB";
shapes = (
{
attr = {
identifier = ID0x13f455360;
strokePos = "0";
};
closed = 1;
nodes = (
(190,10,l),
(190,380,l),
(160,380,l),
(160,10,l)
);
},
{
attr = {
strokePos = 1;
};
closed = 1;
nodes = (
(350,0,l),
(350,30,l),
(0,30,l),
(-8,30,o),
(-15,23,o),
(-15,15,c),
(-15,7,o),
(-8,0,o),
(0,0,c)
);
}
);
width = 350;
},
{
anchors = (
{
name = bottom;
pos = (98,0);
},
{
name = ring;
pos = (115,0);
},
{
name = top;
pos = (115,390);
}
);
layerId = "8544E31D-FA38-4D18-9DEA-5E3E35DDFD01";
shapes = (
{
attr = {
identifier = ID0x13f4456f0;
strokePos = "0";
};
closed = 1;
nodes = (
(190,10,l),
(190,390,l),
(40,390,l),
(40,10,l)
);
},
{
attr = {
strokePos = 1;
};
closed = 1;
nodes = (
(230,0,l),
(230,150,l),
(0,150,l),
(-42,150,o),
(-75,116,o),
(-75,75,c),
(-75,34,o),
(-42,0,o),
(0,0,c)
);
}
);
width = 230;
},
{
anchors = (
{
name = bottom;
pos = (40,0);
},
{
name = ring;
pos = (91,0);
},
{
name = top;
pos = (90,400);
}
);
layerId = "3CC93672-F71B-4D5C-A968-72DE9C2CEAD3";
shapes = (
{
attr = {
identifier = ID0x13f4244d0;
strokePos = "0";
};
closed = 1;
nodes = (
(105,10,l),
(105,380,l),
(75,380,l),
(75,10,l)
);
},
{
attr = {
strokePos = 1;
};
closed = 1;
nodes = (
(180,0,l),
(180,30,l),
(0,30,l),
(-8,30,o),
(-15,23,o),
(-15,15,c),
(-15,7,o),
(-8,0,o),
(0,0,c)
);
}
);
width = 180;
}
);
metricLeft = "kashida-ar";
metricRight = "kashida-ar";
},
{
color = 4;
glyphname = "behDotless-ar.init";
lastChange = "2025-05-31 13:25:52 +0000";
layers = (
{
anchors = (
{
name = bottom;
pos = (62,0);
},
{
name = ring;
pos = (163,0);
},
{
name = top;
pos = (180,390);
}
);
layerId = "71E51144-4680-4E23-982C-DE3E5ABB4D1F";
shapes = (
{
attr = {
strokePos = "0";
};
closed = 1;
nodes = (
(180,0,ls),
(260,0,o),
(260,80,qs),
(260,390,l),
(90,390,l),
(90,170,ls),
(90,170,o),
(90,170,qs),
(0,170,ls),
(-36,170,o),
(-85,120,o),
(-85,85,qs),
(-85,50,o),
(-36,0,o),
(0,0,qs)
);
}
);
width = 340;
},
{
anchors = (
{
name = bottom;
pos = (65,0);
},
{
name = ring;
pos = (94,0);
},
{
name = top;
pos = (173,400);
}
);
layerId = "A1E4B453-6299-48B5-AC61-B31B01EA2EEB";
shapes = (
{
attr = {
strokePos = "0";
};
closed = 1;
nodes = (
(110,0,ls),
(190,0,o),
(190,80,qs),
(190,380,l),
(160,380,l),
(160,80,ls),
(160,30,o),
(110,30,qs),
(0,30,ls),
(-6,30,o),
(-15,21,o),
(-15,15,qs),
(-15,9,o),
(-6,0,o),
(0,0,qs)
);
}
);
width = 290;
},
{
anchors = (
{
name = bottom;
pos = (71,0);
},
{
name = ring;
pos = (128,0);
},
{
name = top;
pos = (119,390);
}
);
layerId = "8544E31D-FA38-4D18-9DEA-5E3E35DDFD01";
shapes = (
{
attr = {
strokePos = "0";
};
closed = 1;
nodes = (
(130,0,ls),
(190,0,o),
(190,60,qs),
(190,390,l),
(40,390,l),
(40,150,ls),
(40,150,o),
(40,150,qs),
(0,150,ls),
(-31,150,o),
(-75,106,o),
(-75,75,qs),
(-75,44,o),
(-31,0,o),
(0,0,qs)
);
}
);
width = 230;
},
{
anchors = (
{
name = bottom;
pos = (32,0);
},
{
name = ring;
pos = (43,0);
},
{
name = top;
pos = (87,400);
}
);
layerId = "3CC93672-F71B-4D5C-A968-72DE9C2CEAD3";
shapes = (
{
attr = {
strokePos = "0";
};
closed = 1;
nodes = (
(45,0,ls),
(105,0,o),
(105,60,qs),
(105,380,l),
(75,380,l),
(75,60,ls),
(75,30,o),
(45,30,qs),
(0,30,ls),
(-6,30,o),
(-15,21,o),
(-15,15,qs),
(-15,9,o),
(-6,0,o),
(0,0,qs)
);
}
);
width = 155;
}
);
metricLeft = "kashida-ar";
metricRight = "alef-ar";
},
{
glyphname = "tehRing-ar";
lastChange = "2025-05-28 11:08:40 +0000";
layers = (
{
layerId = "3CC93672-F71B-4D5C-A968-72DE9C2CEAD3";
shapes = (
{
ref = "teh-ar";
},
{
closed = 1;
nodes = (
(232,-77,o),
(214,-59,o),
(214,-38,cs),
(214,-18,o),
(232,0,o),
(253,0,cs),
(273,0,o),
(291,-18,o),
(291,-38,cs),
(291,-59,o),
(273,-77,o),
(253,-77,cs)
);
},
{
closed = 1;
nodes = (
(285,-97,o),
(311,-71,o),
(311,-38,cs),
(311,-6,o),
(285,20,o),
(253,20,cs),
(220,20,o),
(194,-6,o),
(194,-38,cs),
(194,-71,o),
(220,-97,o),
(253,-97,cs)
);
}
);
width = 504;
},
{
layerId = "A1E4B453-6299-48B5-AC61-B31B01EA2EEB";
shapes = (
{
ref = "teh-ar";
},
{
closed = 1;
nodes = (
(488,-100,o),
(465,-77,o),
(465,-49,cs),
(465,-22,o),
(488,1,o),
(516,1,cs),
(543,1,o),
(566,-22,o),
(566,-49,cs),
(566,-77,o),
(543,-100,o),
(516,-100,cs)
);
},
{
closed = 1;
nodes = (
(555,-120,o),
(586,-89,o),
(586,-49,cs),
(586,-10,o),
(555,21,o),
(516,21,cs),
(476,21,o),
(445,-10,o),
(445,-49,cs),
(445,-89,o),
(476,-120,o),
(516,-120,cs)
);
}
);
width = 1030;
},
{
layerId = "8544E31D-FA38-4D18-9DEA-5E3E35DDFD01";
shapes = (
{
ref = "teh-ar";
},
{
closed = 1;
nodes = (
(250,-75,o),
(233,-58,o),
(233,-37,cs),
(233,-17,o),
(250,0,o),
(271,0,cs),
(291,0,o),
(308,-17,o),
(308,-37,cs),
(308,-58,o),
(291,-75,o),
(271,-75,cs)
);
},
{
closed = 1;
nodes = (
(319,-125,o),
(358,-86,o),
(358,-37,cs),
(358,11,o),
(319,50,o),
(271,50,cs),
(222,50,o),
(183,11,o),
(183,-37,cs),
(183,-86,o),
(222,-125,o),
(271,-125,cs)
);
}
);
width = 540;
},
{
layerId = "71E51144-4680-4E23-982C-DE3E5ABB4D1F";
shapes = (
{
ref = "teh-ar";
},
{
closed = 1;
nodes = (
(512,-107,o),
(488,-83,o),
(488,-53,cs),
(488,-24,o),
(512,0,o),
(542,0,cs),
(571,0,o),
(595,-24,o),
(595,-53,cs),
(595,-83,o),
(571,-107,o),
(542,-107,cs)
);
},
{
closed = 1;
nodes = (
(599,-157,o),
(645,-111,o),
(645,-53,cs),
(645,4,o),
(599,50,o),
(542,50,cs),
(484,50,o),
(438,4,o),
(438,-53,cs),
(438,-111,o),
(484,-157,o),
(542,-157,cs)
);
}
);
width = 1078;
}
);
metricLeft = "teh-ar";
metricRight = "teh-ar";
unicode = 1660;
},
{
color = 4;
glyphname = "hah-ar";
lastChange = "2025-05-31 13:27:48 +0000";
layers = (
{
anchors = (
{
name = bottom;
pos = (514,-240);
},
{
name = center;
pos = (515,-37);
},
{
name = top;
pos = (554,440);
}
);
layerId = "71E51144-4680-4E23-982C-DE3E5ABB4D1F";
shapes = (
{
attr = {
strokePos = "1";
};
closed = 1;
nodes = (
(864,0,ls),
(944,0,o),
(944,80,qs),
(944,240,ls),
(944,440,o),
(744,440,qs),
(240,440,l),
(240,270,l),
(744,270,ls),
(774,270,o),
(774,240,qs),
(774,170,ls),
(774,170,o),
(774,170,qs),
(290,170,ls),
(80,170,o),
(80,-35,qs),
(80,-240,o),
(300,-240,qs),
(631,-240,l),
(631,-70,l),
(290,-70,ls),
(250,-70,o),
(250,-35,qs),
(250,0,o),
(290,0,qs)
);
}
);
width = 1024;
},
{
anchors = (
{
name = bottom;
pos = (480,-240);
},
{
name = center;
pos = (480,-106);
},
{
name = top;
pos = (502,450);
}
);
layerId = "A1E4B453-6299-48B5-AC61-B31B01EA2EEB";
shapes = (
{
attr = {
strokePos = "1";
};
closed = 1;
nodes = (
(826,0,ls),
(906,0,o),
(906,80,qs),
(906,230,ls),
(906,430,o),
(706,430,qs),
(202,430,l),
(202,400,l),
(706,400,ls),
(876,400,o),
(876,230,qs),
(876,80,ls),
(876,30,o),
(826,30,qs),
(250,30,ls),
(100,30,o),
(100,-105,qs),
(100,-240,o),
(250,-240,qs),
(681,-240,l),
(681,-210,l),
(250,-210,ls),
(130,-210,o),
(130,-105,qs),
(130,0,o),
(250,0,qs)
);
}
);
width = 1006;
},
{
anchors = (
{
name = bottom;
pos = (284,-240);
},
{
name = center;
pos = (284,-50);
},
{
name = top;
pos = (293,440);
}
);
layerId = "8544E31D-FA38-4D18-9DEA-5E3E35DDFD01";
shapes = (
{
attr = {
strokePos = "1";
};
closed = 1;
nodes = (
(425,0,ls),
(485,0,o),
(485,60,qs),
(485,290,ls),
(485,440,o),
(335,440,qs),
(163,440,l),
(163,290,l),
(335,290,ls),
(335,290,o),
(335,290,qs),
(335,150,ls),
(335,150,o),
(335,150,qs),
(215,150,ls),
(40,150,o),
(40,-45,qs),
(40,-240,o),
(215,-240,qs),
(379,-240,l),
(379,-90,l),
(215,-90,ls),
(190,-90,o),
(190,-45,qs),
(190,0,o),
(215,0,qs)
);
}
);
width = 525;
},
{
anchors = (
{
name = bottom;
pos = (242,-240);
},
{
name = center;
pos = (242,-106);
},
{
name = top;
pos = (261,450);
}
);
layerId = "3CC93672-F71B-4D5C-A968-72DE9C2CEAD3";
shapes = (
{
attr = {
strokePos = "1";
};
closed = 1;
nodes = (
(383,0,ls),
(443,0,o),
(443,60,qs),
(443,280,ls),
(443,430,o),
(293,430,qs),
(121,430,l),
(121,400,l),
(293,400,ls),
(413,400,o),
(413,280,qs),
(413,60,ls),
(413,30,o),
(383,30,qs),
(170,30,ls),
(50,30,o),
(50,-105,qs),
(50,-240,o),
(170,-240,qs),
(337,-240,l),
(337,-210,l),
(170,-210,ls),
(80,-210,o),
(80,-105,qs),
(80,0,o),
(170,0,qs)
);
}
);
width = 493;
}
);
metricLeft = "alef-ar";
metricRight = "alef-ar";
unicode = 1581;
},
{
color = 5;
glyphname = "hah-ar.alt";
lastChange = "2025-05-31 13:29:47 +0000";
layers = (
{
anchors = (
{
name = bottom;
pos = (514,-240);
},
{
name = center;
pos = (692,-155);
},
{
name = top;
pos = (554,440);
}
);
layerId = "71E51144-4680-4E23-982C-DE3E5ABB4D1F";
shapes = (
{
attr = {
strokePos = "1";
};
closed = 1;
nodes = (
(864,0,ls),
(944,0,o),
(944,80,qs),
(944,240,ls),
(944,440,o),
(744,440,qs),
(240,440,l),
(240,270,l),
(744,270,ls),
(774,270,o),
(774,240,qs),
(774,170,ls),
(774,170,o),
(774,170,qs),
(290,170,ls),
(80,170,o),
(80,-35,qs),
(80,-240,o),
(290,-240,qs),
(506,-240,l),
(506,-70,l),
(290,-70,ls),
(250,-70,o),
(250,-35,qs),
(250,0,o),
(290,0,qs)
);
}
);
width = 1024;
},
{
anchors = (
{
name = bottom;
pos = (480,-240);
},
{
name = center;
pos = (505,-106);
},
{
name = top;
pos = (480,450);
}
);
layerId = "A1E4B453-6299-48B5-AC61-B31B01EA2EEB";
shapes = (
{
attr = {
strokePos = "1";
};
closed = 1;
nodes = (
(826,0,ls),
(906,0,o),
(906,80,qs),
(906,230,ls),
(906,430,o),
(706,430,qs),
(202,430,l),
(202,400,l),
(706,400,ls),
(876,400,o),
(876,230,qs),
(876,80,ls),
(876,30,o),
(826,30,qs),
(250,30,ls),
(100,30,o),
(100,-105,qs),
(100,-240,o),
(250,-240,qs),
(681,-240,l),
(681,-210,l),
(250,-210,ls),
(130,-210,o),
(130,-105,qs),
(130,0,o),
(250,0,qs)
);
}
);
width = 1006;
},
{
anchors = (
{
name = bottom;
pos = (502,-240);
},
{
name = center;
pos = (801,-100);
},
{
name = top;
pos = (528,444);
}
);
associatedMasterId = "A1E4B453-6299-48B5-AC61-B31B01EA2EEB";
attr = {
coordinates = (
125,
120
);
};
layerId = "1E589440-3E1A-409F-986D-17DF6BCD6F83";
name = "25 Apr 25 at 02:59";
shapes = (
{
attr = {
strokePos = 1;
};
closed = 1;
nodes = (
(850,0,ls),
(930,0,o),
(930,80,qs),
(930,236,ls),
(930,436,o),
(730,436,qs),
(226,436,l),
(226,316,l),
(730,316,ls),
(810,316,o),
(810,236,qs),
(810,138,ls),
(810,120,o),
(793,120,qs),
(276,120,ls),
(87,120,o),
(87,-60,qs),
(87,-240,o),
(276,-240,qs),
(494,-240,l),
(494,-120,l),
(276,-120,ls),
(207,-120,o),
(207,-60,qs),
(207,0,o),
(276,0,qs)
);
}
);
width = 1017;
},
{
anchors = (
{
name = bottom;
pos = (277,-240);
},
{
name = center;
pos = (405,-165);
},
{
name = top;
pos = (284,440);
}
);
layerId = "8544E31D-FA38-4D18-9DEA-5E3E35DDFD01";
shapes = (
{
attr = {
strokePos = "1";
};
closed = 1;
nodes = (
(425,0,ls),
(485,0,o),
(485,60,qs),
(485,280,ls),
(485,440,o),
(335,440,qs),
(163,440,l),
(163,290,l),
(335,290,ls),
(335,290,o),
(335,290,qs),
(335,150,ls),
(335,150,o),
(335,150,qs),
(215,150,ls),
(40,150,o),
(40,-45,qs),
(40,-240,o),
(215,-240,qs),
(277,-240,l),
(277,-90,l),
(215,-90,ls),
(190,-90,o),
(190,-45,qs),
(190,0,o),
(215,0,qs)
);
}
);
width = 525;
},
{
anchors = (
{
name = bottom;
pos = (242,-240);
},
{
name = center;
pos = (258,-106);
},
{
name = top;
pos = (242,450);
}
);
layerId = "3CC93672-F71B-4D5C-A968-72DE9C2CEAD3";
shapes = (
{
attr = {
strokePos = "1";
};
closed = 1;
nodes = (
(383,0,ls),
(443,0,o),
(443,60,qs),
(443,280,ls),
(443,430,o),
(293,430,qs),
(121,430,l),
(121,400,l),
(293,400,ls),
(413,400,o),
(413,280,qs),
(413,60,ls),
(413,30,o),
(383,30,qs),
(170,30,ls),
(50,30,o),
(50,-105,qs),
(50,-240,o),
(170,-240,qs),
(337,-240,l),
(337,-210,l),
(170,-210,ls),
(80,-210,o),
(80,-105,qs),
(80,0,o),
(170,0,qs)
);
}
);
width = 493;
},
{
anchors = (
{
name = bottom;
pos = (265,-240);
},
{
name = center;
pos = (363,-100);
},
{
name = top;
pos = (269,444);
}
);
associatedMasterId = "3CC93672-F71B-4D5C-A968-72DE9C2CEAD3";
attr = {
coordinates = (
75,
120
);
};
layerId = "F798DDC9-6B77-49B6-9FD5-63F6A1172EE4";
name = "25 Apr 25 at 02:57";
shapes = (
{
attr = {
strokePos = 1;
};
closed = 1;
nodes = (
(410,0,ls),
(470,0,o),
(470,60,qs),
(470,280,ls),
(470,436,o),
(320,436,qs),
(148,436,l),
(148,329,l),
(320,329,ls),
(363,329,o),
(363,286,qs),
(363,118,ls),
(363,107,o),
(352,107,qs),
(199,107,ls),
(44,107,o),
(44,-66,qs),
(44,-240,o),
(199,-240,qs),
(296,-240,l),
(296,-133,l),
(199,-133,ls),
(151,-133,o),
(151,-66,qs),
(151,0,o),
(199,0,qs)
);
}
);
width = 513;
}
);
metricLeft = "alef-ar";
metricRight = "alef-ar";
},
{
color = 4;
glyphname = "hah-ar.fina";
lastChange = "2025-05-06 14:12:51 +0000";
layers = (
{
layerId = "71E51144-4680-4E23-982C-DE3E5ABB4D1F";
shapes = (
{
attr = {
strokePos = 1;
};
closed = 1;
nodes = (
(1034,0,l),
(1034,170,l),
(834,170,l),
(787,170,o),
(749,132,o),
(749,85,c),
(749,38,o),
(787,0,o),
(834,0,c)
);
},
{
ref = "hah-ar";
}
);
width = 1034;
},
{
layerId = "A1E4B453-6299-48B5-AC61-B31B01EA2EEB";
shapes = (
{
attr = {
strokePos = 1;
};
closed = 1;
nodes = (
(1066,0,l),
(1066,30,l),
(826,30,l),
(818,30,o),
(811,23,o),
(811,15,c),
(811,7,o),
(818,0,o),
(826,0,c)
);
},
{
ref = "hah-ar";
}
);
width = 1066;
},
{
layerId = "8544E31D-FA38-4D18-9DEA-5E3E35DDFD01";
shapes = (
{
attr = {
strokePos = 1;
};
closed = 1;
nodes = (
(525,0,l),
(525,150,l),
(425,150,l),
(384,150,o),
(350,116,o),
(350,75,c),
(350,34,o),
(384,0,o),
(425,0,c)
);
},
{
ref = "hah-ar";
}
);
width = 525;
},
{
layerId = "3CC93672-F71B-4D5C-A968-72DE9C2CEAD3";
shapes = (
{
attr = {
strokePos = 1;
};
closed = 1;
nodes = (
(518,0,l),
(518,30,l),
(383,30,l),
(375,30,o),
(368,23,o),
(368,15,c),
(368,7,o),
(375,0,o),
(383,0,c)
);
},
{
ref = "hah-ar";
}
);
width = 518;
}
);
metricLeft = "alef-ar";
metricRight = "kashida-ar";
},
{
color = 5;
glyphname = "hah-ar.fina.alt";
lastChange = "2025-05-14 14:01:40 +0000";
layers = (
{
layerId = "71E51144-4680-4E23-982C-DE3E5ABB4D1F";
shapes = (
{
attr = {
strokePos = 1;
};
closed = 1;
nodes = (
(1034,0,l),
(1034,170,l),
(864,170,l),
(817,170,o),
(779,132,o),
(779,85,c),
(779,38,o),
(817,0,o),
(864,0,c)
);
},
{
ref = "hah-ar.alt";
}
);
width = 1034;
},
{
layerId = "A1E4B453-6299-48B5-AC61-B31B01EA2EEB";
shapes = (
{
attr = {
strokePos = 1;
};
closed = 1;
nodes = (
(1066,0,l),
(1066,30,l),
(826,30,l),
(818,30,o),
(811,23,o),
(811,15,c),
(811,7,o),
(818,0,o),
(826,0,c)
);
},
{
ref = "hah-ar.alt";
}
);
width = 1066;
},
{
layerId = "8544E31D-FA38-4D18-9DEA-5E3E35DDFD01";
shapes = (
{
attr = {
strokePos = 1;
};
closed = 1;
nodes = (
(525,0,l),
(525,150,l),
(425,150,l),
(384,150,o),
(350,116,o),
(350,75,c),
(350,34,o),
(384,0,o),
(425,0,c)
);
},
{
ref = "hah-ar.alt";
}
);
width = 525;
},
{
layerId = "3CC93672-F71B-4D5C-A968-72DE9C2CEAD3";
shapes = (
{
attr = {
strokePos = 1;
};
closed = 1;
nodes = (
(518,0,l),
(518,30,l),
(383,30,l),
(375,30,o),
(368,23,o),
(368,15,c),
(368,7,o),
(375,0,o),
(383,0,c)
);
},
{
ref = "hah-ar.alt";
}
);
width = 518;
}
);
metricLeft = "alef-ar";
metricRight = "kashida-ar";
},
{
color = 4;
glyphname = "hah-ar.medi";
lastChange = "2025-05-06 14:12:51 +0000";
layers = (
{
layerId = "71E51144-4680-4E23-982C-DE3E5ABB4D1F";
shapes = (
{
attr = {
strokePos = 1;
};
closed = 1;
nodes = (
(883,0,l),
(883,170,l),
(713,170,l),
(666,170,o),
(628,132,o),
(628,85,c),
(628,38,o),
(666,0,o),
(713,0,c)
);
},
{
ref = "hah-ar.init";
}
);
width = 883;
},
{
layerId = "A1E4B453-6299-48B5-AC61-B31B01EA2EEB";
shapes = (
{
attr = {
strokePos = 1;
};
closed = 1;
nodes = (
(1022,0,l),
(1022,30,l),
(782,30,l),
(774,30,o),
(767,23,o),
(767,15,c),
(767,7,o),
(774,0,o),
(782,0,c)
);
},
{
ref = "hah-ar.init";
}
);
width = 1022;
},
{
layerId = "8544E31D-FA38-4D18-9DEA-5E3E35DDFD01";
shapes = (
{
attr = {
strokePos = 1;
};
closed = 1;
nodes = (
(402,0,l),
(402,150,l),
(302,150,l),
(261,150,o),
(227,116,o),
(227,75,c),
(227,34,o),
(261,0,o),
(302,0,c)
);
},
{
ref = "hah-ar.init";
}
);
width = 402;
},
{
layerId = "3CC93672-F71B-4D5C-A968-72DE9C2CEAD3";
shapes = (
{
attr = {
strokePos = 1;
};
closed = 1;
nodes = (
(472,0,l),
(472,30,l),
(337,30,l),
(329,30,o),
(322,23,o),
(322,15,c),
(322,7,o),
(329,0,o),
(337,0,c)
);
},
{
ref = "hah-ar.init";
}
);
width = 472;
}
);
metricLeft = "kashida-ar";
metricRight = "kashida-ar";
},
{
color = 4;
glyphname = "hah-ar.init";
lastChange = "2025-05-31 13:31:24 +0000";
layers = (
{
anchors = (
{
name = bottom;
pos = (404,0);
},
{
name = top;
pos = (404,440);
}
);
layerId = "71E51144-4680-4E23-982C-DE3E5ABB4D1F";
shapes = (
{
attr = {
strokePos = "1";
};
closed = 1;
nodes = (
(713,0,ls),
(793,0,o),
(793,80,qs),
(793,240,ls),
(793,440,o),
(593,440,qs),
(90,440,l),
(90,270,l),
(623,270,ls),
(623,270,o),
(623,270,qs),
(623,170,ls),
(623,170,o),
(623,170,qs),
(0,170,ls),
(-36,170,o),
(-85,120,o),
(-85,85,qs),
(-85,50,o),
(-36,0,o),
(0,0,qs)
);
}
);
width = 873;
},
{
anchors = (
{
name = bottom;
pos = (459,0);
},
{
name = top;
pos = (459,450);
}
);
layerId = "A1E4B453-6299-48B5-AC61-B31B01EA2EEB";
shapes = (
{
attr = {
strokePos = "1";
};
closed = 1;
nodes = (
(782,0,ls),
(862,0,o),
(862,80,qs),
(862,230,ls),
(862,430,o),
(662,430,qs),
(159,430,l),
(159,400,l),
(662,400,ls),
(832,400,o),
(832,230,qs),
(832,80,ls),
(832,30,o),
(782,30,qs),
(0,30,ls),
(-6,30,o),
(-15,21,o),
(-15,15,qs),
(-15,9,o),
(-6,0,o),
(0,0,qs)
);
}
);
width = 962;
},
{
anchors = (
{
name = bottom;
pos = (170,0);
},
{
name = top;
pos = (170,440);
}
);
layerId = "8544E31D-FA38-4D18-9DEA-5E3E35DDFD01";
shapes = (
{
attr = {
strokePos = "1";
};
closed = 1;
nodes = (
(302,0,ls),
(362,0,o),
(362,60,qs),
(362,290,ls),
(362,440,o),
(212,440,qs),
(40,440,l),
(40,290,l),
(212,290,ls),
(212,290,o),
(212,290,qs),
(212,150,ls),
(212,150,o),
(212,150,qs),
(0,150,ls),
(-31,150,o),
(-75,106,o),
(-75,75,qs),
(-75,44,o),
(-31,0,o),
(0,0,qs)
);
}
);
width = 402;
},
{
anchors = (
{
name = bottom;
pos = (215,0);
},
{
name = top;
pos = (215,450);
}
);
layerId = "3CC93672-F71B-4D5C-A968-72DE9C2CEAD3";
shapes = (
{
attr = {
strokePos = "1";
};
closed = 1;
nodes = (
(337,0,ls),
(397,0,o),
(397,60,qs),
(397,280,ls),
(397,430,o),
(247,430,qs),
(75,430,l),
(75,400,l),
(247,400,ls),
(367,400,o),
(367,280,qs),
(367,60,ls),
(367,30,o),
(337,30,qs),
(0,30,ls),
(-6,30,o),
(-15,21,o),
(-15,15,qs),
(-15,9,o),
(-6,0,o),
(0,0,qs)
);
}
);
width = 447;
}
);
metricLeft = "kashida-ar";
metricRight = "alef-ar";
},
{
color = 4;
glyphname = "dal-ar";
lastChange = "2025-05-31 13:32:55 +0000";
layers = (
{
anchors = (
{
name = bottom;
pos = (240,0);
},
{
name = top;
pos = (333,440);
}
);
layerId = "71E51144-4680-4E23-982C-DE3E5ABB4D1F";
shapes = (
{
attr = {
strokePos = "1";
};
closed = 1;
nodes = (
(580,0,ls),
(660,0,o),
(660,80,qs),
(660,240,ls),
(660,440,o),
(460,440,qs),
(155,440,l),
(155,270,l),
(460,270,ls),
(490,270,o),
(490,240,qs),
(490,170,ls),
(490,170,o),
(490,170,qs),
(80,170,l),
(80,0,l)
);
}
);
width = 740;
},
{
anchors = (
{
name = bottom;
pos = (363,0);
},
{
name = top;
pos = (373,450);
}
);
layerId = "A1E4B453-6299-48B5-AC61-B31B01EA2EEB";
shapes = (
{
attr = {
strokePos = "1";
};
closed = 1;
nodes = (
(600,0,ls),
(680,0,o),
(680,80,qs),
(680,230,ls),
(680,430,o),
(480,430,qs),
(175,430,l),
(175,400,l),
(480,400,ls),
(650,400,o),
(650,230,qs),
(650,80,ls),
(650,30,o),
(600,30,qs),
(100,30,l),
(100,0,l)
);
}
);
width = 780;
},
{
anchors = (
{
name = bottom;
pos = (159,0);
},
{
name = top;
pos = (168,440);
}
);
layerId = "8544E31D-FA38-4D18-9DEA-5E3E35DDFD01";
shapes = (
{
attr = {
strokePos = "1";
};
closed = 1;
nodes = (
(248,0,ls),
(308,0,o),
(308,60,qs),
(308,290,ls),
(308,440,o),
(158,440,qs),
(88,440,l),
(88,290,l),
(158,290,ls),
(158,290,o),
(158,290,qs),
(158,150,ls),
(158,150,o),
(158,150,qs),
(40,150,l),
(40,0,l)
);
}
);
width = 348;
},
{
anchors = (
{
name = bottom;
pos = (169,0);
},
{
name = top;
pos = (178,450);
}
);
layerId = "3CC93672-F71B-4D5C-A968-72DE9C2CEAD3";
shapes = (
{
attr = {
strokePos = "1";
};
closed = 1;
nodes = (
(258,0,ls),
(318,0,o),
(318,60,qs),
(318,280,ls),
(318,430,o),
(168,430,qs),
(98,430,l),
(98,400,l),
(168,400,ls),
(288,400,o),
(288,280,qs),
(288,60,ls),
(288,30,o),
(258,30,qs),
(50,30,l),
(50,0,l)
);
}
);
width = 368;
}
);
metricLeft = "alef-ar";
metricRight = "alef-ar";
unicode = 1583;
},
{
color = 4;
glyphname = "dal-ar.fina";
lastChange = "2025-05-06 14:12:51 +0000";
layers = (
{
layerId = "71E51144-4680-4E23-982C-DE3E5ABB4D1F";
shapes = (
{
attr = {
strokePos = 1;
};
closed = 1;
nodes = (
(750,0,l),
(750,170,l),
(580,170,l),
(533,170,o),
(495,132,o),
(495,85,c),
(495,38,o),
(533,0,o),
(580,0,c)
);
},
{
ref = "dal-ar";
}
);
width = 750;
},
{
layerId = "A1E4B453-6299-48B5-AC61-B31B01EA2EEB";
shapes = (
{
attr = {
strokePos = 1;
};
closed = 1;
nodes = (
(840,0,l),
(840,30,l),
(600,30,l),
(592,30,o),
(585,23,o),
(585,15,c),
(585,7,o),
(592,0,o),
(600,0,c)
);
},
{
ref = "dal-ar";
}
);
width = 840;
},
{
layerId = "8544E31D-FA38-4D18-9DEA-5E3E35DDFD01";
shapes = (
{
attr = {
strokePos = 1;
};
closed = 1;
nodes = (
(348,0,l),
(348,150,l),
(248,150,l),
(207,150,o),
(173,116,o),
(173,75,c),
(173,34,o),
(207,0,o),
(248,0,c)
);
},
{
ref = "dal-ar";
}
);
width = 348;
},
{
layerId = "3CC93672-F71B-4D5C-A968-72DE9C2CEAD3";
shapes = (
{
attr = {
strokePos = 1;
};
closed = 1;
nodes = (
(393,0,l),
(393,30,l),
(258,30,l),
(250,30,o),
(243,23,o),
(243,15,c),
(243,7,o),
(250,0,o),
(258,0,c)
);
},
{
ref = "dal-ar";
}
);
width = 393;
}
);
metricLeft = "alef-ar";
metricRight = "kashida-ar";
},
{
color = 4;
glyphname = "reh-ar";
lastChange = "2025-05-31 13:33:28 +0000";
layers = (
{
anchors = (
{
name = bottom;
pos = (113,-235);
},
{
name = top;
pos = (263,390);
}
);
layerId = "71E51144-4680-4E23-982C-DE3E5ABB4D1F";
shapes = (
{
closed = 1;
nodes = (
(133,-230,ls),
(348,-230,o),
(348,-20,qs),
(348,390,l),
(178,390,l),
(178,-20,ls),
(178,-70,o),
(133,-70,qs),
(-100,-70,l),
(-100,-230,l)
);
}
);
width = 428;
},
{
anchors = (
{
name = bottom;
pos = (92,-211);
},
{
name = top;
pos = (242,400);
}
);
layerId = "A1E4B453-6299-48B5-AC61-B31B01EA2EEB";
shapes = (
{
closed = 1;
nodes = (
(112,-165,ls),
(257,-165,o),
(257,-20,qs),
(257,380,l),
(227,380,l),
(227,-20,ls),
(227,-135,o),
(112,-135,qs),
(-120,-135,l),
(-120,-165,l)
);
}
);
width = 357;
},
{
anchors = (
{
name = bottom;
pos = (36,-211);
},
{
name = top;
pos = (132,390);
}
);
layerId = "8544E31D-FA38-4D18-9DEA-5E3E35DDFD01";
shapes = (
{
closed = 1;
nodes = (
(42,-220,ls),
(207,-220,o),
(207,-60,qs),
(207,390,l),
(57,390,l),
(57,-60,ls),
(57,-80,o),
(42,-80,qs),
(-20,-80,l),
(-20,-220,l)
);
}
);
width = 247;
},
{
anchors = (
{
name = bottom;
pos = (16,-211);
},
{
name = top;
pos = (112,400);
}
);
layerId = "3CC93672-F71B-4D5C-A968-72DE9C2CEAD3";
shapes = (
{
closed = 1;
nodes = (
(22,-165,ls),
(127,-165,o),
(127,-60,qs),
(127,380,l),
(97,380,l),
(97,-60,ls),
(97,-135,o),
(22,-135,qs),
(-40,-135,l),
(-40,-165,l)
);
}
);
width = 177;
}
);
metricRight = "alef-ar";
unicode = 1585;
},
{
color = 4;
glyphname = "reh-ar.fina";
lastChange = "2025-05-07 18:59:44 +0000";
layers = (
{
layerId = "71E51144-4680-4E23-982C-DE3E5ABB4D1F";
shapes = (
{
attr = {
strokePos = 1;
};
closed = 1;
nodes = (
(448,0,l),
(448,170,l),
(345,170,l),
(345,0,l)
);
},
{
ref = "reh-ar";
}
);
width = 448;
},
{
layerId = "A1E4B453-6299-48B5-AC61-B31B01EA2EEB";
shapes = (
{
attr = {
strokePos = 1;
};
closed = 1;
nodes = (
(417,0,l),
(417,30,l),
(255,30,l),
(255,0,l)
);
},
{
ref = "reh-ar";
}
);
width = 417;
},
{
layerId = "8544E31D-FA38-4D18-9DEA-5E3E35DDFD01";
shapes = (
{
attr = {
strokePos = 1;
};
closed = 1;
nodes = (
(247,0,l),
(247,150,l),
(207,150,l),
(207,0,l)
);
},
{
ref = "reh-ar";
}
);
width = 247;
},
{
layerId = "3CC93672-F71B-4D5C-A968-72DE9C2CEAD3";
shapes = (
{
attr = {
strokePos = 1;
};
closed = 1;
nodes = (
(202,0,l),
(202,30,l),
(122,30,l),
(122,0,l)
);
},
{
ref = "reh-ar";
}
);
width = 202;
}
);
metricLeft = "reh-ar";
metricRight = "kashida-ar";
},
{
color = 4;
glyphname = "seen-ar";
lastChange = "2025-05-31 13:34:21 +0000";
layers = (
{
anchors = (
{
name = top;
pos = (1159,390);
}
);
layerId = "71E51144-4680-4E23-982C-DE3E5ABB4D1F";
shapes = (
{
attr = {
strokePos = "0";
};
closed = 1;
nodes = (
(1523,0,ls),
(1603,0,o),
(1603,80,qs),
(1603,390,l),
(1433,390,l),
(1433,170,ls),
(1433,170,o),
(1433,170,qs),
(869,170,l),
(869,0,l)
);
},
{
ref = "noonghunna-ar";
},
{
closed = 1;
nodes = (
(1239,3,l),
(1239,390,l),
(1069,390,l),
(1069,3,l)
);
}
);
width = 1683;
},
{
anchors = (
{
name = top;
pos = (1185,400);
}
);
layerId = "A1E4B453-6299-48B5-AC61-B31B01EA2EEB";
shapes = (
{
attr = {
strokePos = "0";
};
closed = 1;
nodes = (
(1512,0,ls),
(1592,0,o),
(1592,80,qs),
(1592,380,l),
(1562,380,l),
(1562,80,ls),
(1562,30,o),
(1512,30,qs),
(795,30,l),
(795,0,l)
);
},
{
ref = "noonghunna-ar";
},
{
closed = 1;
nodes = (
(1200,3,l),
(1200,380,l),
(1170,380,l),
(1170,3,l)
);
}
);
width = 1692;
},
{
anchors = (
{
name = top;
pos = (535,390);
}
);
layerId = "8544E31D-FA38-4D18-9DEA-5E3E35DDFD01";
shapes = (
{
attr = {
strokePos = "0";
};
closed = 1;
nodes = (
(726,0,ls),
(786,0,o),
(786,60,qs),
(786,390,l),
(636,390,l),
(636,150,ls),
(636,150,o),
(636,150,qs),
(436,150,l),
(436,0,l)
);
},
{
ref = "noonghunna-ar";
},
{
closed = 1;
nodes = (
(611,3,l),
(611,390,l),
(461,390,l),
(461,3,l)
);
}
);
width = 826;
},
{
anchors = (
{
name = top;
pos = (563,400);
}
);
layerId = "3CC93672-F71B-4D5C-A968-72DE9C2CEAD3";
shapes = (
{
attr = {
strokePos = "0";
};
closed = 1;
nodes = (
(706,0,ls),
(766,0,o),
(766,60,qs),
(766,380,l),
(736,380,l),
(736,60,ls),
(736,30,o),
(706,30,qs),
(389,30,l),
(389,0,l)
);
},
{
ref = "noonghunna-ar";
},
{
closed = 1;
nodes = (
(578,3,l),
(578,380,l),
(548,380,l),
(548,3,l)
);
}
);
width = 816;
}
);
metricLeft = "alef-ar";
metricRight = "alef-ar";
unicode = 1587;
},
{
color = 4;
glyphname = "seen-ar.fina";
lastChange = "2025-05-06 14:12:51 +0000";
layers = (
{
layerId = "71E51144-4680-4E23-982C-DE3E5ABB4D1F";
shapes = (
{
attr = {
strokePos = 1;
};
closed = 1;
nodes = (
(1693,0,l),
(1693,170,l),
(1523,170,l),
(1476,170,o),
(1438,132,o),
(1438,85,c),
(1438,38,o),
(1476,0,o),
(1523,0,c)
);
},
{
ref = "seen-ar";
}
);
width = 1693;
},
{
layerId = "A1E4B453-6299-48B5-AC61-B31B01EA2EEB";
shapes = (
{
attr = {
strokePos = 1;
};
closed = 1;
nodes = (
(1752,0,l),
(1752,30,l),
(1512,30,l),
(1504,30,o),
(1497,23,o),
(1497,15,c),
(1497,7,o),
(1504,0,o),
(1512,0,c)
);
},
{
ref = "seen-ar";
}
);
width = 1752;
},
{
layerId = "8544E31D-FA38-4D18-9DEA-5E3E35DDFD01";
shapes = (
{
attr = {
strokePos = 1;
};
closed = 1;
nodes = (
(826,0,l),
(826,150,l),
(726,150,l),
(685,150,o),
(651,116,o),
(651,75,c),
(651,34,o),
(685,0,o),
(726,0,c)
);
},
{
ref = "seen-ar";
}
);
width = 826;
},
{
layerId = "3CC93672-F71B-4D5C-A968-72DE9C2CEAD3";
shapes = (
{
attr = {
strokePos = 1;
};
closed = 1;
nodes = (
(841,0,l),
(841,30,l),
(706,30,l),
(698,30,o),
(691,23,o),
(691,15,c),
(691,7,o),
(698,0,o),
(706,0,c)
);
},
{
ref = "seen-ar";
}
);
width = 841;
}
);
metricLeft = "alef-ar";
metricRight = "kashida-ar";
},
{
color = 4;
glyphname = "seen-ar.medi";
lastChange = "2025-05-27 20:02:27 +0000";
layers = (
{
layerId = "71E51144-4680-4E23-982C-DE3E5ABB4D1F";
shapes = (
{
attr = {
strokePos = 1;
};
closed = 1;
nodes = (
(1108,0,l),
(1108,170,l),
(938,170,l),
(891,170,o),
(853,132,o),
(853,85,c),
(853,38,o),
(891,0,o),
(938,0,c)
);
},
{
ref = "seen-ar.init";
}
);
width = 1108;
},
{
layerId = "A1E4B453-6299-48B5-AC61-B31B01EA2EEB";
shapes = (
{
attr = {
strokePos = 1;
};
closed = 1;
nodes = (
(1134,0,l),
(1134,30,l),
(894,30,l),
(886,30,o),
(879,23,o),
(879,15,c),
(879,7,o),
(886,0,o),
(894,0,c)
);
},
{
ref = "seen-ar.init";
}
);
width = 1134;
},
{
layerId = "8544E31D-FA38-4D18-9DEA-5E3E35DDFD01";
shapes = (
{
attr = {
strokePos = 1;
};
closed = 1;
nodes = (
(580,0,l),
(580,150,l),
(480,150,l),
(439,150,o),
(405,116,o),
(405,75,c),
(405,34,o),
(439,0,o),
(480,0,c)
);
},
{
ref = "seen-ar.init";
}
);
width = 580;
},
{
layerId = "3CC93672-F71B-4D5C-A968-72DE9C2CEAD3";
shapes = (
{
attr = {
strokePos = 1;
};
closed = 1;
nodes = (
(557,0,l),
(557,30,l),
(422,30,l),
(414,30,o),
(407,23,o),
(407,15,c),
(407,7,o),
(414,0,o),
(422,0,c)
);
},
{
ref = "seen-ar.init";
}
);
width = 557;
}
);
metricLeft = "kashida-ar";
metricRight = "kashida-ar";
},
{
color = 4;
glyphname = "seen-ar.init";
lastChange = "2025-05-31 13:35:11 +0000";
layers = (
{
anchors = (
{
name = bottom;
pos = (557,0);
},
{
name = top;
pos = (557,390);
}
);
layerId = "71E51144-4680-4E23-982C-DE3E5ABB4D1F";
shapes = (
{
attr = {
strokePos = "0";
};
closed = 1;
nodes = (
(928,0,ls),
(1008,0,o),
(1008,80,qs),
(1008,390,l),
(838,390,l),
(838,170,ls),
(838,170,o),
(838,170,qs),
(370,170,l),
(350,85,l),
(370,0,l)
);
},
{
ref = "behDotless-ar.medi";
},
{
closed = 1;
nodes = (
(644,3,l),
(644,390,l),
(474,390,l),
(474,3,l)
);
}
);
width = 1088;
},
{
anchors = (
{
name = bottom;
pos = (567,0);
},
{
name = top;
pos = (567,400);
}
);
layerId = "A1E4B453-6299-48B5-AC61-B31B01EA2EEB";
shapes = (
{
attr = {
strokePos = "0";
};
closed = 1;
nodes = (
(894,0,ls),
(974,0,o),
(974,80,qs),
(974,380,l),
(944,380,l),
(944,80,ls),
(944,30,o),
(894,30,qs),
(350,30,l),
(340,15,l),
(350,0,l)
);
},
{
ref = "behDotless-ar.medi";
},
{
closed = 1;
nodes = (
(582,3,l),
(582,380,l),
(552,380,l),
(552,3,l)
);
}
);
width = 1074;
},
{
anchors = (
{
name = bottom;
pos = (290,0);
},
{
name = top;
pos = (290,390);
}
);
layerId = "8544E31D-FA38-4D18-9DEA-5E3E35DDFD01";
shapes = (
{
attr = {
strokePos = "0";
};
closed = 1;
nodes = (
(480,0,ls),
(540,0,o),
(540,60,qs),
(540,390,l),
(390,390,l),
(390,150,ls),
(390,150,o),
(390,150,qs),
(230,150,l),
(210,75,l),
(230,0,l)
);
},
{
ref = "behDotless-ar.medi";
},
{
closed = 1;
nodes = (
(365,3,l),
(365,390,l),
(215,390,l),
(215,3,l)
);
}
);
width = 580;
},
{
anchors = (
{
name = bottom;
pos = (278,0);
},
{
name = top;
pos = (278,400);
}
);
layerId = "3CC93672-F71B-4D5C-A968-72DE9C2CEAD3";
shapes = (
{
attr = {
strokePos = "0";
};
closed = 1;
nodes = (
(422,0,ls),
(482,0,o),
(482,60,qs),
(482,380,l),
(452,380,l),
(452,60,ls),
(452,30,o),
(422,30,qs),
(180,30,l),
(170,15,l),
(180,0,l)
);
},
{
ref = "behDotless-ar.medi";
},
{
closed = 1;
nodes = (
(293,3,l),
(293,380,l),
(263,380,l),
(263,3,l)
);
}
);
width = 532;
}
);
metricLeft = "kashida-ar";
metricRight = "alef-ar";
},
{
color = 4;
glyphname = "sad-ar";
lastChange = "2025-05-06 14:12:51 +0000";
layers = (
{
layerId = "71E51144-4680-4E23-982C-DE3E5ABB4D1F";
shapes = (
{
closed = 1;
nodes = (
(875,390,l),
(875,440,l),
(705,440,l),
(705,390,l)
);
},
{
ref = "noonghunna-ar";
},
{
pos = (340,0);
ref = _part.sadcurve;
}
);
width = 1684;
},
{
layerId = "A1E4B453-6299-48B5-AC61-B31B01EA2EEB";
shapes = (
{
closed = 1;
nodes = (
(808,360,l),
(808,420,l),
(778,420,l),
(778,360,l)
);
},
{
ref = "noonghunna-ar";
},
{
pos = (328,0);
ref = _part.sadcurve;
}
);
width = 1692;
},
{
layerId = "8544E31D-FA38-4D18-9DEA-5E3E35DDFD01";
shapes = (
{
closed = 1;
nodes = (
(436,360,l),
(436,440,l),
(286,440,l),
(286,360,l)
);
},
{
ref = "noonghunna-ar";
},
{
pos = (-220,0);
ref = _part.sadcurve;
}
);
width = 786;
},
{
layerId = "3CC93672-F71B-4D5C-A968-72DE9C2CEAD3";
shapes = (
{
closed = 1;
nodes = (
(390,360,l),
(390,420,l),
(360,420,l),
(360,360,l)
);
},
{
ref = "noonghunna-ar";
},
{
pos = (-206,0);
ref = _part.sadcurve;
}
);
width = 818;
}
);
metricLeft = "alef-ar";
metricRight = "alef-ar";
unicode = 1589;
},
{
color = 4;
glyphname = "sad-ar.fina";
lastChange = "2025-05-06 14:12:51 +0000";
layers = (
{
layerId = "71E51144-4680-4E23-982C-DE3E5ABB4D1F";
shapes = (
{
attr = {
strokePos = 1;
};
closed = 1;
nodes = (
(1694,0,l),
(1694,170,l),
(1524,170,l),
(1477,170,o),
(1439,132,o),
(1439,85,c),
(1439,38,o),
(1477,0,o),
(1524,0,c)
);
},
{
ref = "sad-ar";
}
);
width = 1694;
},
{
layerId = "A1E4B453-6299-48B5-AC61-B31B01EA2EEB";
shapes = (
{
attr = {
strokePos = 1;
};
closed = 1;
nodes = (
(1752,0,l),
(1752,30,l),
(1512,30,l),
(1504,30,o),
(1497,23,o),
(1497,15,c),
(1497,7,o),
(1504,0,o),
(1512,0,c)
);
},
{
ref = "sad-ar";
}
);
width = 1752;
},
{
layerId = "8544E31D-FA38-4D18-9DEA-5E3E35DDFD01";
shapes = (
{
attr = {
strokePos = 1;
};
closed = 1;
nodes = (
(776,0,l),
(776,150,l),
(676,150,l),
(635,150,o),
(601,116,o),
(601,75,c),
(601,34,o),
(635,0,o),
(676,0,c)
);
},
{
ref = "sad-ar";
}
);
width = 776;
},
{
layerId = "3CC93672-F71B-4D5C-A968-72DE9C2CEAD3";
shapes = (
{
attr = {
strokePos = 1;
};
closed = 1;
nodes = (
(843,0,l),
(843,30,l),
(708,30,l),
(700,30,o),
(693,23,o),
(693,15,c),
(693,7,o),
(700,0,o),
(708,0,c)
);
},
{
ref = "sad-ar";
}
);
width = 843;
}
);
metricLeft = "alef-ar";
metricRight = "kashida-ar";
},
{
color = 4;
glyphname = "sad-ar.medi";
lastChange = "2025-05-06 14:12:51 +0000";
layers = (
{
layerId = "71E51144-4680-4E23-982C-DE3E5ABB4D1F";
shapes = (
{
attr = {
strokePos = 1;
};
closed = 1;
nodes = (
(1079,0,l),
(1079,170,l),
(909,170,l),
(862,170,o),
(824,132,o),
(824,85,c),
(824,38,o),
(862,0,o),
(909,0,c)
);
},
{
ref = "sad-ar.init";
}
);
width = 1079;
},
{
layerId = "A1E4B453-6299-48B5-AC61-B31B01EA2EEB";
shapes = (
{
attr = {
strokePos = 1;
};
closed = 1;
nodes = (
(1134,0,l),
(1134,30,l),
(896,30,l),
(888,30,o),
(881,23,o),
(881,15,c),
(881,7,o),
(888,0,o),
(896,0,c)
);
},
{
ref = "sad-ar.init";
}
);
width = 1134;
},
{
layerId = "8544E31D-FA38-4D18-9DEA-5E3E35DDFD01";
shapes = (
{
attr = {
strokePos = 1;
};
closed = 1;
nodes = (
(540,0,l),
(540,150,l),
(440,150,l),
(399,150,o),
(365,116,o),
(365,75,c),
(365,34,o),
(399,0,o),
(440,0,c)
);
},
{
ref = "sad-ar.init";
}
);
width = 540;
},
{
layerId = "3CC93672-F71B-4D5C-A968-72DE9C2CEAD3";
shapes = (
{
attr = {
strokePos = 1;
};
closed = 1;
nodes = (
(558,0,l),
(558,30,l),
(423,30,l),
(415,30,o),
(408,23,o),
(408,15,c),
(408,7,o),
(415,0,o),
(423,0,c)
);
},
{
ref = "sad-ar.init";
}
);
width = 558;
}
);
metricLeft = "kashida-ar";
metricRight = "kashida-ar";
},
{
color = 4;
glyphname = "sad-ar.init";
lastChange = "2025-05-06 14:12:51 +0000";
layers = (
{
layerId = "71E51144-4680-4E23-982C-DE3E5ABB4D1F";
shapes = (
{
closed = 1;
nodes = (
(260,16,l),
(260,440,l),
(90,440,l),
(90,16,l)
);
},
{
attr = {
strokePos = 1;
};
closed = 1;
nodes = (
(175,0,l),
(175,170,l),
(0,170,l),
(-48,170,o),
(-85,132,o),
(-85,85,c),
(-85,38,o),
(-48,0,o),
(0,0,c)
);
},
{
pos = (-275,0);
ref = _part.sadcurve;
}
);
width = 1069;
},
{
layerId = "A1E4B453-6299-48B5-AC61-B31B01EA2EEB";
shapes = (
{
closed = 1;
nodes = (
(190,16,l),
(190,420,l),
(160,420,l),
(160,16,l)
);
},
{
attr = {
strokePos = 1;
};
closed = 1;
nodes = (
(175,0,l),
(175,30,l),
(0,30,l),
(-8,30,o),
(-15,23,o),
(-15,15,c),
(-15,7,o),
(-8,0,o),
(0,0,c)
);
},
{
pos = (-290,0);
ref = _part.sadcurve;
}
);
width = 1074;
},
{
layerId = "8544E31D-FA38-4D18-9DEA-5E3E35DDFD01";
shapes = (
{
closed = 1;
nodes = (
(190,16,l),
(190,440,l),
(40,440,l),
(40,16,l)
);
},
{
attr = {
strokePos = 1;
};
closed = 1;
nodes = (
(115,0,l),
(115,150,l),
(0,150,l),
(-42,150,o),
(-75,116,o),
(-75,75,c),
(-75,34,o),
(-42,0,o),
(0,0,c)
);
},
{
pos = (-466,0);
ref = _part.sadcurve;
}
);
width = 540;
},
{
layerId = "3CC93672-F71B-4D5C-A968-72DE9C2CEAD3";
shapes = (
{
closed = 1;
nodes = (
(105,16,l),
(105,420,l),
(75,420,l),
(75,16,l)
);
},
{
attr = {
strokePos = 1;
};
closed = 1;
nodes = (
(138,0,l),
(138,30,l),
(0,30,l),
(-8,30,o),
(-15,23,o),
(-15,15,c),
(-15,7,o),
(-8,0,o),
(0,0,c)
);
},
{
pos = (-491,0);
ref = _part.sadcurve;
}
);
width = 533;
}
);
metricLeft = "kashida-ar";
metricRight = "alef-ar";
},
{
color = 4;
glyphname = "tah-ar";
lastChange = "2025-05-06 14:12:51 +0000";
layers = (
{
layerId = "71E51144-4680-4E23-982C-DE3E5ABB4D1F";
shapes = (
{
closed = 1;
nodes = (
(325,16,l),
(325,640,l),
(155,640,l),
(155,16,l)
);
},
{
attr = {
strokePos = 1;
};
closed = 1;
nodes = (
(240,0,l),
(240,170,l),
(80,170,l),
(80,0,l)
);
},
{
pos = (-210,0);
ref = _part.sadcurve;
}
);
width = 1134;
},
{
layerId = "A1E4B453-6299-48B5-AC61-B31B01EA2EEB";
shapes = (
{
closed = 1;
nodes = (
(238,16,l),
(238,640,l),
(208,640,l),
(208,16,l)
);
},
{
attr = {
strokePos = 1;
};
closed = 1;
nodes = (
(223,0,l),
(223,30,l),
(100,30,l),
(100,0,l)
);
},
{
pos = (-242,0);
ref = _part.sadcurve;
}
);
width = 1122;
},
{
layerId = "8544E31D-FA38-4D18-9DEA-5E3E35DDFD01";
shapes = (
{
closed = 1;
nodes = (
(217,16,l),
(217,640,l),
(67,640,l),
(67,16,l)
);
},
{
attr = {
strokePos = 1;
};
closed = 1;
nodes = (
(149,0,l),
(149,150,l),
(40,150,l),
(40,0,l)
);
},
{
pos = (-439,0);
ref = _part.sadcurve;
}
);
width = 567;
},
{
layerId = "3CC93672-F71B-4D5C-A968-72DE9C2CEAD3";
shapes = (
{
closed = 1;
nodes = (
(143,16,l),
(143,640,l),
(113,640,l),
(113,16,l)
);
},
{
attr = {
strokePos = 1;
};
closed = 1;
nodes = (
(128,0,l),
(128,30,l),
(50,30,l),
(50,0,l)
);
},
{
pos = (-453,0);
ref = _part.sadcurve;
}
);
width = 571;
}
);
metricLeft = "alef-ar";
metricRight = "alef-ar";
unicode = 1591;
},
{
color = 4;
glyphname = "tah-ar.fina";
lastChange = "2025-05-06 14:12:51 +0000";
layers = (
{
layerId = "71E51144-4680-4E23-982C-DE3E5ABB4D1F";
shapes = (
{
attr = {
strokePos = 1;
};
closed = 1;
nodes = (
(1144,0,l),
(1144,170,l),
(974,170,l),
(927,170,o),
(889,132,o),
(889,85,c),
(889,38,o),
(927,0,o),
(974,0,c)
);
},
{
ref = "tah-ar";
}
);
width = 1144;
},
{
layerId = "A1E4B453-6299-48B5-AC61-B31B01EA2EEB";
shapes = (
{
attr = {
strokePos = 1;
};
closed = 1;
nodes = (
(1182,0,l),
(1182,30,l),
(935,30,l),
(927,30,o),
(920,23,o),
(920,15,c),
(920,7,o),
(927,0,o),
(935,0,c)
);
},
{
ref = "tah-ar";
}
);
width = 1182;
},
{
layerId = "8544E31D-FA38-4D18-9DEA-5E3E35DDFD01";
shapes = (
{
attr = {
strokePos = 1;
};
closed = 1;
nodes = (
(567,0,l),
(567,150,l),
(467,150,l),
(426,150,o),
(392,116,o),
(392,75,c),
(392,34,o),
(426,0,o),
(467,0,c)
);
},
{
ref = "tah-ar";
}
);
width = 567;
},
{
layerId = "3CC93672-F71B-4D5C-A968-72DE9C2CEAD3";
shapes = (
{
attr = {
strokePos = 1;
};
closed = 1;
nodes = (
(596,0,l),
(596,30,l),
(461,30,l),
(453,30,o),
(446,23,o),
(446,15,c),
(446,7,o),
(453,0,o),
(461,0,c)
);
},
{
ref = "tah-ar";
}
);
width = 596;
}
);
metricLeft = "alef-ar";
metricRight = "kashida-ar";
},
{
color = 4;
glyphname = "tah-ar.medi";
lastChange = "2025-05-06 14:12:51 +0000";
layers = (
{
layerId = "71E51144-4680-4E23-982C-DE3E5ABB4D1F";
shapes = (
{
attr = {
strokePos = 1;
};
closed = 1;
nodes = (
(1079,0,l),
(1079,170,l),
(909,170,l),
(862,170,o),
(824,132,o),
(824,85,c),
(824,38,o),
(862,0,o),
(909,0,c)
);
},
{
ref = "tah-ar.init";
}
);
width = 1079;
},
{
layerId = "A1E4B453-6299-48B5-AC61-B31B01EA2EEB";
shapes = (
{
attr = {
strokePos = 1;
};
closed = 1;
nodes = (
(1134,0,l),
(1134,30,l),
(894,30,l),
(886,30,o),
(879,23,o),
(879,15,c),
(879,7,o),
(886,0,o),
(894,0,c)
);
},
{
ref = "tah-ar.init";
}
);
width = 1134;
},
{
layerId = "8544E31D-FA38-4D18-9DEA-5E3E35DDFD01";
shapes = (
{
attr = {
strokePos = 1;
};
closed = 1;
nodes = (
(540,0,l),
(540,150,l),
(440,150,l),
(399,150,o),
(365,116,o),
(365,75,c),
(365,34,o),
(399,0,o),
(440,0,c)
);
},
{
ref = "tah-ar.init";
}
);
width = 540;
},
{
layerId = "3CC93672-F71B-4D5C-A968-72DE9C2CEAD3";
shapes = (
{
attr = {
strokePos = 1;
};
closed = 1;
nodes = (
(558,0,l),
(558,30,l),
(423,30,l),
(415,30,o),
(408,23,o),
(408,15,c),
(408,7,o),
(415,0,o),
(423,0,c)
);
},
{
ref = "tah-ar.init";
}
);
width = 558;
}
);
metricLeft = "kashida-ar";
metricRight = "kashida-ar";
},
{
color = 4;
glyphname = "tah-ar.init";
lastChange = "2025-05-27 20:03:40 +0000";
layers = (
{
layerId = "71E51144-4680-4E23-982C-DE3E5ABB4D1F";
shapes = (
{
attr = {
strokePos = 1;
};
closed = 1;
nodes = (
(15,0,l),
(35,85,l),
(15,170,l),
(0,170,l),
(-48,170,o),
(-85,132,o),
(-85,85,c),
(-85,38,o),
(-48,0,o),
(0,0,c)
);
},
{
pos = (-65,0);
ref = "tah-ar";
}
);
width = 1069;
},
{
layerId = "A1E4B453-6299-48B5-AC61-B31B01EA2EEB";
shapes = (
{
attr = {
strokePos = 1;
};
closed = 1;
nodes = (
(52,0,l),
(62,15,l),
(52,30,l),
(0,30,l),
(-8,30,o),
(-15,23,o),
(-15,15,c),
(-15,7,o),
(-8,0,o),
(0,0,c)
);
},
{
pos = (-48,0);
ref = "tah-ar";
}
);
width = 1074;
},
{
layerId = "8544E31D-FA38-4D18-9DEA-5E3E35DDFD01";
shapes = (
{
attr = {
strokePos = 1;
};
closed = 1;
nodes = (
(13,0,l),
(33,75,l),
(13,150,l),
(0,150,l),
(-42,150,o),
(-75,116,o),
(-75,75,c),
(-75,34,o),
(-42,0,o),
(0,0,c)
);
},
{
pos = (-27,0);
ref = "tah-ar";
}
);
width = 540;
},
{
layerId = "3CC93672-F71B-4D5C-A968-72DE9C2CEAD3";
shapes = (
{
attr = {
strokePos = 1;
};
closed = 1;
nodes = (
(12,0,l),
(22,15,l),
(12,30,l),
(0,30,l),
(-8,30,o),
(-15,23,o),
(-15,15,c),
(-15,7,o),
(-8,0,o),
(0,0,c)
);
},
{
pos = (-38,0);
ref = "tah-ar";
}
);
width = 533;
}
);
metricLeft = "kashida-ar";
metricRight = "alef-ar";
},
{
color = 4;
glyphname = "ain-ar";
lastChange = "2025-05-31 13:39:12 +0000";
layers = (
{
anchors = (
{
name = bottom;
pos = (479,-240);
},
{
name = top;
pos = (604,440);
}
);
layerId = "71E51144-4680-4E23-982C-DE3E5ABB4D1F";
shapes = (
{
attr = {
strokePos = "1";
};
closed = 1;
nodes = (
(473,170,l),
(423,170,o),
(423,220,qs),
(423,270,o),
(473,270,qs),
(805,270,l),
(805,440,l),
(473,440,ls),
(253,440,o),
(253,220,qs),
(253,0,o),
(473,0,q)
);
},
{
closed = 1;
nodes = (
(700,-240,l),
(700,-70,l),
(285,-70,ls),
(250,-70,o),
(250,-35,qs),
(250,0,o),
(285,0,qs),
(865,0,l),
(865,170,l),
(285,170,ls),
(80,170,o),
(80,-35,qs),
(80,-240,o),
(285,-240,qs)
);
}
);
width = 945;
},
{
anchors = (
{
name = bottom;
pos = (429,-240);
},
{
name = top;
pos = (565,450);
}
);
layerId = "A1E4B453-6299-48B5-AC61-B31B01EA2EEB";
shapes = (
{
attr = {
strokePos = "1";
};
closed = 1;
nodes = (
(412,30,l),
(232,30,o),
(232,215,qs),
(232,400,o),
(412,400,qs),
(780,400,l),
(780,430,l),
(412,430,ls),
(202,430,o),
(202,215,qs),
(202,0,o),
(412,0,q)
);
},
{
closed = 1;
nodes = (
(751,-240,l),
(751,-210,l),
(250,-210,ls),
(130,-210,o),
(130,-105,qs),
(130,0,o),
(250,0,qs),
(845,0,l),
(845,30,l),
(250,30,ls),
(100,30,o),
(100,-105,qs),
(100,-240,o),
(250,-240,qs)
);
}
);
width = 945;
},
{
anchors = (
{
name = bottom;
pos = (316,-240);
},
{
name = top;
pos = (316,440);
}
);
layerId = "8544E31D-FA38-4D18-9DEA-5E3E35DDFD01";
shapes = (
{
attr = {
strokePos = "1";
};
closed = 1;
nodes = (
(341,150,l),
(311,150,o),
(311,221,qs),
(311,290,o),
(341,290,qs),
(434,290,l),
(434,440,l),
(341,440,ls),
(171,440,o),
(171,221,qs),
(171,0,o),
(341,0,q)
);
},
{
closed = 1;
nodes = (
(400,-240,l),
(400,-90,l),
(215,-90,ls),
(190,-90,o),
(190,-45,qs),
(190,0,o),
(215,0,qs),
(468,0,l),
(468,150,l),
(215,150,ls),
(40,150,o),
(40,-45,qs),
(40,-240,o),
(215,-240,qs)
);
}
);
width = 508;
},
{
anchors = (
{
name = bottom;
pos = (266,-240);
},
{
name = top;
pos = (273,450);
}
);
layerId = "3CC93672-F71B-4D5C-A968-72DE9C2CEAD3";
shapes = (
{
attr = {
strokePos = "1";
};
closed = 1;
nodes = (
(281,30,l),
(151,30,o),
(151,220,qs),
(151,400,o),
(281,400,qs),
(354,400,l),
(354,430,l),
(281,430,ls),
(121,430,o),
(121,220,qs),
(121,0,o),
(281,0,q)
);
},
{
closed = 1;
nodes = (
(357,-240,l),
(357,-210,l),
(165,-210,ls),
(80,-210,o),
(80,-105,qs),
(80,0,o),
(165,0,qs),
(386,0,l),
(386,30,l),
(165,30,ls),
(50,30,o),
(50,-105,qs),
(50,-240,o),
(165,-240,qs)
);
}
);
width = 436;
}
);
metricLeft = "alef-ar";
metricRight = "alef-ar";
unicode = 1593;
},
{
color = 4;
glyphname = "ain-ar.fina";
lastChange = "2025-05-29 18:40:47 +0000";
layers = (
{
anchors = (
{
name = bottom;
pos = (479,-240);
},
{
name = top;
pos = (511,440);
}
);
layerId = "71E51144-4680-4E23-982C-DE3E5ABB4D1F";
shapes = (
{
closed = 1;
nodes = (
(700,-240,l),
(700,-70,l),
(285,-70,ls),
(265,-70,o),
(250,-55,o),
(250,-35,cs),
(250,-15,o),
(265,0,o),
(285,0,cs),
(895,0,l),
(895,170,l),
(285,170,ls),
(171,170,o),
(80,79,o),
(80,-35,cs),
(80,-149,o),
(171,-240,o),
(285,-240,cs)
);
},
{
closed = 1;
nodes = (
(762,190,ls),
(873,324,o),
(817,446,o),
(662,446,cs),
(364,446,ls),
(210,446,o),
(154,323,o),
(264,190,cs),
(394,33,l),
(524,144,l),
(414,276,ls),
(414,276,o),
(414,276,o),
(414,276,cs),
(612,276,ls),
(612,276,o),
(612,276,o),
(612,276,cs),
(502,144,l),
(632,33,l)
);
}
);
width = 895;
},
{
anchors = (
{
name = bottom;
pos = (429,-240);
},
{
name = top;
pos = (493,450);
}
);
layerId = "A1E4B453-6299-48B5-AC61-B31B01EA2EEB";
shapes = (
{
closed = 1;
nodes = (
(751,-240,l),
(751,-210,l),
(250,-210,ls),
(176,-210,o),
(130,-163,o),
(130,-105,cs),
(130,-47,o),
(176,0,o),
(250,0,cs),
(875,0,l),
(875,30,l),
(250,30,ls),
(162,30,o),
(100,-29,o),
(100,-105,cs),
(100,-181,o),
(162,-240,o),
(250,-240,cs)
);
},
{
closed = 1;
nodes = (
(718,270,ls),
(760,360,o),
(717,430,o),
(619,430,cs),
(352,430,ls),
(254,430,o),
(210,360,o),
(253,270,cs),
(374,13,l),
(402,25,l),
(281,282,ls),
(249,348,o),
(280,400,o),
(352,400,cs),
(619,400,ls),
(690,400,o),
(722,348,o),
(690,282,cs),
(569,25,l),
(597,13,l)
);
}
);
width = 875;
},
{
anchors = (
{
name = bottom;
pos = (316,-240);
},
{
name = top;
pos = (280,440);
}
);
layerId = "8544E31D-FA38-4D18-9DEA-5E3E35DDFD01";
shapes = (
{
closed = 1;
nodes = (
(400,-240,l),
(400,-90,l),
(215,-90,ls),
(205,-90,o),
(190,-74,o),
(190,-45,cs),
(190,-16,o),
(205,0,o),
(215,0,cs),
(474,0,l),
(474,150,l),
(215,150,ls),
(121,150,o),
(40,67,o),
(40,-45,cs),
(40,-158,o),
(121,-240,o),
(215,-240,cs)
);
},
{
closed = 1;
nodes = (
(438,289,ls),
(459,377,o),
(413,447,o),
(335,447,cs),
(223,447,ls),
(145,447,o),
(99,377,o),
(120,289,cs),
(184,19,l),
(277,130,l),
(255,307,ls),
(255,307,o),
(255,307,o),
(255,307,cs),
(303,307,ls),
(303,307,o),
(303,307,o),
(303,307,cs),
(281,130,l),
(374,19,l)
);
}
);
width = 474;
},
{
anchors = (
{
name = bottom;
pos = (266,-240);
},
{
name = top;
pos = (251,450);
}
);
layerId = "3CC93672-F71B-4D5C-A968-72DE9C2CEAD3";
shapes = (
{
closed = 1;
nodes = (
(357,-240,l),
(357,-210,l),
(165,-210,ls),
(118,-210,o),
(80,-165,o),
(80,-105,cs),
(80,-45,o),
(118,0,o),
(165,0,cs),
(446,0,l),
(446,30,l),
(165,30,ls),
(100,30,o),
(50,-31,o),
(50,-105,cs),
(50,-179,o),
(100,-240,o),
(165,-240,cs)
);
},
{
closed = 1;
nodes = (
(379,342,ls),
(389,391,o),
(356,430,o),
(305,430,cs),
(194,430,ls),
(142,430,o),
(110,391,o),
(120,342,cs),
(184,16,l),
(214,22,l),
(150,349,ls),
(144,378,o),
(163,400,o),
(194,400,cs),
(305,400,ls),
(336,400,o),
(355,378,o),
(349,349,cs),
(285,22,l),
(315,16,l)
);
}
);
width = 446;
}
);
metricLeft = "alef-ar";
metricRight = "kashida-ar";
},
{
color = 4;
glyphname = "ain-ar.fina.ss01";
lastChange = "2025-05-29 18:34:02 +0000";
layers = (
{
layerId = "71E51144-4680-4E23-982C-DE3E5ABB4D1F";
shapes = (
{
attr = {
strokePos = 1;
};
closed = 1;
nodes = (
(895,0,l),
(895,170,l),
(865,170,l),
(845,85,l),
(865,0,l)
);
},
{
ref = "ain-ar";
}
);
width = 895;
},
{
layerId = "A1E4B453-6299-48B5-AC61-B31B01EA2EEB";
shapes = (
{
attr = {
strokePos = 1;
};
closed = 1;
nodes = (
(940,0,l),
(940,30,l),
(845,30,l),
(835,15,l),
(845,0,l)
);
},
{
ref = "ain-ar";
}
);
width = 940;
},
{
layerId = "8544E31D-FA38-4D18-9DEA-5E3E35DDFD01";
shapes = (
{
attr = {
strokePos = 1;
};
closed = 1;
nodes = (
(474,0,l),
(474,150,l),
(468,150,l),
(448,75,l),
(468,0,l)
);
},
{
ref = "ain-ar";
}
);
width = 474;
},
{
layerId = "3CC93672-F71B-4D5C-A968-72DE9C2CEAD3";
shapes = (
{
attr = {
strokePos = 1;
};
closed = 1;
nodes = (
(429,0,l),
(429,30,l),
(386,30,l),
(376,15,l),
(386,0,l)
);
},
{
ref = "ain-ar";
}
);
width = 429;
}
);
metricLeft = "alef-ar";
metricRight = "kashida-ar";
},
{
color = 5;
glyphname = "ain-ar.medi";
lastChange = "2025-05-31 13:42:50 +0000";
layers = (
{
anchors = (
{
name = bottom;
pos = (367,0);
},
{
name = top;
pos = (367,446);
}
);
layerId = "71E51144-4680-4E23-982C-DE3E5ABB4D1F";
shapes = (
{
closed = 1;
nodes = (
(0,170,ls),
(-47,170,o),
(-85,132,o),
(-85,85,cs),
(-85,38,o),
(-47,0,o),
(0,0,cs),
(733,0,l),
(733,170,l)
);
},
{
closed = 1;
nodes = (
(622,190,ls),
(733,324,o),
(677,446,o),
(522,446,cs),
(224,446,ls),
(70,446,o),
(14,323,o),
(124,190,cs),
(254,33,l),
(384,144,l),
(274,276,ls),
(274,276,o),
(274,276,o),
(274,276,cs),
(472,276,ls),
(472,276,o),
(472,276,o),
(472,276,cs),
(362,144,l),
(492,33,l)
);
}
);
width = 733;
},
{
anchors = (
{
name = bottom;
pos = (394,0);
},
{
name = top;
pos = (394,450);
}
);
layerId = "A1E4B453-6299-48B5-AC61-B31B01EA2EEB";
shapes = (
{
closed = 1;
nodes = (
(0,30,ls),
(-8,30,o),
(-15,23,o),
(-15,15,cs),
(-15,7,o),
(-8,0,o),
(0,0,cs),
(788,0,l),
(788,30,l)
);
},
{
closed = 1;
nodes = (
(628,270,ls),
(670,360,o),
(627,430,o),
(529,430,cs),
(262,430,ls),
(164,430,o),
(120,360,o),
(163,270,cs),
(284,13,l),
(312,25,l),
(191,282,ls),
(159,348,o),
(190,400,o),
(262,400,cs),
(529,400,ls),
(600,400,o),
(632,348,o),
(600,282,cs),
(479,25,l),
(507,13,l)
);
}
);
width = 788;
},
{
anchors = (
{
name = bottom;
pos = (199,0);
},
{
name = top;
pos = (199,447);
}
);
layerId = "8544E31D-FA38-4D18-9DEA-5E3E35DDFD01";
shapes = (
{
closed = 1;
nodes = (
(0,150,ls),
(-41,150,o),
(-75,116,o),
(-75,75,cs),
(-75,34,o),
(-41,0,o),
(0,0,cs),
(397,0,l),
(397,150,l)
);
},
{
closed = 1;
nodes = (
(358,289,ls),
(379,377,o),
(333,447,o),
(255,447,cs),
(143,447,ls),
(65,447,o),
(19,377,o),
(40,289,cs),
(104,19,l),
(197,130,l),
(175,307,ls),
(175,307,o),
(175,307,o),
(175,307,cs),
(223,307,ls),
(223,307,o),
(223,307,o),
(223,307,cs),
(201,130,l),
(294,19,l)
);
}
);
width = 397;
},
{
anchors = (
{
name = bottom;
pos = (199,0);
},
{
name = top;
pos = (199,450);
}
);
layerId = "3CC93672-F71B-4D5C-A968-72DE9C2CEAD3";
shapes = (
{
closed = 1;
nodes = (
(0,30,ls),
(-8,30,o),
(-15,23,o),
(-15,15,cs),
(-15,7,o),
(-8,0,o),
(0,0,cs),
(398,0,l),
(398,30,l)
);
},
{
closed = 1;
nodes = (
(329,342,ls),
(341,401,o),
(316,430,o),
(255,430,cs),
(144,430,ls),
(83,430,o),
(58,401,o),
(70,342,cs),
(134,16,l),
(164,22,l),
(100,349,ls),
(93,383,o),
(108,400,o),
(144,400,cs),
(255,400,ls),
(291,400,o),
(306,383,o),
(299,349,cs),
(235,22,l),
(265,16,l)
);
}
);
width = 398;
}
);
metricLeft = "kashida-ar";
metricRight = "kashida-ar";
},
{
color = 4;
glyphname = "ain-ar.medi.ss01";
lastChange = "2025-05-29 18:32:47 +0000";
layers = (
{
layerId = "71E51144-4680-4E23-982C-DE3E5ABB4D1F";
shapes = (
{
attr = {
strokePos = 1;
};
closed = 1;
nodes = (
(732,0,l),
(732,170,l),
(702,170,l),
(682,85,l),
(702,0,l)
);
},
{
ref = "ain-ar.init";
}
);
width = 732;
},
{
layerId = "A1E4B453-6299-48B5-AC61-B31B01EA2EEB";
shapes = (
{
attr = {
strokePos = 1;
};
closed = 1;
nodes = (
(898,0,l),
(898,30,l),
(803,30,l),
(793,15,l),
(803,0,l)
);
},
{
ref = "ain-ar.init";
}
);
width = 898;
},
{
layerId = "8544E31D-FA38-4D18-9DEA-5E3E35DDFD01";
shapes = (
{
attr = {
strokePos = 1;
};
closed = 1;
nodes = (
(343,0,l),
(343,150,l),
(337,150,l),
(317,75,l),
(337,0,l)
);
},
{
ref = "ain-ar.init";
}
);
width = 343;
},
{
layerId = "3CC93672-F71B-4D5C-A968-72DE9C2CEAD3";
shapes = (
{
attr = {
strokePos = 1;
};
closed = 1;
nodes = (
(399,0,l),
(399,30,l),
(356,30,l),
(346,15,l),
(356,0,l)
);
},
{
ref = "ain-ar.init";
}
);
width = 399;
}
);
metricLeft = "kashida-ar";
metricRight = "kashida-ar";
},
{
color = 4;
glyphname = "ain-ar.init";
lastChange = "2025-05-31 13:42:25 +0000";
layers = (
{
anchors = (
{
name = bottom;
pos = (306,0);
},
{
name = top;
pos = (406,440);
}
);
layerId = "71E51144-4680-4E23-982C-DE3E5ABB4D1F";
shapes = (
{
attr = {
strokePos = "1";
};
closed = 1;
nodes = (
(290,170,l),
(260,170,o),
(260,220,qs),
(260,270,o),
(290,270,qs),
(642,270,l),
(642,440,l),
(290,440,ls),
(90,440,o),
(90,220,qs),
(90,0,o),
(290,0,q)
);
},
{
attr = {
strokePos = "0";
};
closed = 1;
nodes = (
(702,0,l),
(702,170,l),
(0,170,ls),
(-48,170,o),
(-85,132,o),
(-85,85,cs),
(-85,38,o),
(-48,0,o),
(0,0,cs)
);
}
);
width = 782;
},
{
anchors = (
{
name = bottom;
pos = (402,0);
},
{
name = top;
pos = (527,450);
}
);
layerId = "A1E4B453-6299-48B5-AC61-B31B01EA2EEB";
shapes = (
{
attr = {
strokePos = "1";
};
closed = 1;
nodes = (
(360,30,l),
(190,30,o),
(190,215,qs),
(190,400,o),
(360,400,qs),
(738,400,l),
(738,430,l),
(360,430,ls),
(160,430,o),
(160,215,qs),
(160,0,o),
(360,0,q)
);
},
{
attr = {
strokePos = "0";
};
closed = 1;
nodes = (
(803,0,l),
(803,30,l),
(0,30,ls),
(-8,30,o),
(-15,23,o),
(-15,15,cs),
(-15,7,o),
(-8,0,o),
(0,0,cs)
);
}
);
width = 903;
},
{
anchors = (
{
name = bottom;
pos = (201,0);
},
{
name = top;
pos = (190,440);
}
);
layerId = "8544E31D-FA38-4D18-9DEA-5E3E35DDFD01";
shapes = (
{
attr = {
strokePos = "1";
};
closed = 1;
nodes = (
(210,150,l),
(180,150,o),
(180,221,qs),
(180,290,o),
(210,290,qs),
(303,290,l),
(303,440,l),
(210,440,ls),
(40,440,o),
(40,221,qs),
(40,0,o),
(210,0,q)
);
},
{
attr = {
strokePos = 0;
};
closed = 1;
nodes = (
(337,0,l),
(337,150,l),
(0,150,ls),
(-42,150,o),
(-75,116,o),
(-75,75,cs),
(-75,34,o),
(-42,0,o),
(0,0,cs)
);
}
);
width = 377;
},
{
anchors = (
{
name = bottom;
pos = (225,0);
},
{
name = top;
pos = (225,465);
}
);
layerId = "3CC93672-F71B-4D5C-A968-72DE9C2CEAD3";
shapes = (
{
attr = {
strokePos = "1";
};
closed = 1;
nodes = (
(225,30,l),
(105,30,o),
(105,220,qs),
(105,400,o),
(225,400,qs),
(324,400,l),
(324,430,l),
(225,430,ls),
(75,430,o),
(75,220,qs),
(75,0,o),
(225,0,q)
);
},
{
attr = {
strokePos = 0;
};
closed = 1;
nodes = (
(356,0,l),
(356,30,l),
(0,30,ls),
(-8,30,o),
(-15,23,o),
(-15,15,cs),
(-15,7,o),
(-8,0,o),
(0,0,cs)
);
}
);
width = 406;
}
);
metricLeft = "kashida-ar";
metricRight = "alef-ar";
},
{
color = 5;
glyphname = "fehDotless-ar";
lastChange = "2025-05-31 13:45:18 +0000";
layers = (
{
anchors = (
{
name = bottom;
pos = (608,0);
}
);
layerId = "71E51144-4680-4E23-982C-DE3E5ABB4D1F";
shapes = (
{
attr = {
strokePos = "0";
};
closed = 1;
nodes = (
(484,0,l),
(484,170,l),
(250,170,ls),
(250,170,o),
(250,170,qs),
(250,390,l),
(80,390,l),
(80,80,ls),
(80,0,o),
(160,0,qs)
);
},
{
pos = (484,0);
ref = "fehDotless-ar.init";
}
);
width = 1239;
},
{
anchors = (
{
name = bottom;
pos = (593,0);
}
);
layerId = "A1E4B453-6299-48B5-AC61-B31B01EA2EEB";
shapes = (
{
attr = {
strokePos = "0";
};
closed = 1;
nodes = (
(481,0,l),
(481,30,l),
(180,30,ls),
(130,30,o),
(130,80,qs),
(130,360,l),
(100,360,l),
(100,80,ls),
(100,0,o),
(180,0,qs)
);
},
{
pos = (481,0);
ref = "fehDotless-ar.init";
}
);
width = 1256;
},
{
anchors = (
{
name = bottom;
pos = (314,0);
}
);
layerId = "8544E31D-FA38-4D18-9DEA-5E3E35DDFD01";
shapes = (
{
attr = {
strokePos = "0";
};
closed = 1;
nodes = (
(232,0,l),
(232,150,l),
(190,150,ls),
(190,150,o),
(190,150,qs),
(190,390,l),
(40,390,l),
(40,60,ls),
(40,0,o),
(100,0,qs)
);
},
{
pos = (231,0);
ref = "fehDotless-ar.init";
}
);
width = 626;
},
{
anchors = (
{
name = bottom;
pos = (252,0);
}
);
layerId = "3CC93672-F71B-4D5C-A968-72DE9C2CEAD3";
shapes = (
{
attr = {
strokePos = "0";
};
closed = 1;
nodes = (
(179,0,l),
(179,30,l),
(110,30,ls),
(80,30,o),
(80,60,qs),
(80,360,l),
(50,360,l),
(50,60,ls),
(50,0,o),
(110,0,qs)
);
},
{
pos = (179,0);
ref = "fehDotless-ar.init";
}
);
width = 559;
}
);
metricLeft = "alef-ar";
metricRight = "alef-ar";
unicode = 1697;
},
{
color = 4;
glyphname = "fehDotless-ar.ss01";
lastChange = "2025-05-31 13:46:59 +0000";
layers = (
{
anchors = (
{
name = bottom;
pos = (608,0);
}
);
layerId = "71E51144-4680-4E23-982C-DE3E5ABB4D1F";
shapes = (
{
attr = {
strokePos = "0";
};
closed = 1;
nodes = (
(484,0,l),
(484,170,l),
(250,170,ls),
(250,170,o),
(250,170,qs),
(250,390,l),
(80,390,l),
(80,80,ls),
(80,0,o),
(160,0,qs)
);
},
{
pos = (484,0);
ref = "fehDotless-ar.init.ss01";
}
);
width = 1239;
},
{
anchors = (
{
name = bottom;
pos = (593,0);
}
);
layerId = "A1E4B453-6299-48B5-AC61-B31B01EA2EEB";
shapes = (
{
attr = {
strokePos = "0";
};
closed = 1;
nodes = (
(481,0,l),
(481,30,l),
(180,30,ls),
(130,30,o),
(130,80,qs),
(130,360,l),
(100,360,l),
(100,80,ls),
(100,0,o),
(180,0,qs)
);
},
{
pos = (481,0);
ref = "fehDotless-ar.init.ss01";
}
);
width = 1256;
},
{
anchors = (
{
name = bottom;
pos = (314,0);
}
);
layerId = "8544E31D-FA38-4D18-9DEA-5E3E35DDFD01";
shapes = (
{
attr = {
strokePos = "0";
};
closed = 1;
nodes = (
(232,0,l),
(232,150,l),
(190,150,ls),
(190,150,o),
(190,150,qs),
(190,390,l),
(40,390,l),
(40,60,ls),
(40,0,o),
(100,0,qs)
);
},
{
pos = (231,0);
ref = "fehDotless-ar.init.ss01";
}
);
width = 626;
},
{
anchors = (
{
name = bottom;
pos = (252,0);
}
);
layerId = "3CC93672-F71B-4D5C-A968-72DE9C2CEAD3";
shapes = (
{
attr = {
strokePos = "0";
};
closed = 1;
nodes = (
(179,0,l),
(179,30,l),
(110,30,ls),
(80,30,o),
(80,60,qs),
(80,360,l),
(50,360,l),
(50,60,ls),
(50,0,o),
(110,0,qs)
);
},
{
pos = (179,0);
ref = "fehDotless-ar.init.ss01";
}
);
width = 559;
}
);
metricLeft = "alef-ar";
metricRight = "alef-ar";
},
{
color = 4;
glyphname = "fehDotless-ar.fina";
lastChange = "2025-05-06 14:12:51 +0000";
layers = (
{
layerId = "71E51144-4680-4E23-982C-DE3E5ABB4D1F";
shapes = (
{
attr = {
strokePos = 1;
};
closed = 1;
nodes = (
(1249,0,l),
(1249,170,l),
(1079,170,l),
(1032,170,o),
(994,132,o),
(994,85,c),
(994,38,o),
(1032,0,o),
(1079,0,c)
);
},
{
ref = "fehDotless-ar.ss01";
}
);
width = 1249;
},
{
layerId = "A1E4B453-6299-48B5-AC61-B31B01EA2EEB";
shapes = (
{
attr = {
strokePos = 1;
};
closed = 1;
nodes = (
(1316,0,l),
(1316,30,l),
(1076,30,l),
(1068,30,o),
(1061,23,o),
(1061,15,c),
(1061,7,o),
(1068,0,o),
(1076,0,c)
);
},
{
ref = "fehDotless-ar.ss01";
}
);
width = 1316;
},
{
layerId = "8544E31D-FA38-4D18-9DEA-5E3E35DDFD01";
shapes = (
{
attr = {
strokePos = 1;
};
closed = 1;
nodes = (
(626,0,l),
(626,150,l),
(526,150,l),
(485,150,o),
(451,116,o),
(451,75,c),
(451,34,o),
(485,0,o),
(526,0,c)
);
},
{
ref = "fehDotless-ar.ss01";
}
);
width = 626;
},
{
layerId = "3CC93672-F71B-4D5C-A968-72DE9C2CEAD3";
shapes = (
{
attr = {
strokePos = 1;
};
closed = 1;
nodes = (
(584,0,l),
(584,30,l),
(449,30,l),
(441,30,o),
(434,23,o),
(434,15,c),
(434,7,o),
(441,0,o),
(449,0,c)
);
},
{
ref = "fehDotless-ar.ss01";
}
);
width = 584;
}
);
metricLeft = "alef-ar";
metricRight = "kashida-ar";
},
{
color = 4;
glyphname = "fehDotless-ar.medi";
lastChange = "2025-05-06 14:12:51 +0000";
layers = (
{
layerId = "71E51144-4680-4E23-982C-DE3E5ABB4D1F";
shapes = (
{
attr = {
strokePos = 1;
};
closed = 1;
nodes = (
(765,0,l),
(765,170,l),
(595,170,l),
(548,170,o),
(510,132,o),
(510,85,c),
(510,38,o),
(548,0,o),
(595,0,c)
);
},
{
ref = "fehDotless-ar.init.ss01";
}
);
width = 765;
},
{
layerId = "A1E4B453-6299-48B5-AC61-B31B01EA2EEB";
shapes = (
{
attr = {
strokePos = 1;
};
closed = 1;
nodes = (
(835,0,l),
(835,30,l),
(595,30,l),
(587,30,o),
(580,23,o),
(580,15,c),
(580,7,o),
(587,0,o),
(595,0,c)
);
},
{
ref = "fehDotless-ar.init.ss01";
}
);
width = 835;
},
{
layerId = "8544E31D-FA38-4D18-9DEA-5E3E35DDFD01";
shapes = (
{
attr = {
strokePos = 1;
};
closed = 1;
nodes = (
(395,0,l),
(395,150,l),
(295,150,l),
(254,150,o),
(220,116,o),
(220,75,c),
(220,34,o),
(254,0,o),
(295,0,c)
);
},
{
ref = "fehDotless-ar.init.ss01";
}
);
width = 395;
},
{
layerId = "3CC93672-F71B-4D5C-A968-72DE9C2CEAD3";
shapes = (
{
attr = {
strokePos = 1;
};
closed = 1;
nodes = (
(405,0,l),
(405,30,l),
(270,30,l),
(262,30,o),
(255,23,o),
(255,15,c),
(255,7,o),
(262,0,o),
(270,0,c)
);
},
{
ref = "fehDotless-ar.init.ss01";
}
);
width = 405;
}
);
metricLeft = "kashida-ar";
metricRight = "kashida-ar";
},
{
color = 5;
glyphname = "fehDotless-ar.init";
lastChange = "2025-05-31 13:48:31 +0000";
layers = (
{
anchors = (
{
name = bottom;
pos = (208,0);
},
{
name = top;
pos = (208,440);
}
);
associatedMasterId = "8544E31D-FA38-4D18-9DEA-5E3E35DDFD01";
layerId = "AF2328F3-054F-45DA-84A7-F4287F825E56";
name = "14 May 25 at 18:35";
shapes = (
{
attr = {
strokePos = "1";
};
closed = 1;
nodes = (
(295,0,ls),
(329,0,o),
(355,26,o),
(355,60,cs),
(355,440,l),
(215,440,l),
(215,150,ls),
(215,150,o),
(215,150,o),
(215,150,cs),
(0,150,ls),
(-42,150,o),
(-75,116,o),
(-75,75,cs),
(-75,34,o),
(-42,0,o),
(0,0,cs)
);
},
{
attr = {
strokePos = "1";
};
closed = 1;
nodes = (
(180,150,l),
(180,150,o),
(180,150,o),
(180,221,cs),
(180,290,o),
(180,290,o),
(180,290,cs),
(215,290,l),
(215,440,l),
(180,440,ls),
(96,440,o),
(30,344,o),
(30,221,cs),
(30,97,o),
(96,0,o),
(180,0,c)
);
}
);
width = 395;
},
{
anchors = (
{
name = bottom;
pos = (208,0);
},
{
name = top;
pos = (218,508);
}
);
layerId = "8544E31D-FA38-4D18-9DEA-5E3E35DDFD01";
name = "Condensed Black";
shapes = (
{
attr = {
strokePos = "1";
};
closed = 1;
nodes = (
(295,0,ls),
(355,0,o),
(355,60,qs),
(355,507,l),
(215,507,l),
(215,150,ls),
(215,150,o),
(215,150,qs),
(0,150,ls),
(-31,150,o),
(-75,106,o),
(-75,75,qs),
(-75,44,o),
(-31,0,o),
(0,0,qs)
);
},
{
attr = {
strokePos = "1";
};
closed = 1;
nodes = (
(180,188,l),
(180,367,ls),
(180,367,o),
(180,367,qs),
(215,367,l),
(215,507,l),
(190,507,ls),
(40,507,o),
(40,357,qs),
(40,188,l)
);
},
{
closed = 1;
nodes = (
(180,188,l),
(263,188,l),
(263,328,l),
(180,328,l)
);
}
);
width = 395;
},
{
anchors = (
{
name = bottom;
pos = (413,0);
},
{
name = top;
pos = (413,450);
}
);
associatedMasterId = "A1E4B453-6299-48B5-AC61-B31B01EA2EEB";
layerId = "B9191385-D3AE-4555-934C-C374E8F630E2";
name = "14 May 25 at 18:35";
shapes = (
{
attr = {
strokePos = "1";
};
closed = 1;
nodes = (
(595,0,ls),
(646,0,o),
(675,29,o),
(675,80,cs),
(675,430,l),
(645,430,l),
(645,80,ls),
(645,46,o),
(629,30,o),
(595,30,cs),
(0,30,ls),
(-8,30,o),
(-15,23,o),
(-15,15,cs),
(-15,7,o),
(-8,0,o),
(0,0,cs)
);
},
{
attr = {
strokePos = "1";
};
closed = 1;
nodes = (
(368,30,l),
(267,30,o),
(188,111,o),
(188,215,cs),
(188,319,o),
(267,400,o),
(368,400,cs),
(646,400,l),
(646,430,l),
(368,430,ls),
(250,430,o),
(158,335,o),
(158,215,cs),
(158,95,o),
(250,0,o),
(368,0,c)
);
}
);
width = 775;
},
{
anchors = (
{
name = bottom;
pos = (443,0);
},
{
name = top;
pos = (473,480);
}
);
background = {
shapes = (
{
attr = {
strokePos = "1";
};
closed = 1;
nodes = (
(278,30,l),
(177,30,o),
(98,111,o),
(98,215,cs),
(98,319,o),
(177,400,o),
(278,400,cs),
(646,400,l),
(646,430,l),
(278,430,ls),
(160,430,o),
(68,335,o),
(68,215,cs),
(68,95,o),
(160,0,o),
(278,0,c)
);
},
{
attr = {
strokePos = "1";
};
closed = 1;
nodes = (
(595,0,ls),
(646,0,o),
(675,29,o),
(675,80,cs),
(675,430,l),
(645,430,l),
(645,80,ls),
(645,46,o),
(629,30,o),
(595,30,cs),
(0,30,ls),
(-8,30,o),
(-15,23,o),
(-15,15,cs),
(-15,7,o),
(-8,0,o),
(0,0,cs)
);
}
);
};
layerId = "A1E4B453-6299-48B5-AC61-B31B01EA2EEB";
name = "Expanded Thin";
shapes = (
{
attr = {
strokePos = "1";
};
closed = 1;
nodes = (
(595,0,ls),
(675,0,o),
(675,80,qs),
(675,460,l),
(645,460,l),
(645,80,ls),
(645,30,o),
(595,30,qs),
(0,30,ls),
(-6,30,o),
(-15,21,o),
(-15,15,qs),
(-15,9,o),
(-6,0,o),
(0,0,qs)
);
},
{
attr = {
strokePos = "1";
};
closed = 1;
nodes = (
(190,130,l),
(190,260,ls),
(190,430,o),
(360,430,qs),
(645,430,l),
(645,460,l),
(360,460,ls),
(160,460,o),
(160,260,qs),
(160,130,l)
);
},
{
closed = 1;
nodes = (
(190,130,l),
(652,130,l),
(652,160,l),
(190,160,l)
);
}
);
width = 775;
},
{
anchors = (
{
name = bottom;
pos = (192,0);
},
{
name = top;
pos = (192,450);
}
);
associatedMasterId = "3CC93672-F71B-4D5C-A968-72DE9C2CEAD3";
layerId = "9A5ABB5B-9C6F-48CA-A9B4-BE1E88E385A1";
name = "14 May 25 at 18:35";
shapes = (
{
attr = {
strokePos = "1";
};
closed = 1;
nodes = (
(270,0,ls),
(308,0,o),
(330,22,o),
(330,60,cs),
(330,430,l),
(300,430,l),
(300,60,ls),
(300,39,o),
(291,30,o),
(270,30,cs),
(0,30,ls),
(-8,30,o),
(-15,23,o),
(-15,15,cs),
(-15,7,o),
(-8,0,o),
(0,0,cs)
);
},
{
attr = {
strokePos = "1";
};
closed = 1;
nodes = (
(235,30,l),
(165,30,o),
(105,111,o),
(105,220,cs),
(105,324,o),
(164,400,o),
(235,400,cs),
(300,400,l),
(300,430,l),
(235,430,ls),
(145,430,o),
(75,338,o),
(75,220,cs),
(75,97,o),
(145,0,o),
(235,0,c)
);
}
);
width = 380;
},
{
anchors = (
{
name = bottom;
pos = (192,0);
},
{
name = top;
pos = (225,450);
}
);
layerId = "3CC93672-F71B-4D5C-A968-72DE9C2CEAD3";
name = "Condensed Thin";
shapes = (
{
attr = {
strokePos = "1";
};
closed = 1;
nodes = (
(270,0,ls),
(330,0,o),
(330,60,qs),
(330,430,l),
(300,430,l),
(300,60,ls),
(300,30,o),
(270,30,qs),
(0,30,ls),
(-6,30,o),
(-15,21,o),
(-15,15,qs),
(-15,9,o),
(-6,0,o),
(0,0,qs)
);
},
{
attr = {
strokePos = "1";
};
closed = 1;
nodes = (
(105,110,l),
(105,280,ls),
(105,400,o),
(225,400,qs),
(300,400,l),
(300,430,l),
(225,430,ls),
(75,430,o),
(75,280,qs),
(75,110,l)
);
},
{
closed = 1;
nodes = (
(105,110,l),
(319,110,l),
(319,140,l),
(105,140,l)
);
}
);
width = 380;
},
{
anchors = (
{
name = bottom;
pos = (388,0);
},
{
name = top;
pos = (388,440);
}
);
associatedMasterId = "71E51144-4680-4E23-982C-DE3E5ABB4D1F";
layerId = "9774691D-6C4D-4CC3-8E77-799F148F79F8";
name = "14 May 25 at 18:36";
shapes = (
{
attr = {
strokePos = "1";
};
closed = 1;
nodes = (
(595,0,ls),
(640,0,o),
(675,35,o),
(675,80,cs),
(675,440,l),
(505,440,l),
(505,170,ls),
(505,170,o),
(505,170,o),
(505,170,cs),
(0,170,ls),
(-48,170,o),
(-85,132,o),
(-85,85,cs),
(-85,38,o),
(-48,0,o),
(0,0,cs)
);
},
{
attr = {
strokePos = "1";
};
closed = 1;
nodes = (
(316,170,l),
(287,170,o),
(266,191,o),
(266,220,cs),
(266,249,o),
(287,270,o),
(316,270,cs),
(505,270,l),
(505,440,l),
(316,440,ls),
(193,440,o),
(96,343,o),
(96,220,cs),
(96,97,o),
(193,0,o),
(316,0,c)
);
}
);
width = 755;
},
{
anchors = (
{
name = bottom;
pos = (388,0);
},
{
name = top;
pos = (402,560);
}
);
layerId = "71E51144-4680-4E23-982C-DE3E5ABB4D1F";
name = "Expanded Black";
shapes = (
{
attr = {
strokePos = "1";
};
closed = 1;
nodes = (
(595,0,ls),
(675,0,o),
(675,80,qs),
(675,568,l),
(505,568,l),
(505,170,ls),
(505,170,o),
(505,170,qs),
(0,170,ls),
(-36,170,o),
(-85,120,o),
(-85,85,qs),
(-85,50,o),
(-36,0,o),
(0,0,qs)
);
},
{
attr = {
strokePos = "1";
};
closed = 1;
nodes = (
(260,212,l),
(260,373,ls),
(260,403,o),
(290,403,qs),
(505,403,l),
(505,568,l),
(290,568,ls),
(90,568,o),
(90,368,qs),
(90,212,l)
);
},
{
closed = 1;
nodes = (
(260,212,l),
(558,212,l),
(558,367,l),
(260,367,l)
);
}
);
width = 755;
}
);
metricLeft = "kashida-ar";
metricRight = "alef-ar";
},
{
color = 4;
glyphname = "fehDotless-ar.init.ss01";
lastChange = "2025-05-31 14:10:49 +0000";
layers = (
{
anchors = (
{
name = bottom;
pos = (388,0);
},
{
name = top;
pos = (388,440);
}
);
layerId = "71E51144-4680-4E23-982C-DE3E5ABB4D1F";
shapes = (
{
attr = {
strokePos = "1";
};
closed = 1;
nodes = (
(595,0,ls),
(675,0,o),
(675,80,qs),
(675,440,l),
(505,440,l),
(505,170,ls),
(505,170,o),
(505,170,qs),
(0,170,ls),
(-36,170,o),
(-85,120,o),
(-85,85,qs),
(-85,50,o),
(-36,0,o),
(0,0,qs)
);
},
{
attr = {
strokePos = "1";
};
closed = 1;
nodes = (
(260,10,l),
(260,240,ls),
(260,270,o),
(290,270,qs),
(505,270,l),
(505,440,l),
(290,440,ls),
(90,440,o),
(90,240,qs),
(90,10,l)
);
}
);
width = 755;
},
{
anchors = (
{
name = bottom;
pos = (413,0);
},
{
name = top;
pos = (413,450);
}
);
layerId = "A1E4B453-6299-48B5-AC61-B31B01EA2EEB";
shapes = (
{
attr = {
strokePos = "1";
};
closed = 1;
nodes = (
(595,0,ls),
(675,0,o),
(675,80,qs),
(675,430,l),
(645,430,l),
(645,80,ls),
(645,30,o),
(595,30,qs),
(0,30,ls),
(-6,30,o),
(-15,21,o),
(-15,15,qs),
(-15,9,o),
(-6,0,o),
(0,0,qs)
);
},
{
attr = {
strokePos = "1";
};
closed = 1;
nodes = (
(190,10,l),
(190,230,ls),
(190,400,o),
(360,400,qs),
(645,400,l),
(645,430,l),
(360,430,ls),
(160,430,o),
(160,230,qs),
(160,10,l)
);
}
);
width = 775;
},
{
anchors = (
{
name = bottom;
pos = (208,0);
},
{
name = top;
pos = (208,440);
}
);
layerId = "8544E31D-FA38-4D18-9DEA-5E3E35DDFD01";
shapes = (
{
attr = {
strokePos = "1";
};
closed = 1;
nodes = (
(295,0,ls),
(355,0,o),
(355,60,qs),
(355,440,l),
(215,440,l),
(215,150,ls),
(215,150,o),
(215,150,qs),
(0,150,ls),
(-31,150,o),
(-75,106,o),
(-75,75,qs),
(-75,44,o),
(-31,0,o),
(0,0,qs)
);
},
{
attr = {
strokePos = "1";
};
closed = 1;
nodes = (
(180,10,l),
(180,290,ls),
(180,290,o),
(180,290,qs),
(215,290,l),
(215,440,l),
(190,440,ls),
(40,440,o),
(40,290,qs),
(40,10,l)
);
}
);
width = 395;
},
{
anchors = (
{
name = bottom;
pos = (192,0);
},
{
name = top;
pos = (192,450);
}
);
layerId = "3CC93672-F71B-4D5C-A968-72DE9C2CEAD3";
shapes = (
{
attr = {
strokePos = "1";
};
closed = 1;
nodes = (
(270,0,ls),
(330,0,o),
(330,60,qs),
(330,430,l),
(300,430,l),
(300,60,ls),
(300,30,o),
(270,30,qs),
(0,30,ls),
(-6,30,o),
(-15,21,o),
(-15,15,qs),
(-15,9,o),
(-6,0,o),
(0,0,qs)
);
},
{
attr = {
strokePos = "1";
};
closed = 1;
nodes = (
(105,10,l),
(105,280,ls),
(105,400,o),
(225,400,qs),
(300,400,l),
(300,430,l),
(225,430,ls),
(75,430,o),
(75,280,qs),
(75,10,l)
);
}
);
width = 380;
}
);
metricLeft = "kashida-ar";
metricRight = "alef-ar";
},
{
color = 4;
glyphname = "qafDotless-ar";
lastChange = "2025-05-31 13:59:48 +0000";
layers = (
{
anchors = (
{
name = bottom;
pos = (366,-206);
},
{
name = top;
pos = (571,440);
}
);
layerId = "71E51144-4680-4E23-982C-DE3E5ABB4D1F";
shapes = (
{
attr = {
strokePos = "1";
};
closed = 1;
nodes = (
(786,170,l),
(456,170,l),
(456,240,ls),
(456,270,o),
(486,270,qs),
(701,270,l),
(701,-6,ls),
(701,-36,o),
(671,-36,qs),
(280,-36,ls),
(250,-36,o),
(250,-6,qs),
(250,280,l),
(80,280,l),
(80,-6,ls),
(80,-206,o),
(280,-206,qs),
(671,-206,ls),
(871,-206,o),
(871,-6,qs),
(871,440,l),
(486,440,ls),
(286,440,o),
(286,240,qs),
(286,0,l),
(786,0,l)
);
}
);
width = 951;
},
{
anchors = (
{
name = bottom;
pos = (473,-180);
},
{
name = top;
pos = (681,450);
}
);
layerId = "A1E4B453-6299-48B5-AC61-B31B01EA2EEB";
shapes = (
{
attr = {
strokePos = "1";
};
closed = 1;
nodes = (
(866,30,l),
(396,30,l),
(396,230,ls),
(396,400,o),
(566,400,qs),
(851,400,l),
(851,20,ls),
(851,-150,o),
(681,-150,qs),
(300,-150,ls),
(130,-150,o),
(130,20,qs),
(130,280,l),
(100,280,l),
(100,20,ls),
(100,-180,o),
(300,-180,qs),
(681,-180,ls),
(881,-180,o),
(881,20,qs),
(881,430,l),
(566,430,ls),
(366,430,o),
(366,230,qs),
(366,0,l),
(866,0,l)
);
}
);
width = 981;
},
{
anchors = (
{
name = bottom;
pos = (308,-200);
},
{
name = top;
pos = (409,440);
}
);
layerId = "8544E31D-FA38-4D18-9DEA-5E3E35DDFD01";
shapes = (
{
attr = {
strokePos = "1";
};
closed = 1;
nodes = (
(462,150,l),
(352,150,l),
(352,290,ls),
(352,290,o),
(352,290,qs),
(387,290,l),
(387,-50,ls),
(387,-50,o),
(387,-50,qs),
(180,-50,ls),
(180,-50,o),
(180,-50,qs),
(180,280,l),
(40,280,l),
(40,-50,ls),
(40,-200,o),
(190,-200,qs),
(380,-200,ls),
(537,-200,o),
(537,-50,qs),
(537,440,l),
(372,440,ls),
(222,440,o),
(222,290,qs),
(222,0,l),
(462,0,l)
);
}
);
width = 577;
},
{
anchors = (
{
name = bottom;
pos = (224,-180);
},
{
name = top;
pos = (347,450);
}
);
layerId = "3CC93672-F71B-4D5C-A968-72DE9C2CEAD3";
shapes = (
{
attr = {
strokePos = "1";
};
closed = 1;
nodes = (
(438,30,l),
(228,30,l),
(228,280,ls),
(228,400,o),
(348,400,qs),
(423,400,l),
(423,-30,ls),
(423,-150,o),
(303,-150,qs),
(200,-150,ls),
(80,-150,o),
(80,-30,qs),
(80,280,l),
(50,280,l),
(50,-30,ls),
(50,-180,o),
(200,-180,qs),
(303,-180,ls),
(453,-180,o),
(453,-30,qs),
(453,430,l),
(348,430,ls),
(198,430,o),
(198,280,qs),
(198,0,l),
(438,0,l)
);
}
);
width = 503;
}
);
metricLeft = "alef-ar";
metricRight = "alef-ar";
unicode = 1647;
},
{
color = 4;
glyphname = "qafDotless-ar.fina";
lastChange = "2025-05-08 10:01:36 +0000";
layers = (
{
layerId = "71E51144-4680-4E23-982C-DE3E5ABB4D1F";
shapes = (
{
attr = {
strokePos = 1;
};
closed = 1;
nodes = (
(971,0,l),
(971,170,l),
(865,170,l),
(865,0,l)
);
},
{
ref = "qafDotless-ar";
}
);
width = 971;
},
{
layerId = "A1E4B453-6299-48B5-AC61-B31B01EA2EEB";
shapes = (
{
attr = {
strokePos = 1;
};
closed = 1;
nodes = (
(1041,0,l),
(1041,30,l),
(878,30,l),
(878,0,l)
);
},
{
ref = "qafDotless-ar";
}
);
width = 1041;
},
{
layerId = "8544E31D-FA38-4D18-9DEA-5E3E35DDFD01";
shapes = (
{
attr = {
strokePos = 1;
};
closed = 1;
nodes = (
(577,0,l),
(577,150,l),
(532,150,l),
(532,0,l)
);
},
{
ref = "qafDotless-ar";
}
);
width = 577;
},
{
layerId = "3CC93672-F71B-4D5C-A968-72DE9C2CEAD3";
shapes = (
{
attr = {
strokePos = 1;
};
closed = 1;
nodes = (
(528,0,l),
(528,30,l),
(448,30,l),
(448,0,l)
);
},
{
ref = "qafDotless-ar";
}
);
width = 528;
}
);
metricLeft = "alef-ar";
metricRight = "kashida-ar";
},
{
color = 4;
glyphname = "kaf-ar";
lastChange = "2025-05-31 14:02:05 +0000";
layers = (
{
anchors = (
{
name = bottom;
pos = (536,0);
},
{
name = top;
pos = (536,519);
}
);
layerId = "71E51144-4680-4E23-982C-DE3E5ABB4D1F";
shapes = (
{
attr = {
strokePos = "0";
};
closed = 1;
nodes = (
(919,0,ls),
(999,0,o),
(999,80,qs),
(999,640,l),
(829,640,l),
(829,170,ls),
(829,170,o),
(829,170,qs),
(250,170,ls),
(250,170,o),
(250,170,qs),
(250,390,l),
(80,390,l),
(80,80,ls),
(80,0,o),
(160,0,qs)
);
},
{
attr = {
identifier = ID0x118a0c1a0;
};
closed = 1;
nodes = (
(616,322,ls),
(649,322,o),
(649,356,qs),
(649,385,ls),
(649,440,o),
(594,440,qs),
(500,440,l),
(500,453,ls),
(500,458,o),
(505,458,qs),
(596,458,l),
(596,508,l),
(505,508,ls),
(450,508,o),
(450,453,qs),
(450,390,l),
(594,390,ls),
(599,390,o),
(599,385,qs),
(599,372,l),
(450,372,l),
(450,322,l)
);
}
);
width = 1079;
},
{
anchors = (
{
name = bottom;
pos = (516,0);
},
{
name = top;
pos = (516,519);
}
);
layerId = "A1E4B453-6299-48B5-AC61-B31B01EA2EEB";
shapes = (
{
attr = {
strokePos = "0";
};
closed = 1;
nodes = (
(851,0,ls),
(931,0,o),
(931,80,qs),
(931,640,l),
(901,640,l),
(901,80,ls),
(901,30,o),
(851,30,qs),
(180,30,ls),
(130,30,o),
(130,80,qs),
(130,360,l),
(100,360,l),
(100,80,ls),
(100,0,o),
(180,0,qs)
);
},
{
attr = {
identifier = ID0x118a0c1a0;
};
closed = 1;
nodes = (
(566,343,ls),
(585,343,o),
(585,362,qs),
(585,380,ls),
(585,421,o),
(544,421,qs),
(456,421,l),
(456,438,ls),
(456,457,o),
(475,457,qs),
(556,457,l),
(556,479,l),
(475,479,ls),
(434,479,o),
(434,438,qs),
(434,399,l),
(544,399,ls),
(563,399,o),
(563,380,qs),
(563,365,l),
(434,365,l),
(434,343,l)
);
}
);
width = 1031;
},
{
anchors = (
{
name = bottom;
pos = (268,0);
},
{
name = top;
pos = (268,519);
}
);
layerId = "8544E31D-FA38-4D18-9DEA-5E3E35DDFD01";
shapes = (
{
attr = {
strokePos = "0";
};
closed = 1;
nodes = (
(440,0,ls),
(500,0,o),
(500,60,qs),
(500,640,l),
(350,640,l),
(350,150,ls),
(350,150,o),
(350,150,qs),
(190,150,ls),
(190,150,o),
(190,150,qs),
(190,390,l),
(40,390,l),
(40,60,ls),
(40,0,o),
(100,0,qs)
);
},
{
attr = {
identifier = ID0x118a0c1a0;
};
closed = 1;
nodes = (
(298,357,ls),
(321,357,o),
(321,381,qs),
(321,409,ls),
(321,451,o),
(279,451,qs),
(256,451,l),
(256,467,ls),
(256,473,o),
(262,473,qs),
(299,473,l),
(299,509,l),
(262,509,ls),
(220,509,o),
(220,467,qs),
(220,415,l),
(279,415,ls),
(285,415,o),
(285,409,qs),
(285,393,l),
(220,393,l),
(220,357,l)
);
}
);
width = 540;
},
{
anchors = (
{
name = bottom;
pos = (251,0);
},
{
name = top;
pos = (251,519);
}
);
layerId = "3CC93672-F71B-4D5C-A968-72DE9C2CEAD3";
shapes = (
{
attr = {
strokePos = "0";
};
closed = 1;
nodes = (
(394,0,ls),
(454,0,o),
(454,60,qs),
(454,640,l),
(424,640,l),
(424,60,ls),
(424,30,o),
(394,30,qs),
(110,30,ls),
(80,30,o),
(80,60,qs),
(80,380,l),
(50,380,l),
(50,60,ls),
(50,0,o),
(110,0,qs)
);
},
{
attr = {
identifier = ID0x118a0c1a0;
};
closed = 1;
nodes = (
(280,343,ls),
(296,343,o),
(296,360,qs),
(296,381,ls),
(296,421,o),
(261,421,qs),
(230,421,l),
(230,439,ls),
(230,457,o),
(243,457,qs),
(281,457,l),
(281,479,l),
(243,479,ls),
(208,479,o),
(208,439,qs),
(208,399,l),
(261,399,ls),
(274,399,o),
(274,381,qs),
(274,365,l),
(208,365,l),
(208,343,l)
);
}
);
width = 504;
}
);
metricLeft = "alef-ar";
metricRight = "alef-ar";
unicode = 1603;
},
{
color = 4;
glyphname = "kaf-ar.fina";
lastChange = "2025-05-06 14:12:51 +0000";
layers = (
{
layerId = "71E51144-4680-4E23-982C-DE3E5ABB4D1F";
shapes = (
{
attr = {
strokePos = 1;
};
closed = 1;
nodes = (
(1089,0,l),
(1089,170,l),
(919,170,l),
(872,170,o),
(834,132,o),
(834,85,c),
(834,38,o),
(872,0,o),
(919,0,c)
);
},
{
ref = "kaf-ar";
}
);
width = 1089;
},
{
layerId = "A1E4B453-6299-48B5-AC61-B31B01EA2EEB";
shapes = (
{
attr = {
strokePos = 1;
};
closed = 1;
nodes = (
(1091,0,l),
(1091,30,l),
(851,30,l),
(843,30,o),
(836,23,o),
(836,15,c),
(836,7,o),
(843,0,o),
(851,0,c)
);
},
{
ref = "kaf-ar";
}
);
width = 1091;
},
{
layerId = "8544E31D-FA38-4D18-9DEA-5E3E35DDFD01";
shapes = (
{
attr = {
strokePos = 1;
};
closed = 1;
nodes = (
(540,0,l),
(540,150,l),
(440,150,l),
(399,150,o),
(365,116,o),
(365,75,c),
(365,34,o),
(399,0,o),
(440,0,c)
);
},
{
ref = "kaf-ar";
}
);
width = 540;
},
{
layerId = "3CC93672-F71B-4D5C-A968-72DE9C2CEAD3";
shapes = (
{
attr = {
strokePos = 1;
};
closed = 1;
nodes = (
(529,0,l),
(529,30,l),
(394,30,l),
(386,30,o),
(379,23,o),
(379,15,c),
(379,7,o),
(386,0,o),
(394,0,c)
);
},
{
ref = "kaf-ar";
}
);
width = 529;
}
);
metricLeft = "alef-ar";
metricRight = "kashida-ar";
},
{
color = 4;
glyphname = "kaf-ar.medi";
lastChange = "2025-05-06 14:12:51 +0000";
layers = (
{
layerId = "71E51144-4680-4E23-982C-DE3E5ABB4D1F";
shapes = (
{
attr = {
strokePos = 1;
};
closed = 1;
nodes = (
(964,0,l),
(964,170,l),
(794,170,l),
(747,170,o),
(709,132,o),
(709,85,c),
(709,38,o),
(747,0,o),
(794,0,c)
);
},
{
ref = "kaf-ar.init";
}
);
width = 964;
},
{
layerId = "A1E4B453-6299-48B5-AC61-B31B01EA2EEB";
shapes = (
{
attr = {
strokePos = 1;
};
closed = 1;
nodes = (
(1040,0,l),
(1040,30,l),
(801,30,l),
(793,30,o),
(786,23,o),
(786,15,c),
(786,7,o),
(793,0,o),
(801,0,c)
);
},
{
ref = "kaf-ar.init";
}
);
width = 1040;
},
{
layerId = "8544E31D-FA38-4D18-9DEA-5E3E35DDFD01";
shapes = (
{
attr = {
strokePos = 1;
};
closed = 1;
nodes = (
(454,0,l),
(454,150,l),
(354,150,l),
(313,150,o),
(279,116,o),
(279,75,c),
(279,34,o),
(313,0,o),
(354,0,c)
);
},
{
ref = "kaf-ar.init";
}
);
width = 454;
},
{
layerId = "3CC93672-F71B-4D5C-A968-72DE9C2CEAD3";
shapes = (
{
attr = {
strokePos = 1;
};
closed = 1;
nodes = (
(473,0,l),
(473,30,l),
(338,30,l),
(330,30,o),
(323,23,o),
(323,15,c),
(323,7,o),
(330,0,o),
(338,0,c)
);
},
{
ref = "kaf-ar.init";
}
);
width = 473;
}
);
metricLeft = "kashida-ar";
metricRight = "kashida-ar";
},
{
color = 4;
glyphname = "kaf-ar.init";
lastChange = "2025-05-31 14:03:28 +0000";
layers = (
{
anchors = (
{
name = bottom;
pos = (432,0);
},
{
name = top;
pos = (474,640);
}
);
layerId = "71E51144-4680-4E23-982C-DE3E5ABB4D1F";
shapes = (
{
attr = {
strokePos = "1";
};
closed = 1;
nodes = (
(794,0,ls),
(874,0,o),
(874,80,qs),
(874,218,ls),
(874,418,o),
(674,418,qs),
(260,418,l),
(260,453,ls),
(260,488,o),
(290,488,qs),
(682,488,l),
(682,640,l),
(290,640,ls),
(90,640,o),
(90,440,qs),
(90,248,l),
(674,248,ls),
(704,248,o),
(704,218,qs),
(704,170,ls),
(704,170,o),
(704,170,qs),
(0,170,ls),
(-36,170,o),
(-85,120,o),
(-85,85,qs),
(-85,50,o),
(-36,0,o),
(0,0,qs)
);
}
);
width = 954;
},
{
anchors = (
{
name = bottom;
pos = (436,0);
},
{
name = top;
pos = (520,640);
}
);
layerId = "A1E4B453-6299-48B5-AC61-B31B01EA2EEB";
shapes = (
{
attr = {
strokePos = "1";
};
closed = 1;
nodes = (
(801,0,ls),
(881,0,o),
(881,80,qs),
(881,146,ls),
(881,346,o),
(681,346,qs),
(165,346,l),
(165,440,ls),
(165,610,o),
(335,610,qs),
(727,610,l),
(727,640,l),
(335,640,ls),
(135,640,o),
(135,440,qs),
(135,316,l),
(681,316,ls),
(851,316,o),
(851,146,qs),
(851,80,ls),
(851,30,o),
(801,30,qs),
(0,30,ls),
(-6,30,o),
(-15,21,o),
(-15,15,qs),
(-15,9,o),
(-6,0,o),
(0,0,qs)
);
}
);
width = 981;
},
{
anchors = (
{
name = bottom;
pos = (191,0);
},
{
name = top;
pos = (185,640);
}
);
layerId = "8544E31D-FA38-4D18-9DEA-5E3E35DDFD01";
shapes = (
{
attr = {
strokePos = "1";
};
closed = 1;
nodes = (
(354,0,ls),
(414,0,o),
(414,60,qs),
(414,248,ls),
(414,398,o),
(264,398,qs),
(190,398,l),
(190,495,ls),
(190,495,o),
(190,495,qs),
(291,495,l),
(291,640,l),
(190,640,ls),
(40,640,o),
(40,490,qs),
(40,248,l),
(264,248,ls),
(264,248,o),
(264,248,qs),
(264,150,ls),
(264,150,o),
(264,150,qs),
(0,150,ls),
(-31,150,o),
(-75,106,o),
(-75,75,qs),
(-75,44,o),
(-31,0,o),
(0,0,qs)
);
}
);
width = 454;
},
{
anchors = (
{
name = bottom;
pos = (195,0);
},
{
name = top;
pos = (192,640);
}
);
layerId = "3CC93672-F71B-4D5C-A968-72DE9C2CEAD3";
shapes = (
{
attr = {
strokePos = "1";
};
closed = 1;
nodes = (
(338,0,ls),
(398,0,o),
(398,60,qs),
(398,196,ls),
(398,346,o),
(248,346,qs),
(78,346,l),
(78,490,ls),
(78,610,o),
(198,610,qs),
(299,610,l),
(299,640,l),
(198,640,ls),
(48,640,o),
(48,490,qs),
(48,316,l),
(248,316,ls),
(368,316,o),
(368,196,qs),
(368,60,ls),
(368,30,o),
(338,30,qs),
(0,30,ls),
(-6,30,o),
(-15,21,o),
(-15,15,qs),
(-15,9,o),
(-6,0,o),
(0,0,qs)
);
}
);
width = 448;
}
);
metricLeft = "kashida-ar";
metricRight = "alef-ar";
},
{
color = 4;
glyphname = "keheh-ar";
lastChange = "2025-05-31 14:04:16 +0000";
layers = (
{
layerId = "71E51144-4680-4E23-982C-DE3E5ABB4D1F";
shapes = (
{
attr = {
strokePos = "1";
};
closed = 1;
nodes = (
(306,0,l),
(306,170,l),
(250,170,ls),
(250,170,o),
(250,170,qs),
(250,390,l),
(80,390,l),
(80,80,ls),
(80,0,o),
(160,0,qs)
);
},
{
pos = (306,0);
ref = "keheh-ar.init";
}
);
width = 1260;
},
{
layerId = "A1E4B453-6299-48B5-AC61-B31B01EA2EEB";
shapes = (
{
attr = {
strokePos = 1;
};
closed = 1;
nodes = (
(296,0,l),
(296,30,l),
(180,30,ls),
(130,30,o),
(130,80,qs),
(130,360,l),
(100,360,l),
(100,80,ls),
(100,0,o),
(180,0,qs)
);
},
{
pos = (296,0);
ref = "keheh-ar.init";
}
);
width = 1277;
},
{
layerId = "8544E31D-FA38-4D18-9DEA-5E3E35DDFD01";
shapes = (
{
attr = {
strokePos = "1";
};
closed = 1;
nodes = (
(197,0,l),
(197,150,l),
(190,150,ls),
(190,150,o),
(190,150,qs),
(190,390,l),
(40,390,l),
(40,60,ls),
(40,0,o),
(100,0,qs)
);
},
{
pos = (197,0);
ref = "keheh-ar.init";
}
);
width = 651;
},
{
layerId = "3CC93672-F71B-4D5C-A968-72DE9C2CEAD3";
shapes = (
{
attr = {
strokePos = 1;
};
closed = 1;
nodes = (
(134,0,l),
(134,30,l),
(110,30,ls),
(80,30,o),
(80,60,qs),
(80,380,l),
(50,380,l),
(50,60,ls),
(50,0,o),
(110,0,qs)
);
},
{
pos = (134,0);
ref = "keheh-ar.init";
}
);
width = 582;
}
);
metricLeft = "kaf-ar";
metricRight = "kaf-ar.init";
unicode = 1705;
},
{
color = 4;
glyphname = "keheh-ar.fina";
lastChange = "2025-05-06 14:12:35 +0000";
layers = (
{
layerId = "71E51144-4680-4E23-982C-DE3E5ABB4D1F";
shapes = (
{
attr = {
strokePos = "1";
};
closed = 1;
nodes = (
(1270,0,l),
(1270,170,l),
(1100,170,l),
(1053,170,o),
(1015,132,o),
(1015,85,c),
(1015,38,o),
(1053,0,o),
(1100,0,c)
);
},
{
ref = "keheh-ar";
}
);
width = 1270;
},
{
layerId = "A1E4B453-6299-48B5-AC61-B31B01EA2EEB";
shapes = (
{
attr = {
strokePos = "1";
};
closed = 1;
nodes = (
(1337,0,l),
(1337,30,l),
(1097,30,l),
(1089,30,o),
(1082,23,o),
(1082,15,c),
(1082,7,o),
(1089,0,o),
(1097,0,c)
);
},
{
ref = "keheh-ar";
}
);
width = 1337;
},
{
layerId = "8544E31D-FA38-4D18-9DEA-5E3E35DDFD01";
shapes = (
{
attr = {
strokePos = "1";
};
closed = 1;
nodes = (
(651,0,l),
(651,150,l),
(551,150,l),
(510,150,o),
(476,116,o),
(476,75,c),
(476,34,o),
(510,0,o),
(551,0,c)
);
},
{
ref = "keheh-ar";
}
);
width = 651;
},
{
layerId = "3CC93672-F71B-4D5C-A968-72DE9C2CEAD3";
shapes = (
{
attr = {
strokePos = "1";
};
closed = 1;
nodes = (
(607,0,l),
(607,30,l),
(472,30,l),
(464,30,o),
(457,23,o),
(457,15,c),
(457,7,o),
(464,0,o),
(472,0,c)
);
},
{
ref = "keheh-ar";
}
);
width = 607;
}
);
metricLeft = "kaf-ar";
metricRight = "kashida-ar";
},
{
color = 4;
glyphname = "lam-ar";
lastChange = "2025-05-31 14:05:23 +0000";
layers = (
{
anchors = (
{
name = bottom;
pos = (477,-160);
},
{
name = top;
pos = (477,481);
}
);
layerId = "71E51144-4680-4E23-982C-DE3E5ABB4D1F";
shapes = (
{
attr = {
strokePos = "0";
};
closed = 1;
nodes = (
(675,-160,ls),
(875,-160,o),
(875,40,qs),
(875,640,l),
(705,640,l),
(705,40,ls),
(705,10,o),
(675,10,qs),
(280,10,ls),
(250,10,o),
(250,40,qs),
(250,280,l),
(80,280,l),
(80,40,ls),
(80,-160,o),
(280,-160,qs)
);
}
);
width = 955;
},
{
anchors = (
{
name = bottom;
pos = (467,-160);
},
{
name = top;
pos = (467,481);
}
);
layerId = "A1E4B453-6299-48B5-AC61-B31B01EA2EEB";
shapes = (
{
attr = {
strokePos = "0";
};
closed = 1;
nodes = (
(608,-160,ls),
(808,-160,o),
(808,40,qs),
(808,640,l),
(778,640,l),
(778,40,ls),
(778,-130,o),
(608,-130,qs),
(300,-130,ls),
(130,-130,o),
(130,40,qs),
(130,280,l),
(100,280,l),
(100,40,ls),
(100,-160,o),
(300,-160,qs)
);
}
);
width = 908;
},
{
anchors = (
{
name = bottom;
pos = (192,-160);
},
{
name = top;
pos = (142,420);
}
);
layerId = "8544E31D-FA38-4D18-9DEA-5E3E35DDFD01";
shapes = (
{
attr = {
strokePos = "0";
};
closed = 1;
nodes = (
(286,-160,ls),
(436,-160,o),
(436,-10,qs),
(436,640,l),
(286,640,l),
(286,-10,ls),
(286,-10,o),
(286,-10,qs),
(190,-10,ls),
(190,-10,o),
(190,-10,qs),
(190,280,l),
(40,280,l),
(40,-10,ls),
(40,-160,o),
(190,-160,qs)
);
}
);
width = 476;
},
{
anchors = (
{
name = bottom;
pos = (202,-160);
},
{
name = top;
pos = (204,481);
}
);
layerId = "3CC93672-F71B-4D5C-A968-72DE9C2CEAD3";
shapes = (
{
attr = {
strokePos = "0";
};
closed = 1;
nodes = (
(240,-160,ls),
(390,-160,o),
(390,-10,qs),
(390,640,l),
(360,640,l),
(360,-10,ls),
(360,-130,o),
(240,-130,qs),
(200,-130,ls),
(80,-130,o),
(80,-10,qs),
(80,280,l),
(50,280,l),
(50,-10,ls),
(50,-160,o),
(200,-160,qs)
);
}
);
width = 440;
}
);
metricLeft = "alef-ar";
metricRight = "alef-ar";
unicode = 1604;
},
{
color = 4;
glyphname = "lam-ar.fina";
lastChange = "2025-05-06 14:12:51 +0000";
layers = (
{
layerId = "71E51144-4680-4E23-982C-DE3E5ABB4D1F";
shapes = (
{
attr = {
strokePos = 1;
};
closed = 1;
nodes = (
(965,0,l),
(965,170,l),
(866,170,l),
(866,0,l)
);
},
{
ref = "lam-ar";
}
);
width = 965;
},
{
layerId = "A1E4B453-6299-48B5-AC61-B31B01EA2EEB";
shapes = (
{
attr = {
strokePos = 1;
};
closed = 1;
nodes = (
(968,0,l),
(968,30,l),
(803,30,l),
(803,0,l)
);
},
{
ref = "lam-ar";
}
);
width = 968;
},
{
layerId = "8544E31D-FA38-4D18-9DEA-5E3E35DDFD01";
shapes = (
{
attr = {
strokePos = 1;
};
closed = 1;
nodes = (
(476,0,l),
(476,150,l),
(436,150,l),
(436,0,l)
);
},
{
ref = "lam-ar";
}
);
width = 476;
},
{
layerId = "3CC93672-F71B-4D5C-A968-72DE9C2CEAD3";
shapes = (
{
attr = {
strokePos = 1;
};
closed = 1;
nodes = (
(465,0,l),
(465,30,l),
(386,30,l),
(386,0,l)
);
},
{
ref = "lam-ar";
}
);
width = 465;
}
);
metricLeft = "alef-ar";
metricRight = "kashida-ar";
},
{
color = 4;
glyphname = "lam-ar.medi";
lastChange = "2025-05-06 14:12:51 +0000";
layers = (
{
layerId = "71E51144-4680-4E23-982C-DE3E5ABB4D1F";
shapes = (
{
attr = {
strokePos = 1;
};
closed = 1;
nodes = (
(350,0,l),
(350,170,l),
(180,170,l),
(133,170,o),
(95,132,o),
(95,85,c),
(95,38,o),
(133,0,o),
(180,0,c)
);
},
{
ref = "lam-ar.init";
}
);
width = 350;
},
{
layerId = "A1E4B453-6299-48B5-AC61-B31B01EA2EEB";
shapes = (
{
attr = {
strokePos = 1;
};
closed = 1;
nodes = (
(350,0,l),
(350,30,l),
(110,30,l),
(102,30,o),
(95,23,o),
(95,15,c),
(95,7,o),
(102,0,o),
(110,0,c)
);
},
{
ref = "lam-ar.init";
}
);
width = 350;
},
{
layerId = "8544E31D-FA38-4D18-9DEA-5E3E35DDFD01";
shapes = (
{
attr = {
strokePos = 1;
};
closed = 1;
nodes = (
(230,0,l),
(230,150,l),
(131,150,l),
(90,150,o),
(56,116,o),
(56,75,c),
(56,34,o),
(90,0,o),
(131,0,c)
);
},
{
ref = "lam-ar.init";
}
);
width = 230;
},
{
layerId = "3CC93672-F71B-4D5C-A968-72DE9C2CEAD3";
shapes = (
{
attr = {
strokePos = 1;
};
closed = 1;
nodes = (
(180,0,l),
(180,30,l),
(57,30,l),
(49,30,o),
(42,23,o),
(42,15,c),
(42,7,o),
(49,0,o),
(57,0,c)
);
},
{
ref = "lam-ar.init";
}
);
width = 180;
}
);
metricLeft = "kashida-ar";
metricRight = "kashida-ar";
},
{
color = 4;
glyphname = "lam-ar.init";
lastChange = "2025-05-31 14:06:01 +0000";
layers = (
{
anchors = (
{
name = bottom;
pos = (163,0);
},
{
name = top;
pos = (185,640);
}
);
layerId = "71E51144-4680-4E23-982C-DE3E5ABB4D1F";
shapes = (
{
attr = {
strokePos = "0";
};
closed = 1;
nodes = (
(180,0,ls),
(260,0,o),
(260,80,qs),
(260,640,l),
(90,640,l),
(90,170,ls),
(90,170,o),
(90,170,qs),
(0,170,ls),
(-36,170,o),
(-85,120,o),
(-85,85,qs),
(-85,50,o),
(-36,0,o),
(0,0,qs)
);
}
);
width = 340;
},
{
anchors = (
{
name = bottom;
pos = (154,0);
},
{
name = top;
pos = (175,640);
}
);
layerId = "A1E4B453-6299-48B5-AC61-B31B01EA2EEB";
shapes = (
{
attr = {
strokePos = "0";
};
closed = 1;
nodes = (
(110,0,ls),
(190,0,o),
(190,80,qs),
(190,640,l),
(160,640,l),
(160,80,ls),
(160,30,o),
(110,30,qs),
(0,30,ls),
(-6,30,o),
(-15,21,o),
(-15,15,qs),
(-15,9,o),
(-6,0,o),
(0,0,qs)
);
}
);
width = 290;
},
{
anchors = (
{
name = bottom;
pos = (113,0);
},
{
name = top;
pos = (130,640);
}
);
layerId = "8544E31D-FA38-4D18-9DEA-5E3E35DDFD01";
shapes = (
{
attr = {
strokePos = "0";
};
closed = 1;
nodes = (
(130,0,ls),
(190,0,o),
(190,60,qs),
(190,640,l),
(40,640,l),
(40,150,ls),
(40,150,o),
(40,150,qs),
(0,150,ls),
(-32,150,o),
(-75,106,o),
(-75,75,qs),
(-75,44,o),
(-31,0,o),
(0,0,qs)
);
}
);
width = 230;
},
{
anchors = (
{
name = bottom;
pos = (25,0);
},
{
name = top;
pos = (70,640);
}
);
layerId = "3CC93672-F71B-4D5C-A968-72DE9C2CEAD3";
shapes = (
{
attr = {
strokePos = "0";
};
closed = 1;
nodes = (
(45,0,ls),
(105,0,o),
(105,60,qs),
(105,640,l),
(75,640,l),
(75,60,ls),
(75,30,o),
(45,30,qs),
(0,30,ls),
(-6,30,o),
(-15,21,o),
(-15,15,qs),
(-15,9,o),
(-6,0,o),
(0,0,qs)
);
}
);
width = 155;
}
);
metricLeft = "kashida-ar";
metricRight = "alef-ar";
},
{
color = 4;
glyphname = "meem-ar";
lastChange = "2025-05-31 14:07:48 +0000";
layers = (
{
anchors = (
{
name = bottom;
pos = (646,-77);
},
{
name = top;
pos = (646,390);
}
);
layerId = "71E51144-4680-4E23-982C-DE3E5ABB4D1F";
shapes = (
{
attr = {
strokePos = "1";
};
closed = 1;
nodes = (
(951,-60,l),
(951,190,ls),
(951,390,o),
(751,390,qs),
(365,390,l),
(365,20,ls),
(365,-60,o),
(445,-60,qs)
);
},
{
closed = 1;
nodes = (
(250,-240,l),
(250,30,ls),
(250,30,o),
(250,30,qs),
(365,30,l),
(365,200,l),
(245,200,ls),
(80,200,o),
(80,35,qs),
(80,-240,l)
);
},
{
attr = {
strokePos = "1";
};
closed = 1;
nodes = (
(535,220,l),
(751,220,ls),
(781,220,o),
(781,190,qs),
(781,110,l),
(535,110,ls),
(535,110,o),
(535,110,qs)
);
}
);
width = 1031;
},
{
anchors = (
{
name = bottom;
pos = (447,-77);
},
{
name = top;
pos = (447,400);
}
);
layerId = "A1E4B453-6299-48B5-AC61-B31B01EA2EEB";
shapes = (
{
attr = {
strokePos = "1";
};
closed = 1;
nodes = (
(792,-60,l),
(792,180,ls),
(792,380,o),
(592,380,qs),
(277,380,l),
(277,20,ls),
(277,-60,o),
(357,-60,qs)
);
},
{
closed = 1;
nodes = (
(130,-240,l),
(130,30,ls),
(130,95,o),
(195,95,qs),
(277,95,l),
(277,125,l),
(195,125,ls),
(100,125,o),
(100,30,qs),
(100,-240,l)
);
},
{
attr = {
strokePos = "1";
};
closed = 1;
nodes = (
(307,350,l),
(592,350,ls),
(762,350,o),
(762,180,qs),
(762,-30,l),
(357,-30,ls),
(307,-30,o),
(307,20,qs)
);
}
);
width = 892;
},
{
anchors = (
{
name = bottom;
pos = (367,-77);
},
{
name = top;
pos = (367,390);
}
);
layerId = "8544E31D-FA38-4D18-9DEA-5E3E35DDFD01";
shapes = (
{
attr = {
strokePos = "1";
};
closed = 1;
nodes = (
(527,-60,l),
(527,240,ls),
(527,390,o),
(377,390,qs),
(219,390,l),
(219,0,ls),
(219,-60,o),
(279,-60,qs)
);
},
{
closed = 1;
nodes = (
(190,-240,l),
(190,35,ls),
(190,35,o),
(190,35,qs),
(219,35,l),
(219,185,l),
(175,185,ls),
(40,185,o),
(40,50,qs),
(40,-240,l)
);
},
{
attr = {
strokePos = "1";
};
closed = 1;
nodes = (
(356,240,l),
(390,240,ls),
(390,240,o),
(390,240,qs),
(390,90,l),
(356,90,ls),
(356,90,o),
(356,90,qs)
);
}
);
width = 567;
},
{
anchors = (
{
name = bottom;
pos = (255,-77);
},
{
name = top;
pos = (255,400);
}
);
layerId = "3CC93672-F71B-4D5C-A968-72DE9C2CEAD3";
shapes = (
{
attr = {
strokePos = "1";
};
closed = 1;
nodes = (
(413,-60,l),
(413,230,ls),
(413,380,o),
(263,380,qs),
(161,380,l),
(161,0,ls),
(161,-60,o),
(221,-60,qs)
);
},
{
closed = 1;
nodes = (
(80,-240,l),
(80,50,ls),
(80,95,o),
(125,95,qs),
(161,95,l),
(161,125,l),
(125,125,ls),
(50,125,o),
(50,50,qs),
(50,-240,l)
);
},
{
attr = {
strokePos = "1";
};
closed = 1;
nodes = (
(191,350,l),
(263,350,ls),
(383,350,o),
(383,230,qs),
(383,-30,l),
(221,-30,ls),
(191,-30,o),
(191,0,qs)
);
}
);
width = 463;
}
);
metricLeft = "alef-ar";
metricRight = "alef-ar";
unicode = 1605;
},
{
color = 4;
glyphname = "meem-ar.fina";
lastChange = "2025-05-06 14:12:51 +0000";
layers = (
{
layerId = "71E51144-4680-4E23-982C-DE3E5ABB4D1F";
shapes = (
{
attr = {
strokePos = 1;
};
closed = 1;
nodes = (
(1041,0,l),
(1041,170,l),
(951,170,l),
(951,0,l)
);
},
{
ref = "meem-ar";
}
);
width = 1041;
},
{
layerId = "A1E4B453-6299-48B5-AC61-B31B01EA2EEB";
shapes = (
{
attr = {
strokePos = 1;
};
closed = 1;
nodes = (
(952,0,l),
(952,30,l),
(792,30,l),
(792,0,l)
);
},
{
ref = "meem-ar";
}
);
width = 952;
},
{
layerId = "8544E31D-FA38-4D18-9DEA-5E3E35DDFD01";
shapes = (
{
attr = {
strokePos = 1;
};
closed = 1;
nodes = (
(567,0,l),
(567,150,l),
(527,150,l),
(527,0,l)
);
},
{
ref = "meem-ar";
}
);
width = 567;
},
{
layerId = "3CC93672-F71B-4D5C-A968-72DE9C2CEAD3";
shapes = (
{
attr = {
strokePos = 1;
};
closed = 1;
nodes = (
(488,0,l),
(488,30,l),
(413,30,l),
(413,0,l)
);
},
{
ref = "meem-ar";
}
);
width = 488;
}
);
metricLeft = "alef-ar";
metricRight = "kashida-ar";
},
{
color = 4;
glyphname = "meem-ar.medi";
lastChange = "2025-05-06 14:12:51 +0000";
layers = (
{
layerId = "71E51144-4680-4E23-982C-DE3E5ABB4D1F";
shapes = (
{
attr = {
strokePos = 1;
};
closed = 1;
nodes = (
(765,0,l),
(765,170,l),
(675,170,l),
(675,0,l)
);
},
{
ref = "meem-ar.init";
}
);
width = 765;
},
{
layerId = "A1E4B453-6299-48B5-AC61-B31B01EA2EEB";
shapes = (
{
attr = {
strokePos = 1;
};
closed = 1;
nodes = (
(835,0,l),
(835,30,l),
(675,30,l),
(675,0,l)
);
},
{
ref = "meem-ar.init";
}
);
width = 835;
},
{
layerId = "8544E31D-FA38-4D18-9DEA-5E3E35DDFD01";
shapes = (
{
attr = {
strokePos = 1;
};
closed = 1;
nodes = (
(388,0,l),
(388,150,l),
(348,150,l),
(348,0,l)
);
},
{
ref = "meem-ar.init";
}
);
width = 388;
},
{
layerId = "3CC93672-F71B-4D5C-A968-72DE9C2CEAD3";
shapes = (
{
attr = {
strokePos = 1;
};
closed = 1;
nodes = (
(402,0,l),
(402,30,l),
(327,30,l),
(327,0,l)
);
},
{
ref = "meem-ar.init";
}
);
width = 402;
}
);
metricLeft = "kashida-ar";
metricRight = "kashida-ar";
},
